<?xml version="1.0" encoding="utf-8" standalone="no"?>
<!DOCTYPE svg PUBLIC "-//W3C//DTD SVG 1.1//EN"
  "http://www.w3.org/Graphics/SVG/1.1/DTD/svg11.dtd">
<svg xmlns:xlink="http://www.w3.org/1999/xlink" width="421.009781pt" height="244.476pt" viewBox="0 0 421.009781 244.476" xmlns="http://www.w3.org/2000/svg" version="1.1">
 <metadata>
  <rdf:RDF xmlns:dc="http://purl.org/dc/elements/1.1/" xmlns:cc="http://creativecommons.org/ns#" xmlns:rdf="http://www.w3.org/1999/02/22-rdf-syntax-ns#">
   <cc:Work>
    <dc:type rdf:resource="http://purl.org/dc/dcmitype/StillImage"/>
    <dc:date>2026-06-13T10:30:35.909987</dc:date>
    <dc:format>image/svg+xml</dc:format>
    <dc:creator>
     <cc:Agent>
      <dc:title>Matplotlib v3.7.0, https://matplotlib.org/</dc:title>
     </cc:Agent>
    </dc:creator>
   </cc:Work>
  </rdf:RDF>
 </metadata>
 <defs>
  <style type="text/css">*{stroke-linejoin: round; stroke-linecap: butt}</style>
 </defs>
 <g id="figure_1">
  <g id="patch_1">
   <path d="M 0 244.476 
L 421.009781 244.476 
L 421.009781 0 
L 0 0 
z
" style="fill: #ffffff"/>
  </g>
  <g id="axes_1">
   <g id="line2d_1">
    <path d="M 39.564 225.7722 
L 39.564 18.7038 
" clip-path="url(#pe41847d4b3)" style="fill: none; stroke: #e9eff3; stroke-opacity: 0.55; stroke-width: 0.45; stroke-linecap: square"/>
   </g>
   <g id="line2d_2">
    <path d="M 80.019 225.7722 
L 80.019 18.7038 
" clip-path="url(#pe41847d4b3)" style="fill: none; stroke: #e9eff3; stroke-opacity: 0.55; stroke-width: 0.45; stroke-linecap: square"/>
   </g>
   <g id="line2d_3">
    <path d="M 136.656 225.7722 
L 136.656 18.7038 
" clip-path="url(#pe41847d4b3)" style="fill: none; stroke: #e9eff3; stroke-opacity: 0.55; stroke-width: 0.45; stroke-linecap: square"/>
   </g>
   <g id="line2d_4">
    <path d="M 282.294 225.7722 
L 282.294 18.7038 
" clip-path="url(#pe41847d4b3)" style="fill: none; stroke: #e9eff3; stroke-opacity: 0.55; stroke-width: 0.45; stroke-linecap: square"/>
   </g>
   <g id="line2d_5">
    <path d="M 338.931 225.7722 
L 338.931 18.7038 
" clip-path="url(#pe41847d4b3)" style="fill: none; stroke: #e9eff3; stroke-opacity: 0.55; stroke-width: 0.45; stroke-linecap: square"/>
   </g>
   <g id="line2d_6">
    <path d="M 383.4315 225.7722 
L 383.4315 18.7038 
" clip-path="url(#pe41847d4b3)" style="fill: none; stroke: #e9eff3; stroke-opacity: 0.55; stroke-width: 0.45; stroke-linecap: square"/>
   </g>
   <g id="line2d_7">
    <path d="M 23.382 209.66688 
L 395.568 209.66688 
" clip-path="url(#pe41847d4b3)" style="fill: none; stroke: #e9eff3; stroke-opacity: 0.45; stroke-width: 0.45; stroke-linecap: square"/>
   </g>
   <g id="line2d_8">
    <path d="M 23.382 182.05776 
L 395.568 182.05776 
" clip-path="url(#pe41847d4b3)" style="fill: none; stroke: #e9eff3; stroke-opacity: 0.45; stroke-width: 0.45; stroke-linecap: square"/>
   </g>
   <g id="line2d_9">
    <path d="M 23.382 149.84712 
L 395.568 149.84712 
" clip-path="url(#pe41847d4b3)" style="fill: none; stroke: #e9eff3; stroke-opacity: 0.45; stroke-width: 0.45; stroke-linecap: square"/>
   </g>
   <g id="line2d_10">
    <path d="M 23.382 94.62888 
L 395.568 94.62888 
" clip-path="url(#pe41847d4b3)" style="fill: none; stroke: #e9eff3; stroke-opacity: 0.45; stroke-width: 0.45; stroke-linecap: square"/>
   </g>
   <g id="line2d_11">
    <path d="M 23.382 57.81672 
L 395.568 57.81672 
" clip-path="url(#pe41847d4b3)" style="fill: none; stroke: #e9eff3; stroke-opacity: 0.45; stroke-width: 0.45; stroke-linecap: square"/>
   </g>
   <g id="line2d_12">
    <path d="M 23.382 30.2076 
L 395.568 30.2076 
" clip-path="url(#pe41847d4b3)" style="fill: none; stroke: #e9eff3; stroke-opacity: 0.45; stroke-width: 0.45; stroke-linecap: square"/>
   </g>
   <g id="patch_2">
    <path d="M 39.564 183.438216 
C 40.207727 183.438216 40.825176 183.292762 41.28036 183.03389 
C 41.735544 182.775017 41.9913 182.423861 41.9913 182.05776 
C 41.9913 181.691659 41.735544 181.340503 41.28036 181.08163 
C 40.825176 180.822758 40.207727 180.677304 39.564 180.677304 
C 38.920273 180.677304 38.302824 180.822758 37.84764 181.08163 
C 37.392456 181.340503 37.1367 181.691659 37.1367 182.05776 
C 37.1367 182.423861 37.392456 182.775017 37.84764 183.03389 
C 38.302824 183.292762 38.920273 183.438216 39.564 183.438216 
z
" clip-path="url(#pe41847d4b3)" style="fill: #ffffff; stroke: #e9eff3; stroke-width: 0.7; stroke-linejoin: miter"/>
   </g>
   <g id="patch_3">
    <path d="M 80.019 59.197176 
C 80.662727 59.197176 81.280176 59.051722 81.73536 58.79285 
C 82.190544 58.533977 82.4463 58.182821 82.4463 57.81672 
C 82.4463 57.450619 82.190544 57.099463 81.73536 56.84059 
C 81.280176 56.581718 80.662727 56.436264 80.019 56.436264 
C 79.375273 56.436264 78.757824 56.581718 78.30264 56.84059 
C 77.847456 57.099463 77.5917 57.450619 77.5917 57.81672 
C 77.5917 58.182821 77.847456 58.533977 78.30264 58.79285 
C 78.757824 59.051722 79.375273 59.197176 80.019 59.197176 
z
" clip-path="url(#pe41847d4b3)" style="fill: #ffffff; stroke: #e9eff3; stroke-width: 0.7; stroke-linejoin: miter"/>
   </g>
   <g id="patch_4">
    <path d="M 136.656 151.227576 
C 137.299727 151.227576 137.917176 151.082122 138.37236 150.82325 
C 138.827544 150.564377 139.0833 150.213221 139.0833 149.84712 
C 139.0833 149.481019 138.827544 149.129863 138.37236 148.87099 
C 137.917176 148.612118 137.299727 148.466664 136.656 148.466664 
C 136.012273 148.466664 135.394824 148.612118 134.93964 148.87099 
C 134.484456 149.129863 134.2287 149.481019 134.2287 149.84712 
C 134.2287 150.213221 134.484456 150.564377 134.93964 150.82325 
C 135.394824 151.082122 136.012273 151.227576 136.656 151.227576 
z
" clip-path="url(#pe41847d4b3)" style="fill: #ffffff; stroke: #e9eff3; stroke-width: 0.7; stroke-linejoin: miter"/>
   </g>
   <g id="patch_5">
    <path d="M 282.294 96.009336 
C 282.937727 96.009336 283.555176 95.863882 284.01036 95.60501 
C 284.465544 95.346137 284.7213 94.994981 284.7213 94.62888 
C 284.7213 94.262779 284.465544 93.911623 284.01036 93.65275 
C 283.555176 93.393878 282.937727 93.248424 282.294 93.248424 
C 281.650273 93.248424 281.032824 93.393878 280.57764 93.65275 
C 280.122456 93.911623 279.8667 94.262779 279.8667 94.62888 
C 279.8667 94.994981 280.122456 95.346137 280.57764 95.60501 
C 281.032824 95.863882 281.650273 96.009336 282.294 96.009336 
z
" clip-path="url(#pe41847d4b3)" style="fill: #ffffff; stroke: #e9eff3; stroke-width: 0.7; stroke-linejoin: miter"/>
   </g>
   <g id="patch_6">
    <path d="M 338.931 211.047336 
C 339.574727 211.047336 340.192176 210.901882 340.64736 210.64301 
C 341.102544 210.384137 341.3583 210.032981 341.3583 209.66688 
C 341.3583 209.300779 341.102544 208.949623 340.64736 208.69075 
C 340.192176 208.431878 339.574727 208.286424 338.931 208.286424 
C 338.287273 208.286424 337.669824 208.431878 337.21464 208.69075 
C 336.759456 208.949623 336.5037 209.300779 336.5037 209.66688 
C 336.5037 210.032981 336.759456 210.384137 337.21464 210.64301 
C 337.669824 210.901882 338.287273 211.047336 338.931 211.047336 
z
" clip-path="url(#pe41847d4b3)" style="fill: #ffffff; stroke: #e9eff3; stroke-width: 0.7; stroke-linejoin: miter"/>
   </g>
   <g id="patch_7">
    <path d="M 383.4315 31.588056 
C 384.075227 31.588056 384.692676 31.442602 385.14786 31.18373 
C 385.603044 30.924857 385.8588 30.573701 385.8588 30.2076 
C 385.8588 29.841499 385.603044 29.490343 385.14786 29.23147 
C 384.692676 28.972598 384.075227 28.827144 383.4315 28.827144 
C 382.787773 28.827144 382.170324 28.972598 381.71514 29.23147 
C 381.259956 29.490343 381.0042 29.841499 381.0042 30.2076 
C 381.0042 30.573701 381.259956 30.924857 381.71514 31.18373 
C 382.170324 31.442602 382.787773 31.588056 383.4315 31.588056 
z
" clip-path="url(#pe41847d4b3)" style="fill: #ffffff; stroke: #e9eff3; stroke-width: 0.7; stroke-linejoin: miter"/>
   </g>
   <g id="patch_8">
    <path d="M 30.25935 200.003688 
L 87.3009 200.003688 
Q 99.4374 200.003688 99.4374 193.101408 
L 99.4374 62.878392 
Q 99.4374 55.976112 87.3009 55.976112 
L 30.25935 55.976112 
Q 18.12285 55.976112 18.12285 62.878392 
L 18.12285 193.101408 
Q 18.12285 200.003688 30.25935 200.003688 
z
" clip-path="url(#pe41847d4b3)" style="fill: #f7fbff; stroke: #2469a6; stroke-linejoin: miter"/>
   </g>
   <g id="patch_9">
    <path d="M 30.6639 106.13268 
L 48.4641 106.13268 
Q 52.5096 106.13268 52.5096 103.83192 
L 52.5096 90.02736 
Q 52.5096 87.7266 48.4641 87.7266 
L 30.6639 87.7266 
Q 26.6184 87.7266 26.6184 90.02736 
L 26.6184 103.83192 
Q 26.6184 106.13268 30.6639 106.13268 
z
" clip-path="url(#pe41847d4b3)" style="fill: #ffffff; stroke: #2469a6; stroke-linejoin: miter"/>
   </g>
   <g id="patch_10">
    <path d="M 39.564 103.555829 
C 40.078982 103.555829 40.572941 103.439466 40.937088 103.232368 
C 41.301235 103.02527 41.50584 102.744345 41.50584 102.451464 
C 41.50584 102.158583 41.301235 101.877658 40.937088 101.67056 
C 40.572941 101.463462 40.078982 101.347099 39.564 101.347099 
C 39.049018 101.347099 38.555059 101.463462 38.190912 101.67056 
C 37.826765 101.877658 37.62216 102.158583 37.62216 102.451464 
C 37.62216 102.744345 37.826765 103.02527 38.190912 103.232368 
C 38.555059 103.439466 39.049018 103.555829 39.564 103.555829 
z
" clip-path="url(#pe41847d4b3)" style="fill: #2469a6"/>
   </g>
   <g id="patch_11">
    <path d="M 61.00515 109.58382 
L 78.80535 109.58382 
Q 82.85085 109.58382 82.85085 107.28306 
L 82.85085 93.4785 
Q 82.85085 91.17774 78.80535 91.17774 
L 61.00515 91.17774 
Q 56.95965 91.17774 56.95965 93.4785 
L 56.95965 107.28306 
Q 56.95965 109.58382 61.00515 109.58382 
z
" clip-path="url(#pe41847d4b3)" style="fill: #ffffff; stroke: #2f8f87; stroke-linejoin: miter"/>
   </g>
   <g id="patch_12">
    <path d="M 69.90525 107.006969 
C 70.420232 107.006969 70.914191 106.890606 71.278338 106.683508 
C 71.642485 106.47641 71.84709 106.195485 71.84709 105.902604 
C 71.84709 105.609723 71.642485 105.328798 71.278338 105.1217 
C 70.914191 104.914602 70.420232 104.798239 69.90525 104.798239 
C 69.390268 104.798239 68.896309 104.914602 68.532162 105.1217 
C 68.168015 105.328798 67.96341 105.609723 67.96341 105.902604 
C 67.96341 106.195485 68.168015 106.47641 68.532162 106.683508 
C 68.896309 106.890606 69.390268 107.006969 69.90525 107.006969 
z
" clip-path="url(#pe41847d4b3)" style="fill: #2f8f87"/>
   </g>
   <g id="patch_13">
    <path d="M 69.90525 100.610856 
C 71.299993 100.610856 72.637798 100.295707 73.624031 99.734816 
C 74.610263 99.173925 75.1644 98.413087 75.1644 97.619868 
C 75.1644 96.826649 74.610263 96.065811 73.624031 95.50492 
C 72.637798 94.944029 71.299993 94.62888 69.90525 94.62888 
C 68.510507 94.62888 67.172702 94.944029 66.186469 95.50492 
C 65.200237 96.065811 64.6461 96.826649 64.6461 97.619868 
C 64.6461 98.413087 65.200237 99.173925 66.186469 99.734816 
C 67.172702 100.295707 68.510507 100.610856 69.90525 100.610856 
z
" clip-path="url(#pe41847d4b3)" style="fill: #ddecf8; stroke: #2f8f87; stroke-width: 0.8; stroke-linejoin: miter"/>
   </g>
   <g id="patch_14">
    <path d="M 69.90525 98.770248 
C 70.44169 98.770248 70.95623 98.649037 71.33555 98.433309 
C 71.71487 98.217582 71.928 97.924952 71.928 97.619868 
C 71.928 97.314784 71.71487 97.022154 71.33555 96.806427 
C 70.95623 96.590699 70.44169 96.469488 69.90525 96.469488 
C 69.36881 96.469488 68.85427 96.590699 68.47495 96.806427 
C 68.09563 97.022154 67.8825 97.314784 67.8825 97.619868 
C 67.8825 97.924952 68.09563 98.217582 68.47495 98.433309 
C 68.85427 98.649037 69.36881 98.770248 69.90525 98.770248 
z
" clip-path="url(#pe41847d4b3)" style="fill: #2f8f87"/>
   </g>
   <g id="patch_15">
    <path d="M 35.5185 141.79446 
L 53.3187 141.79446 
Q 57.3642 141.79446 57.3642 139.4937 
L 57.3642 125.68914 
Q 57.3642 123.38838 53.3187 123.38838 
L 35.5185 123.38838 
Q 31.473 123.38838 31.473 125.68914 
L 31.473 139.4937 
Q 31.473 141.79446 35.5185 141.79446 
z
" clip-path="url(#pe41847d4b3)" style="fill: #ffffff; stroke: #6d5aa8; stroke-linejoin: miter"/>
   </g>
   <g id="patch_16">
    <path d="M 44.4186 139.217609 
C 44.933582 139.217609 45.427541 139.101246 45.791688 138.894148 
C 46.155835 138.68705 46.36044 138.406125 46.36044 138.113244 
C 46.36044 137.820363 46.155835 137.539438 45.791688 137.33234 
C 45.427541 137.125242 44.933582 137.008879 44.4186 137.008879 
C 43.903618 137.008879 43.409659 137.125242 43.045512 137.33234 
C 42.681365 137.539438 42.47676 137.820363 42.47676 138.113244 
C 42.47676 138.406125 42.681365 138.68705 43.045512 138.894148 
C 43.409659 139.101246 43.903618 139.217609 44.4186 139.217609 
z
" clip-path="url(#pe41847d4b3)" style="fill: #6d5aa8"/>
   </g>
   <g id="patch_17">
    <path d="M 63.837 145.2456 
L 81.6372 145.2456 
Q 85.6827 145.2456 85.6827 142.94484 
L 85.6827 129.14028 
Q 85.6827 126.83952 81.6372 126.83952 
L 63.837 126.83952 
Q 59.7915 126.83952 59.7915 129.14028 
L 59.7915 142.94484 
Q 59.7915 145.2456 63.837 145.2456 
z
" clip-path="url(#pe41847d4b3)" style="fill: #ffffff; stroke: #d88922; stroke-linejoin: miter"/>
   </g>
   <g id="patch_18">
    <path d="M 72.7371 142.668749 
C 73.252082 142.668749 73.746041 142.552386 74.110188 142.345288 
C 74.474335 142.13819 74.67894 141.857265 74.67894 141.564384 
C 74.67894 141.271503 74.474335 140.990578 74.110188 140.78348 
C 73.746041 140.576382 73.252082 140.460019 72.7371 140.460019 
C 72.222118 140.460019 71.728159 140.576382 71.364012 140.78348 
C 70.999865 140.990578 70.79526 141.271503 70.79526 141.564384 
C 70.79526 141.857265 70.999865 142.13819 71.364012 142.345288 
C 71.728159 142.552386 72.222118 142.668749 72.7371 142.668749 
z
" clip-path="url(#pe41847d4b3)" style="fill: #d88922"/>
   </g>
   <g id="patch_19">
    <path d="M 48.05955 176.30586 
L 65.85975 176.30586 
Q 69.90525 176.30586 69.90525 174.0051 
L 69.90525 160.20054 
Q 69.90525 157.89978 65.85975 157.89978 
L 48.05955 157.89978 
Q 44.01405 157.89978 44.01405 160.20054 
L 44.01405 174.0051 
Q 44.01405 176.30586 48.05955 176.30586 
z
" clip-path="url(#pe41847d4b3)" style="fill: #ffffff; stroke: #143b63; stroke-linejoin: miter"/>
   </g>
   <g id="patch_20">
    <path d="M 56.95965 173.729009 
C 57.474632 173.729009 57.968591 173.612646 58.332738 173.405548 
C 58.696885 173.19845 58.90149 172.917525 58.90149 172.624644 
C 58.90149 172.331763 58.696885 172.050838 58.332738 171.84374 
C 57.968591 171.636642 57.474632 171.520279 56.95965 171.520279 
C 56.444668 171.520279 55.950709 171.636642 55.586562 171.84374 
C 55.222415 172.050838 55.01781 172.331763 55.01781 172.624644 
C 55.01781 172.917525 55.222415 173.19845 55.586562 173.405548 
C 55.950709 173.612646 56.444668 173.729009 56.95965 173.729009 
z
" clip-path="url(#pe41847d4b3)" style="fill: #143b63"/>
   </g>
   <g id="patch_21">
    <path d="M 56.95965 167.332896 
C 58.354393 167.332896 59.692198 167.017747 60.678431 166.456856 
C 61.664663 165.895965 62.2188 165.135127 62.2188 164.341908 
C 62.2188 163.548689 61.664663 162.787851 60.678431 162.22696 
C 59.692198 161.666069 58.354393 161.35092 56.95965 161.35092 
C 55.564907 161.35092 54.227102 161.666069 53.240869 162.22696 
C 52.254637 162.787851 51.7005 163.548689 51.7005 164.341908 
C 51.7005 165.135127 52.254637 165.895965 53.240869 166.456856 
C 54.227102 167.017747 55.564907 167.332896 56.95965 167.332896 
z
" clip-path="url(#pe41847d4b3)" style="fill: #ddecf8; stroke: #143b63; stroke-width: 0.8; stroke-linejoin: miter"/>
   </g>
   <g id="patch_22">
    <path d="M 56.95965 165.492288 
C 57.49609 165.492288 58.01063 165.371077 58.38995 165.155349 
C 58.76927 164.939622 58.9824 164.646992 58.9824 164.341908 
C 58.9824 164.036824 58.76927 163.744194 58.38995 163.528467 
C 58.01063 163.312739 57.49609 163.191528 56.95965 163.191528 
C 56.42321 163.191528 55.90867 163.312739 55.52935 163.528467 
C 55.15003 163.744194 54.9369 164.036824 54.9369 164.341908 
C 54.9369 164.646992 55.15003 164.939622 55.52935 165.155349 
C 55.90867 165.371077 56.42321 165.492288 56.95965 165.492288 
z
" clip-path="url(#pe41847d4b3)" style="fill: #143b63"/>
   </g>
   <g id="patch_23">
    <path d="M 34.7094 189.650268 
L 56.5551 189.650268 
Q 63.0279 189.650268 63.0279 185.969052 
L 63.0279 179.526924 
Q 63.0279 175.845708 56.5551 175.845708 
L 34.7094 175.845708 
Q 28.2366 175.845708 28.2366 179.526924 
L 28.2366 185.969052 
Q 28.2366 189.650268 34.7094 189.650268 
z
" clip-path="url(#pe41847d4b3)" style="fill: #ffffff; stroke: #2469a6; stroke-width: 0.8; stroke-linejoin: miter"/>
   </g>
   <g id="patch_24">
    <path d="M 66.66885 189.650268 
L 92.56005 189.650268 
Q 99.03285 189.650268 99.03285 185.969052 
L 99.03285 179.526924 
Q 99.03285 175.845708 92.56005 175.845708 
L 66.66885 175.845708 
Q 60.19605 175.845708 60.19605 179.526924 
L 60.19605 185.969052 
Q 60.19605 189.650268 66.66885 189.650268 
z
" clip-path="url(#pe41847d4b3)" style="fill: #ffffff; stroke: #2f8f87; stroke-width: 0.8; stroke-linejoin: miter"/>
   </g>
   <g id="patch_25">
    <path d="M 135.44235 166.642668 
L 194.50665 166.642668 
Q 224.8479 166.642668 224.8479 149.386968 
L 224.8479 97.389792 
Q 224.8479 80.134092 194.50665 80.134092 
L 135.44235 80.134092 
Q 105.1011 80.134092 105.1011 97.389792 
L 105.1011 149.386968 
Q 105.1011 166.642668 135.44235 166.642668 
z
" clip-path="url(#pe41847d4b3)" style="fill: #f4f9fd; stroke: #2469a6; stroke-width: 1.2; stroke-linejoin: miter"/>
   </g>
   <g id="patch_26">
    <path d="M 119.453613 109.58382 
Q 164.974281 109.58382 209.041506 109.58382 
" clip-path="url(#pe41847d4b3)" style="fill: none; stroke: #2469a6; stroke-width: 1.3; stroke-linecap: round"/>
    <path d="M 205.841506 107.98382 
L 209.041506 109.58382 
L 205.841506 111.18382 
z
" clip-path="url(#pe41847d4b3)" style="fill: #2469a6; stroke: #2469a6; stroke-width: 1.3; stroke-linecap: round"/>
   </g>
   <g id="patch_27">
    <path d="M 119.453613 122.238 
Q 164.974281 122.238 209.041506 122.238 
" clip-path="url(#pe41847d4b3)" style="fill: none; stroke: #2469a6; stroke-width: 1.3; stroke-linecap: round"/>
    <path d="M 205.841506 120.638 
L 209.041506 122.238 
L 205.841506 123.838 
z
" clip-path="url(#pe41847d4b3)" style="fill: #2469a6; stroke: #2469a6; stroke-width: 1.3; stroke-linecap: round"/>
   </g>
   <g id="patch_28">
    <path d="M 119.453613 134.89218 
Q 164.974281 134.89218 209.041506 134.89218 
" clip-path="url(#pe41847d4b3)" style="fill: none; stroke: #2469a6; stroke-width: 1.3; stroke-linecap: round"/>
    <path d="M 205.841506 133.29218 
L 209.041506 134.89218 
L 205.841506 136.49218 
z
" clip-path="url(#pe41847d4b3)" style="fill: #2469a6; stroke: #2469a6; stroke-width: 1.3; stroke-linecap: round"/>
   </g>
   <g id="patch_29">
    <path d="M 134.63325 153.29826 
L 144.34245 153.29826 
L 144.34245 145.475676 
L 134.63325 145.475676 
z
" clip-path="url(#pe41847d4b3)" style="fill: #ddecf8; stroke: #2469a6; stroke-width: 0.6; stroke-linejoin: miter"/>
   </g>
   <g id="patch_30">
    <path d="M 147.1743 153.29826 
L 156.8835 153.29826 
L 156.8835 145.475676 
L 147.1743 145.475676 
z
" clip-path="url(#pe41847d4b3)" style="fill: #ffffff; stroke: #2469a6; stroke-width: 0.6; stroke-linejoin: miter"/>
   </g>
   <g id="patch_31">
    <path d="M 159.71535 153.29826 
L 169.42455 153.29826 
L 169.42455 145.475676 
L 159.71535 145.475676 
z
" clip-path="url(#pe41847d4b3)" style="fill: #ddecf8; stroke: #2469a6; stroke-width: 0.6; stroke-linejoin: miter"/>
   </g>
   <g id="patch_32">
    <path d="M 172.2564 153.29826 
L 181.9656 153.29826 
L 181.9656 145.475676 
L 172.2564 145.475676 
z
" clip-path="url(#pe41847d4b3)" style="fill: #ffffff; stroke: #2469a6; stroke-width: 0.6; stroke-linejoin: miter"/>
   </g>
   <g id="patch_33">
    <path d="M 184.79745 153.29826 
L 194.50665 153.29826 
L 194.50665 145.475676 
L 184.79745 145.475676 
z
" clip-path="url(#pe41847d4b3)" style="fill: #ddecf8; stroke: #2469a6; stroke-width: 0.6; stroke-linejoin: miter"/>
   </g>
   <g id="patch_34">
    <path d="M 197.3385 153.29826 
L 207.0477 153.29826 
L 207.0477 145.475676 
L 197.3385 145.475676 
z
" clip-path="url(#pe41847d4b3)" style="fill: #ffffff; stroke: #2469a6; stroke-width: 0.6; stroke-linejoin: miter"/>
   </g>
   <g id="patch_35">
    <path d="M 209.87955 153.29826 
L 219.58875 153.29826 
L 219.58875 145.475676 
L 209.87955 145.475676 
z
" clip-path="url(#pe41847d4b3)" style="fill: #ddecf8; stroke: #2469a6; stroke-width: 0.6; stroke-linejoin: miter"/>
   </g>
   <g id="patch_36">
    <path d="M 177.616688 98.367615 
C 177.616688 96.385227 176.283837 94.482005 173.913877 93.080245 
C 171.543916 91.678485 168.326131 90.890145 164.9745 90.890145 
C 161.622869 90.890145 158.405084 91.678485 156.035123 93.080245 
C 153.665163 94.482005 152.332313 96.385227 152.332313 98.367615 
" clip-path="url(#pe41847d4b3)" style="fill: none; stroke: #143b63; stroke-linejoin: miter"/>
   </g>
   <g id="patch_37">
    <path d="M 149.298187 111.021795 
L 180.650813 111.021795 
L 180.650813 97.217235 
L 149.298187 97.217235 
z
" clip-path="url(#pe41847d4b3)" style="fill: #ffffff; stroke: #143b63; stroke-linejoin: miter"/>
   </g>
   <g id="patch_38">
    <path d="M 164.9745 105.845085 
C 165.779159 105.845085 166.55097 105.663268 167.11995 105.339677 
C 167.68893 105.016086 168.008625 104.577142 168.008625 104.119515 
C 168.008625 103.661888 167.68893 103.222944 167.11995 102.899353 
C 166.55097 102.575762 165.779159 102.393945 164.9745 102.393945 
C 164.169841 102.393945 163.39803 102.575762 162.82905 102.899353 
C 162.26007 103.222944 161.940375 103.661888 161.940375 104.119515 
C 161.940375 104.577142 162.26007 105.016086 162.82905 105.339677 
C 163.39803 105.663268 164.169841 105.845085 164.9745 105.845085 
z
" clip-path="url(#pe41847d4b3)" style="fill: #143b63"/>
   </g>
   <g id="patch_39">
    <path d="M 242.6481 150.537348 
L 279.46215 150.537348 
Q 289.5759 150.537348 289.5759 144.785448 
L 289.5759 101.991312 
Q 289.5759 96.239412 279.46215 96.239412 
L 242.6481 96.239412 
Q 232.53435 96.239412 232.53435 101.991312 
L 232.53435 144.785448 
Q 232.53435 150.537348 242.6481 150.537348 
z
" clip-path="url(#pe41847d4b3)" style="fill: #fff1d8; stroke: #d88922; stroke-width: 1.1; stroke-linejoin: miter"/>
   </g>
   <g id="patch_40">
    <path d="M 245.8845 144.09522 
L 276.22575 144.09522 
L 276.22575 136.04256 
L 245.8845 136.04256 
z
" clip-path="url(#pe41847d4b3)" style="fill: #ffffff; stroke: #e2be81; stroke-width: 0.8; stroke-linejoin: miter"/>
   </g>
   <g id="patch_41">
    <path d="M 255.99825 141.21927 
C 256.481046 141.21927 256.944132 141.11018 257.28552 140.916025 
C 257.626908 140.721871 257.818725 140.458504 257.818725 140.183928 
C 257.818725 139.909352 257.626908 139.645985 257.28552 139.451831 
C 256.944132 139.257676 256.481046 139.148586 255.99825 139.148586 
C 255.515454 139.148586 255.052368 139.257676 254.71098 139.451831 
C 254.369592 139.645985 254.177775 139.909352 254.177775 140.183928 
C 254.177775 140.458504 254.369592 140.721871 254.71098 140.916025 
C 255.052368 141.11018 255.515454 141.21927 255.99825 141.21927 
z
" clip-path="url(#pe41847d4b3)" style="fill: #d88922"/>
   </g>
   <g id="patch_42">
    <path d="M 268.13475 141.21927 
C 268.617546 141.21927 269.080632 141.11018 269.42202 140.916025 
C 269.763408 140.721871 269.955225 140.458504 269.955225 140.183928 
C 269.955225 139.909352 269.763408 139.645985 269.42202 139.451831 
C 269.080632 139.257676 268.617546 139.148586 268.13475 139.148586 
C 267.651954 139.148586 267.188868 139.257676 266.84748 139.451831 
C 266.506092 139.645985 266.314275 139.909352 266.314275 140.183928 
C 266.314275 140.458504 266.506092 140.721871 266.84748 140.916025 
C 267.188868 141.11018 267.651954 141.21927 268.13475 141.21927 
z
" clip-path="url(#pe41847d4b3)" style="fill: #d88922"/>
   </g>
   <g id="patch_43">
    <path d="M 280.27125 141.21927 
C 280.754046 141.21927 281.217132 141.11018 281.55852 140.916025 
C 281.899908 140.721871 282.091725 140.458504 282.091725 140.183928 
C 282.091725 139.909352 281.899908 139.645985 281.55852 139.451831 
C 281.217132 139.257676 280.754046 139.148586 280.27125 139.148586 
C 279.788454 139.148586 279.325368 139.257676 278.98398 139.451831 
C 278.642592 139.645985 278.450775 139.909352 278.450775 140.183928 
C 278.450775 140.458504 278.642592 140.721871 278.98398 140.916025 
C 279.325368 141.11018 279.788454 141.21927 280.27125 141.21927 
z
" clip-path="url(#pe41847d4b3)" style="fill: #d88922"/>
   </g>
   <g id="patch_44">
    <path d="M 292.40775 141.21927 
C 292.890546 141.21927 293.353632 141.11018 293.69502 140.916025 
C 294.036408 140.721871 294.228225 140.458504 294.228225 140.183928 
C 294.228225 139.909352 294.036408 139.645985 293.69502 139.451831 
C 293.353632 139.257676 292.890546 139.148586 292.40775 139.148586 
C 291.924954 139.148586 291.461868 139.257676 291.12048 139.451831 
C 290.779092 139.645985 290.587275 139.909352 290.587275 140.183928 
C 290.587275 140.458504 290.779092 140.721871 291.12048 140.916025 
C 291.461868 141.11018 291.924954 141.21927 292.40775 141.21927 
z
" clip-path="url(#pe41847d4b3)" style="fill: #d88922"/>
   </g>
   <g id="patch_45">
    <path d="M 245.8845 132.59142 
L 276.22575 132.59142 
L 276.22575 124.53876 
L 245.8845 124.53876 
z
" clip-path="url(#pe41847d4b3)" style="fill: #ffffff; stroke: #e2be81; stroke-width: 0.8; stroke-linejoin: miter"/>
   </g>
   <g id="patch_46">
    <path d="M 255.99825 129.71547 
C 256.481046 129.71547 256.944132 129.60638 257.28552 129.412225 
C 257.626908 129.218071 257.818725 128.954704 257.818725 128.680128 
C 257.818725 128.405552 257.626908 128.142185 257.28552 127.948031 
C 256.944132 127.753876 256.481046 127.644786 255.99825 127.644786 
C 255.515454 127.644786 255.052368 127.753876 254.71098 127.948031 
C 254.369592 128.142185 254.177775 128.405552 254.177775 128.680128 
C 254.177775 128.954704 254.369592 129.218071 254.71098 129.412225 
C 255.052368 129.60638 255.515454 129.71547 255.99825 129.71547 
z
" clip-path="url(#pe41847d4b3)" style="fill: #d88922"/>
   </g>
   <g id="patch_47">
    <path d="M 268.13475 129.71547 
C 268.617546 129.71547 269.080632 129.60638 269.42202 129.412225 
C 269.763408 129.218071 269.955225 128.954704 269.955225 128.680128 
C 269.955225 128.405552 269.763408 128.142185 269.42202 127.948031 
C 269.080632 127.753876 268.617546 127.644786 268.13475 127.644786 
C 267.651954 127.644786 267.188868 127.753876 266.84748 127.948031 
C 266.506092 128.142185 266.314275 128.405552 266.314275 128.680128 
C 266.314275 128.954704 266.506092 129.218071 266.84748 129.412225 
C 267.188868 129.60638 267.651954 129.71547 268.13475 129.71547 
z
" clip-path="url(#pe41847d4b3)" style="fill: #d88922"/>
   </g>
   <g id="patch_48">
    <path d="M 280.27125 129.71547 
C 280.754046 129.71547 281.217132 129.60638 281.55852 129.412225 
C 281.899908 129.218071 282.091725 128.954704 282.091725 128.680128 
C 282.091725 128.405552 281.899908 128.142185 281.55852 127.948031 
C 281.217132 127.753876 280.754046 127.644786 280.27125 127.644786 
C 279.788454 127.644786 279.325368 127.753876 278.98398 127.948031 
C 278.642592 128.142185 278.450775 128.405552 278.450775 128.680128 
C 278.450775 128.954704 278.642592 129.218071 278.98398 129.412225 
C 279.325368 129.60638 279.788454 129.71547 280.27125 129.71547 
z
" clip-path="url(#pe41847d4b3)" style="fill: #d88922"/>
   </g>
   <g id="patch_49">
    <path d="M 292.40775 129.71547 
C 292.890546 129.71547 293.353632 129.60638 293.69502 129.412225 
C 294.036408 129.218071 294.228225 128.954704 294.228225 128.680128 
C 294.228225 128.405552 294.036408 128.142185 293.69502 127.948031 
C 293.353632 127.753876 292.890546 127.644786 292.40775 127.644786 
C 291.924954 127.644786 291.461868 127.753876 291.12048 127.948031 
C 290.779092 128.142185 290.587275 128.405552 290.587275 128.680128 
C 290.587275 128.954704 290.779092 129.218071 291.12048 129.412225 
C 291.461868 129.60638 291.924954 129.71547 292.40775 129.71547 
z
" clip-path="url(#pe41847d4b3)" style="fill: #d88922"/>
   </g>
   <g id="patch_50">
    <path d="M 245.8845 121.08762 
L 276.22575 121.08762 
L 276.22575 113.03496 
L 245.8845 113.03496 
z
" clip-path="url(#pe41847d4b3)" style="fill: #ffffff; stroke: #e2be81; stroke-width: 0.8; stroke-linejoin: miter"/>
   </g>
   <g id="patch_51">
    <path d="M 255.99825 118.21167 
C 256.481046 118.21167 256.944132 118.10258 257.28552 117.908425 
C 257.626908 117.714271 257.818725 117.450904 257.818725 117.176328 
C 257.818725 116.901752 257.626908 116.638385 257.28552 116.444231 
C 256.944132 116.250076 256.481046 116.140986 255.99825 116.140986 
C 255.515454 116.140986 255.052368 116.250076 254.71098 116.444231 
C 254.369592 116.638385 254.177775 116.901752 254.177775 117.176328 
C 254.177775 117.450904 254.369592 117.714271 254.71098 117.908425 
C 255.052368 118.10258 255.515454 118.21167 255.99825 118.21167 
z
" clip-path="url(#pe41847d4b3)" style="fill: #d88922"/>
   </g>
   <g id="patch_52">
    <path d="M 268.13475 118.21167 
C 268.617546 118.21167 269.080632 118.10258 269.42202 117.908425 
C 269.763408 117.714271 269.955225 117.450904 269.955225 117.176328 
C 269.955225 116.901752 269.763408 116.638385 269.42202 116.444231 
C 269.080632 116.250076 268.617546 116.140986 268.13475 116.140986 
C 267.651954 116.140986 267.188868 116.250076 266.84748 116.444231 
C 266.506092 116.638385 266.314275 116.901752 266.314275 117.176328 
C 266.314275 117.450904 266.506092 117.714271 266.84748 117.908425 
C 267.188868 118.10258 267.651954 118.21167 268.13475 118.21167 
z
" clip-path="url(#pe41847d4b3)" style="fill: #d88922"/>
   </g>
   <g id="patch_53">
    <path d="M 280.27125 118.21167 
C 280.754046 118.21167 281.217132 118.10258 281.55852 117.908425 
C 281.899908 117.714271 282.091725 117.450904 282.091725 117.176328 
C 282.091725 116.901752 281.899908 116.638385 281.55852 116.444231 
C 281.217132 116.250076 280.754046 116.140986 280.27125 116.140986 
C 279.788454 116.140986 279.325368 116.250076 278.98398 116.444231 
C 278.642592 116.638385 278.450775 116.901752 278.450775 117.176328 
C 278.450775 117.450904 278.642592 117.714271 278.98398 117.908425 
C 279.325368 118.10258 279.788454 118.21167 280.27125 118.21167 
z
" clip-path="url(#pe41847d4b3)" style="fill: #d88922"/>
   </g>
   <g id="patch_54">
    <path d="M 292.40775 118.21167 
C 292.890546 118.21167 293.353632 118.10258 293.69502 117.908425 
C 294.036408 117.714271 294.228225 117.450904 294.228225 117.176328 
C 294.228225 116.901752 294.036408 116.638385 293.69502 116.444231 
C 293.353632 116.250076 292.890546 116.140986 292.40775 116.140986 
C 291.924954 116.140986 291.461868 116.250076 291.12048 116.444231 
C 290.779092 116.638385 290.587275 116.901752 290.587275 117.176328 
C 290.587275 117.450904 290.779092 117.714271 291.12048 117.908425 
C 291.461868 118.10258 291.924954 118.21167 292.40775 118.21167 
z
" clip-path="url(#pe41847d4b3)" style="fill: #d88922"/>
   </g>
   <g id="patch_55">
    <path d="M 222.610529 122.238 
Q 228.691027 122.238 233.429883 122.238 
" clip-path="url(#pe41847d4b3)" style="fill: none; stroke: #2469a6; stroke-width: 1.2; stroke-linecap: round"/>
    <path d="M 229.829883 120.438 
L 233.429883 122.238 
L 229.829883 124.038 
z
" clip-path="url(#pe41847d4b3)" style="fill: #2469a6; stroke: #2469a6; stroke-width: 1.2; stroke-linecap: round"/>
   </g>
   <g id="patch_56">
    <path d="M 117.2376 217.259388 
L 277.4394 217.259388 
Q 287.55315 217.259388 287.55315 211.507488 
L 287.55315 190.570572 
Q 287.55315 184.818672 277.4394 184.818672 
L 117.2376 184.818672 
Q 107.12385 184.818672 107.12385 190.570572 
L 107.12385 211.507488 
Q 107.12385 217.259388 117.2376 217.259388 
z
" clip-path="url(#pe41847d4b3)" style="fill: #fbe3e1; stroke: #b94747; stroke-width: 0.9; stroke-linejoin: miter"/>
   </g>
   <g id="patch_57">
    <path d="M 121.68765 211.96764 
L 157.28805 211.96764 
Q 163.76085 211.96764 163.76085 208.286424 
L 163.76085 201.844296 
Q 163.76085 198.16308 157.28805 198.16308 
L 121.68765 198.16308 
Q 115.21485 198.16308 115.21485 201.844296 
L 115.21485 208.286424 
Q 115.21485 211.96764 121.68765 211.96764 
z
" clip-path="url(#pe41847d4b3)" style="fill: #ffffff; stroke: #e6aaaa; stroke-width: 0.8; stroke-linejoin: miter"/>
   </g>
   <g id="patch_58">
    <path d="M 174.27915 211.96764 
L 209.87955 211.96764 
Q 216.35235 211.96764 216.35235 208.286424 
L 216.35235 201.844296 
Q 216.35235 198.16308 209.87955 198.16308 
L 174.27915 198.16308 
Q 167.80635 198.16308 167.80635 201.844296 
L 167.80635 208.286424 
Q 167.80635 211.96764 174.27915 211.96764 
z
" clip-path="url(#pe41847d4b3)" style="fill: #ffffff; stroke: #e6aaaa; stroke-width: 0.8; stroke-linejoin: miter"/>
   </g>
   <g id="patch_59">
    <path d="M 226.87065 211.96764 
L 262.47105 211.96764 
Q 268.94385 211.96764 268.94385 208.286424 
L 268.94385 201.844296 
Q 268.94385 198.16308 262.47105 198.16308 
L 226.87065 198.16308 
Q 220.39785 198.16308 220.39785 201.844296 
L 220.39785 208.286424 
Q 220.39785 211.96764 226.87065 211.96764 
z
" clip-path="url(#pe41847d4b3)" style="fill: #ffffff; stroke: #e6aaaa; stroke-width: 0.8; stroke-linejoin: miter"/>
   </g>
   <g id="patch_60">
    <path d="M 121.68765 221.17068 
L 157.28805 221.17068 
Q 163.76085 221.17068 163.76085 217.489464 
L 163.76085 211.047336 
Q 163.76085 207.36612 157.28805 207.36612 
L 121.68765 207.36612 
Q 115.21485 207.36612 115.21485 211.047336 
L 115.21485 217.489464 
Q 115.21485 221.17068 121.68765 221.17068 
z
" clip-path="url(#pe41847d4b3)" style="fill: #ffffff; stroke: #e6aaaa; stroke-width: 0.8; stroke-linejoin: miter"/>
   </g>
   <g id="patch_61">
    <path d="M 174.27915 221.17068 
L 209.87955 221.17068 
Q 216.35235 221.17068 216.35235 217.489464 
L 216.35235 211.047336 
Q 216.35235 207.36612 209.87955 207.36612 
L 174.27915 207.36612 
Q 167.80635 207.36612 167.80635 211.047336 
L 167.80635 217.489464 
Q 167.80635 221.17068 174.27915 221.17068 
z
" clip-path="url(#pe41847d4b3)" style="fill: #ffffff; stroke: #e6aaaa; stroke-width: 0.8; stroke-linejoin: miter"/>
   </g>
   <g id="patch_62">
    <path d="M 226.87065 221.17068 
L 262.47105 221.17068 
Q 268.94385 221.17068 268.94385 217.489464 
L 268.94385 211.047336 
Q 268.94385 207.36612 262.47105 207.36612 
L 226.87065 207.36612 
Q 220.39785 207.36612 220.39785 211.047336 
L 220.39785 217.489464 
Q 220.39785 221.17068 226.87065 221.17068 
z
" clip-path="url(#pe41847d4b3)" style="fill: #ffffff; stroke: #e6aaaa; stroke-width: 0.8; stroke-linejoin: miter"/>
   </g>
   <g id="patch_63">
    <path d="M 279.765563 197.185257 
C 279.765563 195.678642 278.752596 194.232193 276.951426 193.166856 
C 275.150256 192.101519 272.704739 191.50238 270.1575 191.50238 
C 267.610261 191.50238 265.164744 192.101519 263.363574 193.166856 
C 261.562404 194.232193 260.549438 195.678642 260.549438 197.185257 
" clip-path="url(#pe41847d4b3)" style="fill: none; stroke: #b94747; stroke-linejoin: miter"/>
   </g>
   <g id="patch_64">
    <path d="M 258.243503 206.802434 
L 282.071498 206.802434 
L 282.071498 196.310968 
L 258.243503 196.310968 
z
" clip-path="url(#pe41847d4b3)" style="fill: #ffffff; stroke: #b94747; stroke-linejoin: miter"/>
   </g>
   <g id="patch_65">
    <path d="M 270.1575 202.868134 
C 270.769041 202.868134 271.355617 202.729953 271.788042 202.484024 
C 272.220467 202.238095 272.463435 201.904497 272.463435 201.556701 
C 272.463435 201.208905 272.220467 200.875307 271.788042 200.629378 
C 271.355617 200.383449 270.769041 200.245268 270.1575 200.245268 
C 269.545959 200.245268 268.959383 200.383449 268.526958 200.629378 
C 268.094533 200.875307 267.851565 201.208905 267.851565 201.556701 
C 267.851565 201.904497 268.094533 202.238095 268.526958 202.484024 
C 268.959383 202.729953 269.545959 202.868134 270.1575 202.868134 
z
" clip-path="url(#pe41847d4b3)" style="fill: #b94747"/>
   </g>
   <g id="patch_66">
    <path d="M 311.4216 179.296848 
L 386.6679 179.296848 
Q 400.82715 179.296848 400.82715 171.244188 
L 400.82715 78.983712 
Q 400.82715 70.931052 386.6679 70.931052 
L 311.4216 70.931052 
Q 297.26235 70.931052 297.26235 78.983712 
L 297.26235 171.244188 
Q 297.26235 179.296848 311.4216 179.296848 
z
" clip-path="url(#pe41847d4b3)" style="fill: #dff3ef; stroke: #2f8f87; stroke-width: 1.2; stroke-linejoin: miter"/>
   </g>
   <g id="patch_67">
    <path d="M 313.0398 99.690552 
L 343.7856 99.690552 
Q 350.2584 99.690552 350.2584 96.009336 
L 350.2584 89.567208 
Q 350.2584 85.885992 343.7856 85.885992 
L 313.0398 85.885992 
Q 306.567 85.885992 306.567 89.567208 
L 306.567 96.009336 
Q 306.567 99.690552 313.0398 99.690552 
z
" clip-path="url(#pe41847d4b3)" style="fill: #ffffff; stroke: #a7d8cc; stroke-width: 0.8; stroke-linejoin: miter"/>
   </g>
   <g id="patch_68">
    <path d="M 354.3039 99.690552 
L 385.0497 99.690552 
Q 391.5225 99.690552 391.5225 96.009336 
L 391.5225 89.567208 
Q 391.5225 85.885992 385.0497 85.885992 
L 354.3039 85.885992 
Q 347.8311 85.885992 347.8311 89.567208 
L 347.8311 96.009336 
Q 347.8311 99.690552 354.3039 99.690552 
z
" clip-path="url(#pe41847d4b3)" style="fill: #ffffff; stroke: #a7d8cc; stroke-width: 0.8; stroke-linejoin: miter"/>
   </g>
   <g id="patch_69">
    <path d="M 313.0398 113.03496 
L 343.7856 113.03496 
Q 350.2584 113.03496 350.2584 109.353744 
L 350.2584 102.911616 
Q 350.2584 99.2304 343.7856 99.2304 
L 313.0398 99.2304 
Q 306.567 99.2304 306.567 102.911616 
L 306.567 109.353744 
Q 306.567 113.03496 313.0398 113.03496 
z
" clip-path="url(#pe41847d4b3)" style="fill: #ffffff; stroke: #a7d8cc; stroke-width: 0.8; stroke-linejoin: miter"/>
   </g>
   <g id="patch_70">
    <path d="M 354.3039 113.03496 
L 385.0497 113.03496 
Q 391.5225 113.03496 391.5225 109.353744 
L 391.5225 102.911616 
Q 391.5225 99.2304 385.0497 99.2304 
L 354.3039 99.2304 
Q 347.8311 99.2304 347.8311 102.911616 
L 347.8311 109.353744 
Q 347.8311 113.03496 354.3039 113.03496 
z
" clip-path="url(#pe41847d4b3)" style="fill: #ffffff; stroke: #a7d8cc; stroke-width: 0.8; stroke-linejoin: miter"/>
   </g>
   <g id="patch_71">
    <path d="M 313.0398 126.379368 
L 343.7856 126.379368 
Q 350.2584 126.379368 350.2584 122.698152 
L 350.2584 116.256024 
Q 350.2584 112.574808 343.7856 112.574808 
L 313.0398 112.574808 
Q 306.567 112.574808 306.567 116.256024 
L 306.567 122.698152 
Q 306.567 126.379368 313.0398 126.379368 
z
" clip-path="url(#pe41847d4b3)" style="fill: #ffffff; stroke: #a7d8cc; stroke-width: 0.8; stroke-linejoin: miter"/>
   </g>
   <g id="patch_72">
    <path d="M 354.3039 126.379368 
L 385.0497 126.379368 
Q 391.5225 126.379368 391.5225 122.698152 
L 391.5225 116.256024 
Q 391.5225 112.574808 385.0497 112.574808 
L 354.3039 112.574808 
Q 347.8311 112.574808 347.8311 116.256024 
L 347.8311 122.698152 
Q 347.8311 126.379368 354.3039 126.379368 
z
" clip-path="url(#pe41847d4b3)" style="fill: #ffffff; stroke: #a7d8cc; stroke-width: 0.8; stroke-linejoin: miter"/>
   </g>
   <g id="patch_73">
    <path d="M 313.0398 139.723776 
L 343.7856 139.723776 
Q 350.2584 139.723776 350.2584 136.04256 
L 350.2584 129.600432 
Q 350.2584 125.919216 343.7856 125.919216 
L 313.0398 125.919216 
Q 306.567 125.919216 306.567 129.600432 
L 306.567 136.04256 
Q 306.567 139.723776 313.0398 139.723776 
z
" clip-path="url(#pe41847d4b3)" style="fill: #ffffff; stroke: #a7d8cc; stroke-width: 0.8; stroke-linejoin: miter"/>
   </g>
   <g id="patch_74">
    <path d="M 354.3039 139.723776 
L 385.0497 139.723776 
Q 391.5225 139.723776 391.5225 136.04256 
L 391.5225 129.600432 
Q 391.5225 125.919216 385.0497 125.919216 
L 354.3039 125.919216 
Q 347.8311 125.919216 347.8311 129.600432 
L 347.8311 136.04256 
Q 347.8311 139.723776 354.3039 139.723776 
z
" clip-path="url(#pe41847d4b3)" style="fill: #ffffff; stroke: #a7d8cc; stroke-width: 0.8; stroke-linejoin: miter"/>
   </g>
   <g id="patch_75">
    <path d="M 287.338529 122.238 
Q 293.419027 122.238 298.04608 122.238 
" clip-path="url(#pe41847d4b3)" style="fill: none; stroke: #2f8f87; stroke-width: 1.3; stroke-linecap: round"/>
    <path d="M 294.44608 120.438 
L 298.04608 122.238 
L 294.44608 124.038 
z
" clip-path="url(#pe41847d4b3)" style="fill: #2f8f87; stroke: #2f8f87; stroke-width: 1.3; stroke-linecap: round"/>
   </g>
   <g id="patch_76">
    <path d="M 321.53535 221.860908 
L 376.55415 221.860908 
Q 388.69065 221.860908 388.69065 214.958628 
L 388.69065 194.021712 
Q 388.69065 187.119432 376.55415 187.119432 
L 321.53535 187.119432 
Q 309.39885 187.119432 309.39885 194.021712 
L 309.39885 214.958628 
Q 309.39885 221.860908 321.53535 221.860908 
z
" clip-path="url(#pe41847d4b3)" style="fill: #ece8f7; stroke: #6d5aa8; stroke-width: 1.1; stroke-linejoin: miter"/>
   </g>
   <g id="patch_77">
    <path d="M 326.7945 190.455534 
L 346.819725 196.667586 
L 342.81468 210.127032 
L 326.7945 218.823905 
L 310.77432 210.127032 
L 306.769275 196.667586 
z
" clip-path="url(#pe41847d4b3)" style="fill: #ece8f7; stroke: #6d5aa8; stroke-width: 1.1; stroke-linejoin: miter"/>
   </g>
   <g id="patch_78">
    <path d="M 389.77604 199.865713 
C 388.208981 196.539638 384.754139 193.599046 379.950662 191.502834 
C 375.147184 189.406621 369.258651 188.269812 363.204 188.269812 
C 357.149349 188.269812 351.260816 189.406621 346.457338 191.502834 
C 341.653861 193.599046 338.199019 196.539638 336.63196 199.865713 
" clip-path="url(#pe41847d4b3)" style="fill: none; stroke: #6d5aa8; stroke-linejoin: miter"/>
   </g>
   <g id="patch_79">
    <path d="M 349.04475 178.458891 
Q 349.04475 183.208251 349.04475 186.727774 
" clip-path="url(#pe41847d4b3)" style="fill: none; stroke: #6d5aa8; stroke-width: 1.1; stroke-linecap: round"/>
    <path d="M 350.84475 183.127774 
L 349.04475 186.727774 
L 347.24475 183.127774 
z
" clip-path="url(#pe41847d4b3)" style="fill: #6d5aa8; stroke: #6d5aa8; stroke-width: 1.1; stroke-linecap: round"/>
   </g>
   <g id="line2d_13">
    <path d="M 33.0912 96.009336 
L 39.564 91.637892 
L 46.0368 96.009336 
" clip-path="url(#pe41847d4b3)" style="fill: none; stroke: #2469a6; stroke-linecap: square"/>
   </g>
   <g id="line2d_14">
    <path d="M 30.461625 92.788272 
L 25.40475 90.487512 
" clip-path="url(#pe41847d4b3)" style="fill: none; stroke: #2469a6; stroke-opacity: 0.8; stroke-width: 0.7; stroke-linecap: square"/>
   </g>
   <g id="line2d_15">
    <path d="M 48.666375 92.788272 
L 53.72325 90.487512 
" clip-path="url(#pe41847d4b3)" style="fill: none; stroke: #2469a6; stroke-opacity: 0.8; stroke-width: 0.7; stroke-linecap: square"/>
   </g>
   <g id="line2d_16">
    <path d="M 30.461625 101.071008 
L 25.40475 103.371768 
" clip-path="url(#pe41847d4b3)" style="fill: none; stroke: #2469a6; stroke-opacity: 0.8; stroke-width: 0.7; stroke-linecap: square"/>
   </g>
   <g id="line2d_17">
    <path d="M 48.666375 101.071008 
L 53.72325 103.371768 
" clip-path="url(#pe41847d4b3)" style="fill: none; stroke: #2469a6; stroke-opacity: 0.8; stroke-width: 0.7; stroke-linecap: square"/>
   </g>
   <g id="line2d_18">
    <path d="M 60.802875 96.239412 
L 55.746 93.938652 
" clip-path="url(#pe41847d4b3)" style="fill: none; stroke: #2f8f87; stroke-opacity: 0.8; stroke-width: 0.7; stroke-linecap: square"/>
   </g>
   <g id="line2d_19">
    <path d="M 79.007625 96.239412 
L 84.0645 93.938652 
" clip-path="url(#pe41847d4b3)" style="fill: none; stroke: #2f8f87; stroke-opacity: 0.8; stroke-width: 0.7; stroke-linecap: square"/>
   </g>
   <g id="line2d_20">
    <path d="M 60.802875 104.522148 
L 55.746 106.822908 
" clip-path="url(#pe41847d4b3)" style="fill: none; stroke: #2f8f87; stroke-opacity: 0.8; stroke-width: 0.7; stroke-linecap: square"/>
   </g>
   <g id="line2d_21">
    <path d="M 79.007625 104.522148 
L 84.0645 106.822908 
" clip-path="url(#pe41847d4b3)" style="fill: none; stroke: #2f8f87; stroke-opacity: 0.8; stroke-width: 0.7; stroke-linecap: square"/>
   </g>
   <g id="line2d_22">
    <path d="M 37.1367 131.210964 
L 51.7005 131.210964 
" clip-path="url(#pe41847d4b3)" style="fill: none; stroke: #6d5aa8; stroke-linecap: square"/>
   </g>
   <g id="line2d_23">
    <path d="M 39.564 127.9899 
L 49.2732 127.9899 
" clip-path="url(#pe41847d4b3)" style="fill: none; stroke: #6d5aa8; stroke-linecap: square"/>
   </g>
   <g id="line2d_24">
    <path d="M 35.316225 128.450052 
L 30.25935 126.149292 
" clip-path="url(#pe41847d4b3)" style="fill: none; stroke: #6d5aa8; stroke-opacity: 0.8; stroke-width: 0.7; stroke-linecap: square"/>
   </g>
   <g id="line2d_25">
    <path d="M 53.520975 128.450052 
L 58.57785 126.149292 
" clip-path="url(#pe41847d4b3)" style="fill: none; stroke: #6d5aa8; stroke-opacity: 0.8; stroke-width: 0.7; stroke-linecap: square"/>
   </g>
   <g id="line2d_26">
    <path d="M 35.316225 136.732788 
L 30.25935 139.033548 
" clip-path="url(#pe41847d4b3)" style="fill: none; stroke: #6d5aa8; stroke-opacity: 0.8; stroke-width: 0.7; stroke-linecap: square"/>
   </g>
   <g id="line2d_27">
    <path d="M 53.520975 136.732788 
L 58.57785 139.033548 
" clip-path="url(#pe41847d4b3)" style="fill: none; stroke: #6d5aa8; stroke-opacity: 0.8; stroke-width: 0.7; stroke-linecap: square"/>
   </g>
   <g id="line2d_28">
    <path d="M 66.2643 135.122256 
L 72.7371 130.750812 
L 79.2099 135.122256 
" clip-path="url(#pe41847d4b3)" style="fill: none; stroke: #d88922; stroke-linecap: square"/>
   </g>
   <g id="line2d_29">
    <path d="M 63.634725 131.901192 
L 58.57785 129.600432 
" clip-path="url(#pe41847d4b3)" style="fill: none; stroke: #d88922; stroke-opacity: 0.8; stroke-width: 0.7; stroke-linecap: square"/>
   </g>
   <g id="line2d_30">
    <path d="M 81.839475 131.901192 
L 86.89635 129.600432 
" clip-path="url(#pe41847d4b3)" style="fill: none; stroke: #d88922; stroke-opacity: 0.8; stroke-width: 0.7; stroke-linecap: square"/>
   </g>
   <g id="line2d_31">
    <path d="M 63.634725 140.183928 
L 58.57785 142.484688 
" clip-path="url(#pe41847d4b3)" style="fill: none; stroke: #d88922; stroke-opacity: 0.8; stroke-width: 0.7; stroke-linecap: square"/>
   </g>
   <g id="line2d_32">
    <path d="M 81.839475 140.183928 
L 86.89635 142.484688 
" clip-path="url(#pe41847d4b3)" style="fill: none; stroke: #d88922; stroke-opacity: 0.8; stroke-width: 0.7; stroke-linecap: square"/>
   </g>
   <g id="line2d_33">
    <path d="M 47.857275 162.961452 
L 42.8004 160.660692 
" clip-path="url(#pe41847d4b3)" style="fill: none; stroke: #143b63; stroke-opacity: 0.8; stroke-width: 0.7; stroke-linecap: square"/>
   </g>
   <g id="line2d_34">
    <path d="M 66.062025 162.961452 
L 71.1189 160.660692 
" clip-path="url(#pe41847d4b3)" style="fill: none; stroke: #143b63; stroke-opacity: 0.8; stroke-width: 0.7; stroke-linecap: square"/>
   </g>
   <g id="line2d_35">
    <path d="M 47.857275 171.244188 
L 42.8004 173.544948 
" clip-path="url(#pe41847d4b3)" style="fill: none; stroke: #143b63; stroke-opacity: 0.8; stroke-width: 0.7; stroke-linecap: square"/>
   </g>
   <g id="line2d_36">
    <path d="M 66.062025 171.244188 
L 71.1189 173.544948 
" clip-path="url(#pe41847d4b3)" style="fill: none; stroke: #143b63; stroke-opacity: 0.8; stroke-width: 0.7; stroke-linecap: square"/>
   </g>
   <g id="line2d_37">
    <path d="M 39.564 96.92964 
L 106.31475 119.93724 
" clip-path="url(#pe41847d4b3)" style="fill: none; stroke: #b8c7d1; stroke-opacity: 0.8; stroke-width: 0.7; stroke-linecap: square"/>
   </g>
   <g id="line2d_38">
    <path d="M 69.90525 100.38078 
L 106.31475 119.93724 
" clip-path="url(#pe41847d4b3)" style="fill: none; stroke: #b8c7d1; stroke-opacity: 0.8; stroke-width: 0.7; stroke-linecap: square"/>
   </g>
   <g id="line2d_39">
    <path d="M 44.4186 132.59142 
L 106.31475 119.93724 
" clip-path="url(#pe41847d4b3)" style="fill: none; stroke: #b8c7d1; stroke-opacity: 0.8; stroke-width: 0.7; stroke-linecap: square"/>
   </g>
   <g id="line2d_40">
    <path d="M 72.7371 136.04256 
L 106.31475 119.93724 
" clip-path="url(#pe41847d4b3)" style="fill: none; stroke: #b8c7d1; stroke-opacity: 0.8; stroke-width: 0.7; stroke-linecap: square"/>
   </g>
   <g id="line2d_41">
    <path d="M 56.95965 167.10282 
L 106.31475 119.93724 
" clip-path="url(#pe41847d4b3)" style="fill: none; stroke: #b8c7d1; stroke-opacity: 0.8; stroke-width: 0.7; stroke-linecap: square"/>
   </g>
   <g id="line2d_42">
    <path d="M 318.78441 203.91498 
L 326.06631 208.470485 
L 337.71735 198.324133 
" clip-path="url(#pe41847d4b3)" style="fill: none; stroke: #6d5aa8; stroke-linecap: square"/>
   </g>
   <g id="line2d_43">
    <path d="M 382.526287 198.790731 
L 386.266085 197.798941 
" clip-path="url(#pe41847d4b3)" style="fill: none; stroke: #6d5aa8; stroke-width: 0.7; stroke-linecap: square"/>
   </g>
   <g id="line2d_44">
    <path d="M 373.863893 193.414417 
L 375.927098 191.382051 
" clip-path="url(#pe41847d4b3)" style="fill: none; stroke: #6d5aa8; stroke-width: 0.7; stroke-linecap: square"/>
   </g>
   <g id="line2d_45">
    <path d="M 361.345858 191.836114 
L 360.986218 189.498269 
" clip-path="url(#pe41847d4b3)" style="fill: none; stroke: #6d5aa8; stroke-width: 0.7; stroke-linecap: square"/>
   </g>
   <g id="line2d_46">
    <path d="M 349.499906 194.626687 
L 346.847501 192.828953 
" clip-path="url(#pe41847d4b3)" style="fill: none; stroke: #6d5aa8; stroke-width: 0.7; stroke-linecap: square"/>
   </g>
   <g id="line2d_47">
    <path d="M 343.169955 199.767984 
L 339.292398 198.96534 
" clip-path="url(#pe41847d4b3)" style="fill: none; stroke: #6d5aa8; stroke-width: 0.7; stroke-linecap: square"/>
   </g>
   <g id="line2d_48">
    <path d="M 363.204 203.91498 
L 376.024229 193.502166 
" clip-path="url(#pe41847d4b3)" style="fill: none; stroke: #6d5aa8; stroke-width: 1.2; stroke-linecap: square"/>
   </g>
   <g id="text_1">
    <text style="fill: #1f2a33; font: 700 10px 'Arial', 'Helvetica', 'DejaVu Sans', sans-serif; text-anchor: start" x="19.3365" y="20.14092" transform="rotate(-0 19.3365 20.14092)">Encrypted MQTT observability boundary</text>
   </g>
   <g id="text_2">
    <text style="fill: #5a6b76; font: 6.9px 'Arial', 'Helvetica', 'DejaVu Sans', sans-serif; text-anchor: start" x="19.3365" y="28.541835" transform="rotate(-0 19.3365 28.541835)">What a deployable metadata-only IDS can observe without decrypting TLS or collecting sensitive raw fields</text>
   </g>
   <g id="text_3">
    <text style="fill: #1f2a33; font: 700 7.3px 'Arial', 'Helvetica', 'DejaVu Sans', sans-serif" transform="translate(38.699038 66.20701)">IoT devices</text>
    <text style="fill: #1f2a33; font: 700 7.3px 'Arial', 'Helvetica', 'DejaVu Sans', sans-serif" transform="translate(28.161373 73.917863)">and MQTT clients</text>
   </g>
   <g id="text_4">
    <text style="fill: #1f2a33; font: 5.8px 'Arial', 'Helvetica', 'DejaVu Sans', sans-serif; text-anchor: middle" x="45.63225" y="184.247379" transform="rotate(-0 45.63225 184.247379)">publish</text>
   </g>
   <g id="text_5">
    <text style="fill: #1f2a33; font: 5.8px 'Arial', 'Helvetica', 'DejaVu Sans', sans-serif; text-anchor: middle" x="79.61445" y="184.247379" transform="rotate(-0 79.61445 184.247379)">subscribe</text>
   </g>
   <g id="text_6">
    <text style="fill: #143b63; font: 700 7.4px 'Arial', 'Helvetica', 'DejaVu Sans', sans-serif; text-anchor: middle" x="164.9745" y="93.141053" transform="rotate(-0 164.9745 93.141053)">TLS-protected MQTT channel</text>
   </g>
   <g id="text_7">
    <text style="fill: #2469a6; font: 4.7px 'Arial', 'Helvetica', 'DejaVu Sans', sans-serif; text-anchor: middle" x="139.48785" y="150.601991" transform="rotate(-0 139.48785 150.601991)">01</text>
   </g>
   <g id="text_8">
    <text style="fill: #2469a6; font: 4.7px 'Arial', 'Helvetica', 'DejaVu Sans', sans-serif; text-anchor: middle" x="152.0289" y="150.601991" transform="rotate(-0 152.0289 150.601991)">10</text>
   </g>
   <g id="text_9">
    <text style="fill: #2469a6; font: 4.7px 'Arial', 'Helvetica', 'DejaVu Sans', sans-serif; text-anchor: middle" x="164.56995" y="150.601991" transform="rotate(-0 164.56995 150.601991)">01</text>
   </g>
   <g id="text_10">
    <text style="fill: #2469a6; font: 4.7px 'Arial', 'Helvetica', 'DejaVu Sans', sans-serif; text-anchor: middle" x="177.111" y="150.601991" transform="rotate(-0 177.111 150.601991)">10</text>
   </g>
   <g id="text_11">
    <text style="fill: #2469a6; font: 4.7px 'Arial', 'Helvetica', 'DejaVu Sans', sans-serif; text-anchor: middle" x="189.65205" y="150.601991" transform="rotate(-0 189.65205 150.601991)">01</text>
   </g>
   <g id="text_12">
    <text style="fill: #2469a6; font: 4.7px 'Arial', 'Helvetica', 'DejaVu Sans', sans-serif; text-anchor: middle" x="202.1931" y="150.601991" transform="rotate(-0 202.1931 150.601991)">10</text>
   </g>
   <g id="text_13">
    <text style="fill: #2469a6; font: 4.7px 'Arial', 'Helvetica', 'DejaVu Sans', sans-serif; text-anchor: middle" x="214.73415" y="150.601991" transform="rotate(-0 214.73415 150.601991)">01</text>
   </g>
   <g id="text_14">
    <text style="fill: #5a6b76; font: 5.8px 'Arial', 'Helvetica', 'DejaVu Sans', sans-serif; text-anchor: middle" x="164.9745" y="161.009703" transform="rotate(-0 164.9745 161.009703)">ciphertext trace</text>
   </g>
   <g id="text_15">
    <text style="fill: #1f2a33; font: 700 7.5px 'Arial', 'Helvetica', 'DejaVu Sans', sans-serif" transform="translate(250.433836 102.275158)">MQTT</text>
    <text style="fill: #1f2a33; font: 700 7.5px 'Arial', 'Helvetica', 'DejaVu Sans', sans-serif" transform="translate(249.384422 110.197267)">broker</text>
   </g>
   <g id="text_16">
    <text style="fill: #b94747; font: 700 6.4px 'Arial', 'Helvetica', 'DejaVu Sans', sans-serif; text-anchor: start" x="118.45125" y="197.061168" transform="rotate(-0 118.45125 197.061168)">Not used as model input</text>
   </g>
   <g id="text_17">
    <text style="fill: #1f2a33; font: 5.4px 'Arial', 'Helvetica', 'DejaVu Sans', sans-serif; text-anchor: middle" x="139.48785" y="206.429704" transform="rotate(-0 139.48785 206.429704)">payload</text>
   </g>
   <g id="text_18">
    <text style="fill: #1f2a33; font: 5.4px 'Arial', 'Helvetica', 'DejaVu Sans', sans-serif; text-anchor: middle" x="192.07935" y="206.461344" transform="rotate(-0 192.07935 206.461344)">raw topic</text>
   </g>
   <g id="text_19">
    <text style="fill: #1f2a33; font: 5.4px 'Arial', 'Helvetica', 'DejaVu Sans', sans-serif; text-anchor: middle" x="244.67085" y="206.461344" transform="rotate(-0 244.67085 206.461344)">credentials</text>
   </g>
   <g id="text_20">
    <text style="fill: #1f2a33; font: 5.4px 'Arial', 'Helvetica', 'DejaVu Sans', sans-serif; text-anchor: middle" x="139.48785" y="215.664384" transform="rotate(-0 139.48785 215.664384)">client ID</text>
   </g>
   <g id="text_21">
    <text style="fill: #1f2a33; font: 5.4px 'Arial', 'Helvetica', 'DejaVu Sans', sans-serif; text-anchor: middle" x="192.07935" y="215.664384" transform="rotate(-0 192.07935 215.664384)">raw IP</text>
   </g>
   <g id="text_22">
    <text style="fill: #1f2a33; font: 5.4px 'Arial', 'Helvetica', 'DejaVu Sans', sans-serif; text-anchor: middle" x="244.67085" y="215.664384" transform="rotate(-0 244.67085 215.664384)">exact time</text>
   </g>
   <g id="text_23">
    <text style="fill: #2f8f87; font: 700 7.4px 'Arial', 'Helvetica', 'DejaVu Sans', sans-serif; text-anchor: middle" x="349.04475" y="83.88945" transform="rotate(-0 349.04475 83.88945)">Observable encrypted-flow metadata</text>
   </g>
   <g id="text_24">
    <text style="fill: #1f2a33; font: 5.5px 'Arial', 'Helvetica', 'DejaVu Sans', sans-serif; text-anchor: middle" x="328.4127" y="94.210108" transform="rotate(-0 328.4127 94.210108)">duration</text>
   </g>
   <g id="text_25">
    <text style="fill: #1f2a33; font: 5.5px 'Arial', 'Helvetica', 'DejaVu Sans', sans-serif; text-anchor: middle" x="369.6768" y="94.210108" transform="rotate(-0 369.6768 94.210108)">packet count</text>
   </g>
   <g id="text_26">
    <text style="fill: #1f2a33; font: 5.5px 'Arial', 'Helvetica', 'DejaVu Sans', sans-serif; text-anchor: middle" x="328.4127" y="107.522289" transform="rotate(-0 328.4127 107.522289)">byte stats</text>
   </g>
   <g id="text_27">
    <text style="fill: #1f2a33; font: 5.5px 'Arial', 'Helvetica', 'DejaVu Sans', sans-serif; text-anchor: middle" x="369.6768" y="107.554516" transform="rotate(-0 369.6768 107.554516)">packet size</text>
   </g>
   <g id="text_28">
    <text style="fill: #1f2a33; font: 5.5px 'Arial', 'Helvetica', 'DejaVu Sans', sans-serif; text-anchor: middle" x="328.4127" y="120.898924" transform="rotate(-0 328.4127 120.898924)">IAT stats</text>
   </g>
   <g id="text_29">
    <text style="fill: #1f2a33; font: 5.5px 'Arial', 'Helvetica', 'DejaVu Sans', sans-serif; text-anchor: middle" x="369.6768" y="120.898924" transform="rotate(-0 369.6768 120.898924)">rates</text>
   </g>
   <g id="text_30">
    <text style="fill: #1f2a33; font: 5.5px 'Arial', 'Helvetica', 'DejaVu Sans', sans-serif; text-anchor: middle" x="328.4127" y="134.243332" transform="rotate(-0 328.4127 134.243332)">burstiness</text>
   </g>
   <g id="text_31">
    <text style="fill: #1f2a33; font: 5.5px 'Arial', 'Helvetica', 'DejaVu Sans', sans-serif; text-anchor: middle" x="369.6768" y="134.244621" transform="rotate(-0 369.6768 134.244621)">TCP flags</text>
   </g>
   <g id="text_32">
    <text style="fill: #6d5aa8; font: 700 6.3px 'Arial', 'Helvetica', 'DejaVu Sans', sans-serif; text-anchor: middle" x="349.04475" y="217.048905" transform="rotate(-0 349.04475 217.048905)">metadata-only IDS</text>
   </g>
   <g id="text_33">
    <text style="fill: #5a6b76; font: 6.2px 'Arial', 'Helvetica', 'DejaVu Sans', sans-serif; text-anchor: middle" x="270.1575" y="229.179277" transform="rotate(-0 270.1575 229.179277)">Bounded claim: detection layer only, not cryptographic authentication or protocol hardening.</text>
   </g>
  </g>
 </g>
 <defs>
  <clipPath id="pe41847d4b3">
   <rect x="7.2" y="7.2" width="404.55" height="230.076"/>
  </clipPath>
 </defs>
</svg>
