<?xml version="1.0" encoding="utf-8" standalone="no"?>
<!DOCTYPE svg PUBLIC "-//W3C//DTD SVG 1.1//EN"
  "http://www.w3.org/Graphics/SVG/1.1/DTD/svg11.dtd">
<svg xmlns:xlink="http://www.w3.org/1999/xlink" width="445.68pt" height="158.001187pt" viewBox="0 0 445.68 158.001187" xmlns="http://www.w3.org/2000/svg" version="1.1">
 <metadata>
  <rdf:RDF xmlns:dc="http://purl.org/dc/elements/1.1/" xmlns:cc="http://creativecommons.org/ns#" xmlns:rdf="http://www.w3.org/1999/02/22-rdf-syntax-ns#">
   <cc:Work>
    <dc:type rdf:resource="http://purl.org/dc/dcmitype/StillImage"/>
    <dc:date>2026-06-12T10:45:09.660498</dc:date>
    <dc:format>image/svg+xml</dc:format>
    <dc:creator>
     <cc:Agent>
      <dc:title>Matplotlib v3.7.0, https://matplotlib.org/</dc:title>
     </cc:Agent>
    </dc:creator>
   </cc:Work>
  </rdf:RDF>
 </metadata>
 <defs>
  <style type="text/css">*{stroke-linejoin: round; stroke-linecap: butt}</style>
 </defs>
 <g id="figure_1">
  <g id="patch_1">
   <path d="M 0 158.001187 
L 445.68 158.001187 
L 445.68 0 
L 0 0 
z
" style="fill: #ffffff"/>
  </g>
  <g id="axes_1">
   <g id="text_1">
    <g id="patch_2">
     <path d="M 41.930359 84.134609 
L 101.853641 84.134609 
Q 104.303641 84.134609 104.303641 81.684609 
L 104.303641 75.282891 
Q 104.303641 72.832891 101.853641 72.832891 
L 41.930359 72.832891 
Q 39.480359 72.832891 39.480359 75.282891 
L 39.480359 81.684609 
Q 39.480359 84.134609 41.930359 84.134609 
z
" style="fill: #eef3f7; stroke: #4c78a8; stroke-width: 0.8; stroke-linejoin: miter"/>
    </g>
    <text style="font: 7px 'Arial', 'Helvetica', 'DejaVu Sans', sans-serif; text-anchor: middle" x="71.892" y="80.293359" transform="rotate(-0 71.892 80.293359)">Raw open datasets</text>
   </g>
   <g id="patch_3">
    <path d="M 112.70917 78.48375 
Q 122.207965 78.48375 130.70053 78.48375 
" style="fill: none; stroke: #4c78a8; stroke-width: 0.9; stroke-linecap: round"/>
    <path d="M 127.90053 77.08375 
L 130.70053 78.48375 
L 127.90053 79.88375 
" style="fill: none; stroke: #4c78a8; stroke-width: 0.9; stroke-linecap: round"/>
   </g>
   <g id="text_2">
    <g id="patch_4">
     <path d="M 150.534703 84.175625 
L 194.513297 84.175625 
Q 196.963297 84.175625 196.963297 81.725625 
L 196.963297 75.241875 
Q 196.963297 72.791875 194.513297 72.791875 
L 150.534703 72.791875 
Q 148.084703 72.791875 148.084703 75.241875 
L 148.084703 81.725625 
Q 148.084703 84.175625 150.534703 84.175625 
z
" style="fill: #eef3f7; stroke: #4c78a8; stroke-width: 0.8; stroke-linejoin: miter"/>
    </g>
    <text style="font: 7px 'Arial', 'Helvetica', 'DejaVu Sans', sans-serif; text-anchor: middle" x="172.524" y="80.252344" transform="rotate(-0 172.524 80.252344)">Leakage audit</text>
   </g>
   <g id="patch_5">
    <path d="M 213.34117 78.48375 
Q 222.839965 78.48375 231.33253 78.48375 
" style="fill: none; stroke: #4c78a8; stroke-width: 0.9; stroke-linecap: round"/>
    <path d="M 228.53253 77.08375 
L 231.33253 78.48375 
L 228.53253 79.88375 
" style="fill: none; stroke: #4c78a8; stroke-width: 0.9; stroke-linecap: round"/>
   </g>
   <g id="text_3">
    <g id="patch_6">
     <path d="M 248.450922 84.134609 
L 297.861078 84.134609 
Q 300.311078 84.134609 300.311078 81.684609 
L 300.311078 75.282891 
Q 300.311078 72.832891 297.861078 72.832891 
L 248.450922 72.832891 
Q 246.000922 72.832891 246.000922 75.282891 
L 246.000922 81.684609 
Q 246.000922 84.134609 248.450922 84.134609 
z
" style="fill: #eef3f7; stroke: #4c78a8; stroke-width: 0.8; stroke-linejoin: miter"/>
    </g>
    <text style="font: 7px 'Arial', 'Helvetica', 'DejaVu Sans', sans-serif; text-anchor: middle" x="273.156" y="80.293359" transform="rotate(-0 273.156 80.293359)">Feature policies</text>
   </g>
   <g id="patch_7">
    <path d="M 313.97317 78.48375 
Q 323.471965 78.48375 331.96453 78.48375 
" style="fill: none; stroke: #4c78a8; stroke-width: 0.9; stroke-linecap: round"/>
    <path d="M 329.16453 77.08375 
L 331.96453 78.48375 
L 329.16453 79.88375 
" style="fill: none; stroke: #4c78a8; stroke-width: 0.9; stroke-linecap: round"/>
   </g>
   <g id="text_4">
    <g id="patch_8">
     <path d="M 345.771047 84.134609 
L 401.804953 84.134609 
Q 404.254953 84.134609 404.254953 81.684609 
L 404.254953 75.282891 
Q 404.254953 72.832891 401.804953 72.832891 
L 345.771047 72.832891 
Q 343.321047 72.832891 343.321047 75.282891 
L 343.321047 81.684609 
Q 343.321047 84.134609 345.771047 84.134609 
z
" style="fill: #eef3f7; stroke: #4c78a8; stroke-width: 0.8; stroke-linejoin: miter"/>
    </g>
    <text style="font: 7px 'Arial', 'Helvetica', 'DejaVu Sans', sans-serif; text-anchor: middle" x="373.788" y="80.293359" transform="rotate(-0 373.788 80.293359)">Robust evaluation</text>
   </g>
   <g id="text_5">
    <text style="font: 8.4px 'Arial', 'Helvetica', 'DejaVu Sans', sans-serif; text-anchor: middle" x="222.84" y="13.314937" transform="rotate(-0 222.84 13.314937)">Experimental framework</text>
   </g>
  </g>
 </g>
</svg>
