<?xml version="1.0" encoding="utf-8" standalone="no"?>
<!DOCTYPE svg PUBLIC "-//W3C//DTD SVG 1.1//EN"
  "http://www.w3.org/Graphics/SVG/1.1/DTD/svg11.dtd">
<svg xmlns:xlink="http://www.w3.org/1999/xlink" width="445.68pt" height="158.001187pt" viewBox="0 0 445.68 158.001187" xmlns="http://www.w3.org/2000/svg" version="1.1">
 <metadata>
  <rdf:RDF xmlns:dc="http://purl.org/dc/elements/1.1/" xmlns:cc="http://creativecommons.org/ns#" xmlns:rdf="http://www.w3.org/1999/02/22-rdf-syntax-ns#">
   <cc:Work>
    <dc:type rdf:resource="http://purl.org/dc/dcmitype/StillImage"/>
    <dc:date>2026-06-12T10:45:09.967137</dc:date>
    <dc:format>image/svg+xml</dc:format>
    <dc:creator>
     <cc:Agent>
      <dc:title>Matplotlib v3.7.0, https://matplotlib.org/</dc:title>
     </cc:Agent>
    </dc:creator>
   </cc:Work>
  </rdf:RDF>
 </metadata>
 <defs>
  <style type="text/css">*{stroke-linejoin: round; stroke-linecap: butt}</style>
 </defs>
 <g id="figure_1">
  <g id="patch_1">
   <path d="M 0 158.001187 
L 445.68 158.001187 
L 445.68 0 
L 0 0 
z
" style="fill: #ffffff"/>
  </g>
  <g id="axes_1">
   <g id="text_1">
    <g id="patch_2">
     <path d="M 38.234578 84.134609 
L 105.549422 84.134609 
Q 107.999422 84.134609 107.999422 81.684609 
L 107.999422 75.282891 
Q 107.999422 72.832891 105.549422 72.832891 
L 38.234578 72.832891 
Q 35.784578 72.832891 35.784578 75.282891 
L 35.784578 81.684609 
Q 35.784578 84.134609 38.234578 84.134609 
z
" style="fill: #eef3f7; stroke: #4c78a8; stroke-width: 0.8; stroke-linejoin: miter"/>
    </g>
    <text style="font: 7px 'Arial', 'Helvetica', 'DejaVu Sans', sans-serif; text-anchor: middle" x="71.892" y="80.293359" transform="rotate(-0 71.892 80.293359)">Full audited metadata</text>
   </g>
   <g id="patch_3">
    <path d="M 112.707503 78.48375 
Q 147.36717 78.48375 181.020606 78.48375 
" style="fill: none; stroke: #4c78a8; stroke-width: 0.9; stroke-linecap: round"/>
    <path d="M 178.220606 77.08375 
L 181.020606 78.48375 
L 178.220606 79.88375 
" style="fill: none; stroke: #4c78a8; stroke-width: 0.9; stroke-linecap: round"/>
   </g>
   <g id="text_2">
    <g id="patch_4">
     <path d="M 189.382187 84.134609 
L 256.297812 84.134609 
Q 258.747813 84.134609 258.747813 81.684609 
L 258.747813 75.282891 
Q 258.747813 72.832891 256.297812 72.832891 
L 189.382187 72.832891 
Q 186.932187 72.832891 186.932187 75.282891 
L 186.932187 81.684609 
Q 186.932187 84.134609 189.382187 84.134609 
z
" style="fill: #eef3f7; stroke: #4c78a8; stroke-width: 0.8; stroke-linejoin: miter"/>
    </g>
    <text style="font: 7px 'Arial', 'Helvetica', 'DejaVu Sans', sans-serif; text-anchor: middle" x="222.84" y="80.293359" transform="rotate(-0 222.84 80.293359)">Broker-side metadata</text>
   </g>
   <g id="patch_5">
    <path d="M 263.655503 78.48375 
Q 298.31517 78.48375 331.968606 78.48375 
" style="fill: none; stroke: #4c78a8; stroke-width: 0.9; stroke-linecap: round"/>
    <path d="M 329.168606 77.08375 
L 331.968606 78.48375 
L 329.168606 79.88375 
" style="fill: none; stroke: #4c78a8; stroke-width: 0.9; stroke-linecap: round"/>
   </g>
   <g id="text_3">
    <g id="patch_6">
     <path d="M 326.5205 84.218281 
L 421.0555 84.218281 
Q 423.5055 84.218281 423.5055 81.768281 
L 423.5055 75.199219 
Q 423.5055 72.749219 421.0555 72.749219 
L 326.5205 72.749219 
Q 324.0705 72.749219 324.0705 75.199219 
L 324.0705 81.768281 
Q 324.0705 84.218281 326.5205 84.218281 
z
" style="fill: #eef3f7; stroke: #4c78a8; stroke-width: 0.8; stroke-linejoin: miter"/>
    </g>
    <text style="font: 7px 'Arial', 'Helvetica', 'DejaVu Sans', sans-serif; text-anchor: middle" x="373.788" y="80.295" transform="rotate(-0 373.788 80.295)">Strict encrypted-flow metadata</text>
   </g>
   <g id="text_4">
    <text style="font: 8.4px 'Arial', 'Helvetica', 'DejaVu Sans', sans-serif; text-anchor: middle" x="222.84" y="13.314937" transform="rotate(-0 222.84 13.314937)">Crypto-observability views</text>
   </g>
  </g>
 </g>
</svg>
