<?xml version="1.0" encoding="utf-8" standalone="no"?>
<!DOCTYPE svg PUBLIC "-//W3C//DTD SVG 1.1//EN"
  "http://www.w3.org/Graphics/SVG/1.1/DTD/svg11.dtd">
<svg xmlns:xlink="http://www.w3.org/1999/xlink" width="418.95pt" height="250.02pt" viewBox="0 0 418.95 250.02" xmlns="http://www.w3.org/2000/svg" version="1.1">
 <metadata>
  <rdf:RDF xmlns:dc="http://purl.org/dc/elements/1.1/" xmlns:cc="http://creativecommons.org/ns#" xmlns:rdf="http://www.w3.org/1999/02/22-rdf-syntax-ns#">
   <cc:Work>
    <dc:type rdf:resource="http://purl.org/dc/dcmitype/StillImage"/>
    <dc:date>2026-06-13T18:31:30.370670</dc:date>
    <dc:format>image/svg+xml</dc:format>
    <dc:creator>
     <cc:Agent>
      <dc:title>Matplotlib v3.7.0, https://matplotlib.org/</dc:title>
     </cc:Agent>
    </dc:creator>
   </cc:Work>
  </rdf:RDF>
 </metadata>
 <defs>
  <style type="text/css">*{stroke-linejoin: round; stroke-linecap: butt}</style>
 </defs>
 <g id="figure_1">
  <g id="patch_1">
   <path d="M 0 250.02 
L 418.95 250.02 
L 418.95 0 
L 0 0 
z
" style="fill: #ffffff"/>
  </g>
  <g id="axes_1">
   <g id="line2d_1">
    <path d="M 39.564 231.039 
L 39.564 18.981 
" clip-path="url(#pce0b14212d)" style="fill: none; stroke: #e9eff3; stroke-opacity: 0.55; stroke-width: 0.45; stroke-linecap: square"/>
   </g>
   <g id="line2d_2">
    <path d="M 80.019 231.039 
L 80.019 18.981 
" clip-path="url(#pce0b14212d)" style="fill: none; stroke: #e9eff3; stroke-opacity: 0.55; stroke-width: 0.45; stroke-linecap: square"/>
   </g>
   <g id="line2d_3">
    <path d="M 136.656 231.039 
L 136.656 18.981 
" clip-path="url(#pce0b14212d)" style="fill: none; stroke: #e9eff3; stroke-opacity: 0.55; stroke-width: 0.45; stroke-linecap: square"/>
   </g>
   <g id="line2d_4">
    <path d="M 282.294 231.039 
L 282.294 18.981 
" clip-path="url(#pce0b14212d)" style="fill: none; stroke: #e9eff3; stroke-opacity: 0.55; stroke-width: 0.45; stroke-linecap: square"/>
   </g>
   <g id="line2d_5">
    <path d="M 338.931 231.039 
L 338.931 18.981 
" clip-path="url(#pce0b14212d)" style="fill: none; stroke: #e9eff3; stroke-opacity: 0.55; stroke-width: 0.45; stroke-linecap: square"/>
   </g>
   <g id="line2d_6">
    <path d="M 383.4315 231.039 
L 383.4315 18.981 
" clip-path="url(#pce0b14212d)" style="fill: none; stroke: #e9eff3; stroke-opacity: 0.55; stroke-width: 0.45; stroke-linecap: square"/>
   </g>
   <g id="line2d_7">
    <path d="M 23.382 214.5456 
L 395.568 214.5456 
" clip-path="url(#pce0b14212d)" style="fill: none; stroke: #e9eff3; stroke-opacity: 0.45; stroke-width: 0.45; stroke-linecap: square"/>
   </g>
   <g id="line2d_8">
    <path d="M 23.382 186.2712 
L 395.568 186.2712 
" clip-path="url(#pce0b14212d)" style="fill: none; stroke: #e9eff3; stroke-opacity: 0.45; stroke-width: 0.45; stroke-linecap: square"/>
   </g>
   <g id="line2d_9">
    <path d="M 23.382 153.2844 
L 395.568 153.2844 
" clip-path="url(#pce0b14212d)" style="fill: none; stroke: #e9eff3; stroke-opacity: 0.45; stroke-width: 0.45; stroke-linecap: square"/>
   </g>
   <g id="line2d_10">
    <path d="M 23.382 96.7356 
L 395.568 96.7356 
" clip-path="url(#pce0b14212d)" style="fill: none; stroke: #e9eff3; stroke-opacity: 0.45; stroke-width: 0.45; stroke-linecap: square"/>
   </g>
   <g id="line2d_11">
    <path d="M 23.382 59.0364 
L 395.568 59.0364 
" clip-path="url(#pce0b14212d)" style="fill: none; stroke: #e9eff3; stroke-opacity: 0.45; stroke-width: 0.45; stroke-linecap: square"/>
   </g>
   <g id="line2d_12">
    <path d="M 23.382 30.762 
L 395.568 30.762 
" clip-path="url(#pce0b14212d)" style="fill: none; stroke: #e9eff3; stroke-opacity: 0.45; stroke-width: 0.45; stroke-linecap: square"/>
   </g>
   <g id="patch_2">
    <path d="M 39.564 187.68492 
C 40.207727 187.68492 40.825176 187.535962 41.28036 187.270851 
C 41.735544 187.00574 41.9913 186.646123 41.9913 186.2712 
C 41.9913 185.896277 41.735544 185.53666 41.28036 185.271549 
C 40.825176 185.006438 40.207727 184.85748 39.564 184.85748 
C 38.920273 184.85748 38.302824 185.006438 37.84764 185.271549 
C 37.392456 185.53666 37.1367 185.896277 37.1367 186.2712 
C 37.1367 186.646123 37.392456 187.00574 37.84764 187.270851 
C 38.302824 187.535962 38.920273 187.68492 39.564 187.68492 
z
" clip-path="url(#pce0b14212d)" style="fill: #ffffff; stroke: #e9eff3; stroke-width: 0.7; stroke-linejoin: miter"/>
   </g>
   <g id="patch_3">
    <path d="M 80.019 60.45012 
C 80.662727 60.45012 81.280176 60.301162 81.73536 60.036051 
C 82.190544 59.77094 82.4463 59.411323 82.4463 59.0364 
C 82.4463 58.661477 82.190544 58.30186 81.73536 58.036749 
C 81.280176 57.771638 80.662727 57.62268 80.019 57.62268 
C 79.375273 57.62268 78.757824 57.771638 78.30264 58.036749 
C 77.847456 58.30186 77.5917 58.661477 77.5917 59.0364 
C 77.5917 59.411323 77.847456 59.77094 78.30264 60.036051 
C 78.757824 60.301162 79.375273 60.45012 80.019 60.45012 
z
" clip-path="url(#pce0b14212d)" style="fill: #ffffff; stroke: #e9eff3; stroke-width: 0.7; stroke-linejoin: miter"/>
   </g>
   <g id="patch_4">
    <path d="M 136.656 154.69812 
C 137.299727 154.69812 137.917176 154.549162 138.37236 154.284051 
C 138.827544 154.01894 139.0833 153.659323 139.0833 153.2844 
C 139.0833 152.909477 138.827544 152.54986 138.37236 152.284749 
C 137.917176 152.019638 137.299727 151.87068 136.656 151.87068 
C 136.012273 151.87068 135.394824 152.019638 134.93964 152.284749 
C 134.484456 152.54986 134.2287 152.909477 134.2287 153.2844 
C 134.2287 153.659323 134.484456 154.01894 134.93964 154.284051 
C 135.394824 154.549162 136.012273 154.69812 136.656 154.69812 
z
" clip-path="url(#pce0b14212d)" style="fill: #ffffff; stroke: #e9eff3; stroke-width: 0.7; stroke-linejoin: miter"/>
   </g>
   <g id="patch_5">
    <path d="M 282.294 98.14932 
C 282.937727 98.14932 283.555176 98.000362 284.01036 97.735251 
C 284.465544 97.47014 284.7213 97.110523 284.7213 96.7356 
C 284.7213 96.360677 284.465544 96.00106 284.01036 95.735949 
C 283.555176 95.470838 282.937727 95.32188 282.294 95.32188 
C 281.650273 95.32188 281.032824 95.470838 280.57764 95.735949 
C 280.122456 96.00106 279.8667 96.360677 279.8667 96.7356 
C 279.8667 97.110523 280.122456 97.47014 280.57764 97.735251 
C 281.032824 98.000362 281.650273 98.14932 282.294 98.14932 
z
" clip-path="url(#pce0b14212d)" style="fill: #ffffff; stroke: #e9eff3; stroke-width: 0.7; stroke-linejoin: miter"/>
   </g>
   <g id="patch_6">
    <path d="M 338.931 215.95932 
C 339.574727 215.95932 340.192176 215.810362 340.64736 215.545251 
C 341.102544 215.28014 341.3583 214.920523 341.3583 214.5456 
C 341.3583 214.170677 341.102544 213.81106 340.64736 213.545949 
C 340.192176 213.280838 339.574727 213.13188 338.931 213.13188 
C 338.287273 213.13188 337.669824 213.280838 337.21464 213.545949 
C 336.759456 213.81106 336.5037 214.170677 336.5037 214.5456 
C 336.5037 214.920523 336.759456 215.28014 337.21464 215.545251 
C 337.669824 215.810362 338.287273 215.95932 338.931 215.95932 
z
" clip-path="url(#pce0b14212d)" style="fill: #ffffff; stroke: #e9eff3; stroke-width: 0.7; stroke-linejoin: miter"/>
   </g>
   <g id="patch_7">
    <path d="M 383.4315 32.17572 
C 384.075227 32.17572 384.692676 32.026762 385.14786 31.761651 
C 385.603044 31.49654 385.8588 31.136923 385.8588 30.762 
C 385.8588 30.387077 385.603044 30.02746 385.14786 29.762349 
C 384.692676 29.497238 384.075227 29.34828 383.4315 29.34828 
C 382.787773 29.34828 382.170324 29.497238 381.71514 29.762349 
C 381.259956 30.02746 381.0042 30.387077 381.0042 30.762 
C 381.0042 31.136923 381.259956 31.49654 381.71514 31.761651 
C 382.170324 32.026762 382.787773 32.17572 383.4315 32.17572 
z
" clip-path="url(#pce0b14212d)" style="fill: #ffffff; stroke: #e9eff3; stroke-width: 0.7; stroke-linejoin: miter"/>
   </g>
   <g id="patch_8">
    <path d="M 30.25935 186.97806 
L 83.2554 186.97806 
Q 95.3919 186.97806 95.3919 179.90946 
L 95.3919 58.32954 
Q 95.3919 51.26094 83.2554 51.26094 
L 30.25935 51.26094 
Q 18.12285 51.26094 18.12285 58.32954 
L 18.12285 179.90946 
Q 18.12285 186.97806 30.25935 186.97806 
z
" clip-path="url(#pce0b14212d)" style="fill: #f7fbff; stroke: #2469a6; stroke-linejoin: miter"/>
   </g>
   <g id="patch_9">
    <path d="M 30.6639 99.0918 
L 48.4641 99.0918 
Q 52.5096 99.0918 52.5096 96.7356 
L 52.5096 82.5984 
Q 52.5096 80.2422 48.4641 80.2422 
L 30.6639 80.2422 
Q 26.6184 80.2422 26.6184 82.5984 
L 26.6184 96.7356 
Q 26.6184 99.0918 30.6639 99.0918 
z
" clip-path="url(#pce0b14212d)" style="fill: #ffffff; stroke: #2469a6; stroke-linejoin: miter"/>
   </g>
   <g id="patch_10">
    <path d="M 39.564 96.452856 
C 40.078982 96.452856 40.572941 96.333689 40.937088 96.121601 
C 41.301235 95.909512 41.50584 95.621818 41.50584 95.32188 
C 41.50584 95.021942 41.301235 94.734248 40.937088 94.522159 
C 40.572941 94.310071 40.078982 94.190904 39.564 94.190904 
C 39.049018 94.190904 38.555059 94.310071 38.190912 94.522159 
C 37.826765 94.734248 37.62216 95.021942 37.62216 95.32188 
C 37.62216 95.621818 37.826765 95.909512 38.190912 96.121601 
C 38.555059 96.333689 39.049018 96.452856 39.564 96.452856 
z
" clip-path="url(#pce0b14212d)" style="fill: #2469a6"/>
   </g>
   <g id="patch_11">
    <path d="M 61.00515 99.0918 
L 78.80535 99.0918 
Q 82.85085 99.0918 82.85085 96.7356 
L 82.85085 82.5984 
Q 82.85085 80.2422 78.80535 80.2422 
L 61.00515 80.2422 
Q 56.95965 80.2422 56.95965 82.5984 
L 56.95965 96.7356 
Q 56.95965 99.0918 61.00515 99.0918 
z
" clip-path="url(#pce0b14212d)" style="fill: #ffffff; stroke: #2f8f87; stroke-linejoin: miter"/>
   </g>
   <g id="patch_12">
    <path d="M 69.90525 96.452856 
C 70.420232 96.452856 70.914191 96.333689 71.278338 96.121601 
C 71.642485 95.909512 71.84709 95.621818 71.84709 95.32188 
C 71.84709 95.021942 71.642485 94.734248 71.278338 94.522159 
C 70.914191 94.310071 70.420232 94.190904 69.90525 94.190904 
C 69.390268 94.190904 68.896309 94.310071 68.532162 94.522159 
C 68.168015 94.734248 67.96341 95.021942 67.96341 95.32188 
C 67.96341 95.621818 68.168015 95.909512 68.532162 96.121601 
C 68.896309 96.333689 69.390268 96.452856 69.90525 96.452856 
z
" clip-path="url(#pce0b14212d)" style="fill: #2f8f87"/>
   </g>
   <g id="patch_13">
    <path d="M 69.90525 89.90262 
C 71.299993 89.90262 72.637798 89.579877 73.624031 89.00547 
C 74.610263 88.431064 75.1644 87.651893 75.1644 86.83956 
C 75.1644 86.027227 74.610263 85.248056 73.624031 84.67365 
C 72.637798 84.099243 71.299993 83.7765 69.90525 83.7765 
C 68.510507 83.7765 67.172702 84.099243 66.186469 84.67365 
C 65.200237 85.248056 64.6461 86.027227 64.6461 86.83956 
C 64.6461 87.651893 65.200237 88.431064 66.186469 89.00547 
C 67.172702 89.579877 68.510507 89.90262 69.90525 89.90262 
z
" clip-path="url(#pce0b14212d)" style="fill: #ddecf8; stroke: #2f8f87; stroke-width: 0.8; stroke-linejoin: miter"/>
   </g>
   <g id="patch_14">
    <path d="M 69.90525 88.01766 
C 70.44169 88.01766 70.95623 87.893528 71.33555 87.672602 
C 71.71487 87.451677 71.928 87.151996 71.928 86.83956 
C 71.928 86.527124 71.71487 86.227443 71.33555 86.006518 
C 70.95623 85.785592 70.44169 85.66146 69.90525 85.66146 
C 69.36881 85.66146 68.85427 85.785592 68.47495 86.006518 
C 68.09563 86.227443 67.8825 86.527124 67.8825 86.83956 
C 67.8825 87.151996 68.09563 87.451677 68.47495 87.672602 
C 68.85427 87.893528 69.36881 88.01766 69.90525 88.01766 
z
" clip-path="url(#pce0b14212d)" style="fill: #2f8f87"/>
   </g>
   <g id="patch_15">
    <path d="M 30.6639 133.2567 
L 48.4641 133.2567 
Q 52.5096 133.2567 52.5096 130.9005 
L 52.5096 116.7633 
Q 52.5096 114.4071 48.4641 114.4071 
L 30.6639 114.4071 
Q 26.6184 114.4071 26.6184 116.7633 
L 26.6184 130.9005 
Q 26.6184 133.2567 30.6639 133.2567 
z
" clip-path="url(#pce0b14212d)" style="fill: #ffffff; stroke: #6d5aa8; stroke-linejoin: miter"/>
   </g>
   <g id="patch_16">
    <path d="M 39.564 130.617756 
C 40.078982 130.617756 40.572941 130.498589 40.937088 130.286501 
C 41.301235 130.074412 41.50584 129.786718 41.50584 129.48678 
C 41.50584 129.186842 41.301235 128.899148 40.937088 128.687059 
C 40.572941 128.474971 40.078982 128.355804 39.564 128.355804 
C 39.049018 128.355804 38.555059 128.474971 38.190912 128.687059 
C 37.826765 128.899148 37.62216 129.186842 37.62216 129.48678 
C 37.62216 129.786718 37.826765 130.074412 38.190912 130.286501 
C 38.555059 130.498589 39.049018 130.617756 39.564 130.617756 
z
" clip-path="url(#pce0b14212d)" style="fill: #6d5aa8"/>
   </g>
   <g id="patch_17">
    <path d="M 61.00515 133.2567 
L 78.80535 133.2567 
Q 82.85085 133.2567 82.85085 130.9005 
L 82.85085 116.7633 
Q 82.85085 114.4071 78.80535 114.4071 
L 61.00515 114.4071 
Q 56.95965 114.4071 56.95965 116.7633 
L 56.95965 130.9005 
Q 56.95965 133.2567 61.00515 133.2567 
z
" clip-path="url(#pce0b14212d)" style="fill: #ffffff; stroke: #d88922; stroke-linejoin: miter"/>
   </g>
   <g id="patch_18">
    <path d="M 69.90525 130.617756 
C 70.420232 130.617756 70.914191 130.498589 71.278338 130.286501 
C 71.642485 130.074412 71.84709 129.786718 71.84709 129.48678 
C 71.84709 129.186842 71.642485 128.899148 71.278338 128.687059 
C 70.914191 128.474971 70.420232 128.355804 69.90525 128.355804 
C 69.390268 128.355804 68.896309 128.474971 68.532162 128.687059 
C 68.168015 128.899148 67.96341 129.186842 67.96341 129.48678 
C 67.96341 129.786718 68.168015 130.074412 68.532162 130.286501 
C 68.896309 130.498589 69.390268 130.617756 69.90525 130.617756 
z
" clip-path="url(#pce0b14212d)" style="fill: #d88922"/>
   </g>
   <g id="patch_19">
    <path d="M 46.0368 167.4216 
L 63.837 167.4216 
Q 67.8825 167.4216 67.8825 165.0654 
L 67.8825 150.9282 
Q 67.8825 148.572 63.837 148.572 
L 46.0368 148.572 
Q 41.9913 148.572 41.9913 150.9282 
L 41.9913 165.0654 
Q 41.9913 167.4216 46.0368 167.4216 
z
" clip-path="url(#pce0b14212d)" style="fill: #ffffff; stroke: #143b63; stroke-linejoin: miter"/>
   </g>
   <g id="patch_20">
    <path d="M 54.9369 164.782656 
C 55.451882 164.782656 55.945841 164.663489 56.309988 164.451401 
C 56.674135 164.239312 56.87874 163.951618 56.87874 163.65168 
C 56.87874 163.351742 56.674135 163.064048 56.309988 162.851959 
C 55.945841 162.639871 55.451882 162.520704 54.9369 162.520704 
C 54.421918 162.520704 53.927959 162.639871 53.563812 162.851959 
C 53.199665 163.064048 52.99506 163.351742 52.99506 163.65168 
C 52.99506 163.951618 53.199665 164.239312 53.563812 164.451401 
C 53.927959 164.663489 54.421918 164.782656 54.9369 164.782656 
z
" clip-path="url(#pce0b14212d)" style="fill: #143b63"/>
   </g>
   <g id="patch_21">
    <path d="M 54.9369 158.23242 
C 56.331643 158.23242 57.669448 157.909677 58.655681 157.33527 
C 59.641913 156.760864 60.19605 155.981693 60.19605 155.16936 
C 60.19605 154.357027 59.641913 153.577856 58.655681 153.00345 
C 57.669448 152.429043 56.331643 152.1063 54.9369 152.1063 
C 53.542157 152.1063 52.204352 152.429043 51.218119 153.00345 
C 50.231887 153.577856 49.67775 154.357027 49.67775 155.16936 
C 49.67775 155.981693 50.231887 156.760864 51.218119 157.33527 
C 52.204352 157.909677 53.542157 158.23242 54.9369 158.23242 
z
" clip-path="url(#pce0b14212d)" style="fill: #ddecf8; stroke: #143b63; stroke-width: 0.8; stroke-linejoin: miter"/>
   </g>
   <g id="patch_22">
    <path d="M 54.9369 156.34746 
C 55.47334 156.34746 55.98788 156.223328 56.3672 156.002402 
C 56.74652 155.781477 56.95965 155.481796 56.95965 155.16936 
C 56.95965 154.856924 56.74652 154.557243 56.3672 154.336318 
C 55.98788 154.115392 55.47334 153.99126 54.9369 153.99126 
C 54.40046 153.99126 53.88592 154.115392 53.5066 154.336318 
C 53.12728 154.557243 52.91415 154.856924 52.91415 155.16936 
C 52.91415 155.481796 53.12728 155.781477 53.5066 156.002402 
C 53.88592 156.223328 54.40046 156.34746 54.9369 156.34746 
z
" clip-path="url(#pce0b14212d)" style="fill: #143b63"/>
   </g>
   <g id="patch_23">
    <path d="M 32.2821 181.08756 
L 75.1644 181.08756 
Q 79.2099 181.08756 79.2099 178.73136 
L 79.2099 170.72028 
Q 79.2099 168.36408 75.1644 168.36408 
L 32.2821 168.36408 
Q 28.2366 168.36408 28.2366 170.72028 
L 28.2366 178.73136 
Q 28.2366 181.08756 32.2821 181.08756 
z
" clip-path="url(#pce0b14212d)" style="fill: #ffffff; stroke: #2469a6; stroke-width: 0.9; stroke-linejoin: miter"/>
   </g>
   <g id="patch_24">
    <path d="M 31.473 179.2026 
L 44.82315 179.2026 
L 44.82315 170.24904 
L 31.473 170.24904 
z
" clip-path="url(#pce0b14212d)" style="fill: #2469a6; opacity: 0.18"/>
   </g>
   <g id="patch_25">
    <path d="M 186.0111 143.38836 
L 232.9389 143.38836 
Q 243.05265 143.38836 243.05265 137.49786 
L 243.05265 87.78204 
Q 243.05265 81.89154 232.9389 81.89154 
L 186.0111 81.89154 
Q 175.89735 81.89154 175.89735 87.78204 
L 175.89735 137.49786 
Q 175.89735 143.38836 186.0111 143.38836 
z
" clip-path="url(#pce0b14212d)" style="fill: #fff1d8; stroke: #d88922; stroke-width: 1.1; stroke-linejoin: miter"/>
   </g>
   <g id="patch_26">
    <path d="M 189.2475 136.791 
L 229.7025 136.791 
L 229.7025 128.5443 
L 189.2475 128.5443 
z
" clip-path="url(#pce0b14212d)" style="fill: #ffffff; stroke: #e2be81; stroke-width: 0.8; stroke-linejoin: miter"/>
   </g>
   <g id="patch_27">
    <path d="M 199.36125 133.84575 
C 199.844046 133.84575 200.307132 133.734031 200.64852 133.535198 
C 200.989908 133.336365 201.181725 133.066652 201.181725 132.78546 
C 201.181725 132.504268 200.989908 132.234555 200.64852 132.035722 
C 200.307132 131.836889 199.844046 131.72517 199.36125 131.72517 
C 198.878454 131.72517 198.415368 131.836889 198.07398 132.035722 
C 197.732592 132.234555 197.540775 132.504268 197.540775 132.78546 
C 197.540775 133.066652 197.732592 133.336365 198.07398 133.535198 
C 198.415368 133.734031 198.878454 133.84575 199.36125 133.84575 
z
" clip-path="url(#pce0b14212d)" style="fill: #d88922"/>
   </g>
   <g id="patch_28">
    <path d="M 211.49775 133.84575 
C 211.980546 133.84575 212.443632 133.734031 212.78502 133.535198 
C 213.126408 133.336365 213.318225 133.066652 213.318225 132.78546 
C 213.318225 132.504268 213.126408 132.234555 212.78502 132.035722 
C 212.443632 131.836889 211.980546 131.72517 211.49775 131.72517 
C 211.014954 131.72517 210.551868 131.836889 210.21048 132.035722 
C 209.869092 132.234555 209.677275 132.504268 209.677275 132.78546 
C 209.677275 133.066652 209.869092 133.336365 210.21048 133.535198 
C 210.551868 133.734031 211.014954 133.84575 211.49775 133.84575 
z
" clip-path="url(#pce0b14212d)" style="fill: #d88922"/>
   </g>
   <g id="patch_29">
    <path d="M 223.63425 133.84575 
C 224.117046 133.84575 224.580132 133.734031 224.92152 133.535198 
C 225.262908 133.336365 225.454725 133.066652 225.454725 132.78546 
C 225.454725 132.504268 225.262908 132.234555 224.92152 132.035722 
C 224.580132 131.836889 224.117046 131.72517 223.63425 131.72517 
C 223.151454 131.72517 222.688368 131.836889 222.34698 132.035722 
C 222.005592 132.234555 221.813775 132.504268 221.813775 132.78546 
C 221.813775 133.066652 222.005592 133.336365 222.34698 133.535198 
C 222.688368 133.734031 223.151454 133.84575 223.63425 133.84575 
z
" clip-path="url(#pce0b14212d)" style="fill: #d88922"/>
   </g>
   <g id="patch_30">
    <path d="M 235.77075 133.84575 
C 236.253546 133.84575 236.716632 133.734031 237.05802 133.535198 
C 237.399408 133.336365 237.591225 133.066652 237.591225 132.78546 
C 237.591225 132.504268 237.399408 132.234555 237.05802 132.035722 
C 236.716632 131.836889 236.253546 131.72517 235.77075 131.72517 
C 235.287954 131.72517 234.824868 131.836889 234.48348 132.035722 
C 234.142092 132.234555 233.950275 132.504268 233.950275 132.78546 
C 233.950275 133.066652 234.142092 133.336365 234.48348 133.535198 
C 234.824868 133.734031 235.287954 133.84575 235.77075 133.84575 
z
" clip-path="url(#pce0b14212d)" style="fill: #d88922"/>
   </g>
   <g id="patch_31">
    <path d="M 189.2475 123.0465 
L 229.7025 123.0465 
L 229.7025 114.7998 
L 189.2475 114.7998 
z
" clip-path="url(#pce0b14212d)" style="fill: #ffffff; stroke: #e2be81; stroke-width: 0.8; stroke-linejoin: miter"/>
   </g>
   <g id="patch_32">
    <path d="M 199.36125 120.10125 
C 199.844046 120.10125 200.307132 119.989531 200.64852 119.790698 
C 200.989908 119.591865 201.181725 119.322152 201.181725 119.04096 
C 201.181725 118.759768 200.989908 118.490055 200.64852 118.291222 
C 200.307132 118.092389 199.844046 117.98067 199.36125 117.98067 
C 198.878454 117.98067 198.415368 118.092389 198.07398 118.291222 
C 197.732592 118.490055 197.540775 118.759768 197.540775 119.04096 
C 197.540775 119.322152 197.732592 119.591865 198.07398 119.790698 
C 198.415368 119.989531 198.878454 120.10125 199.36125 120.10125 
z
" clip-path="url(#pce0b14212d)" style="fill: #d88922"/>
   </g>
   <g id="patch_33">
    <path d="M 211.49775 120.10125 
C 211.980546 120.10125 212.443632 119.989531 212.78502 119.790698 
C 213.126408 119.591865 213.318225 119.322152 213.318225 119.04096 
C 213.318225 118.759768 213.126408 118.490055 212.78502 118.291222 
C 212.443632 118.092389 211.980546 117.98067 211.49775 117.98067 
C 211.014954 117.98067 210.551868 118.092389 210.21048 118.291222 
C 209.869092 118.490055 209.677275 118.759768 209.677275 119.04096 
C 209.677275 119.322152 209.869092 119.591865 210.21048 119.790698 
C 210.551868 119.989531 211.014954 120.10125 211.49775 120.10125 
z
" clip-path="url(#pce0b14212d)" style="fill: #d88922"/>
   </g>
   <g id="patch_34">
    <path d="M 223.63425 120.10125 
C 224.117046 120.10125 224.580132 119.989531 224.92152 119.790698 
C 225.262908 119.591865 225.454725 119.322152 225.454725 119.04096 
C 225.454725 118.759768 225.262908 118.490055 224.92152 118.291222 
C 224.580132 118.092389 224.117046 117.98067 223.63425 117.98067 
C 223.151454 117.98067 222.688368 118.092389 222.34698 118.291222 
C 222.005592 118.490055 221.813775 118.759768 221.813775 119.04096 
C 221.813775 119.322152 222.005592 119.591865 222.34698 119.790698 
C 222.688368 119.989531 223.151454 120.10125 223.63425 120.10125 
z
" clip-path="url(#pce0b14212d)" style="fill: #d88922"/>
   </g>
   <g id="patch_35">
    <path d="M 235.77075 120.10125 
C 236.253546 120.10125 236.716632 119.989531 237.05802 119.790698 
C 237.399408 119.591865 237.591225 119.322152 237.591225 119.04096 
C 237.591225 118.759768 237.399408 118.490055 237.05802 118.291222 
C 236.716632 118.092389 236.253546 117.98067 235.77075 117.98067 
C 235.287954 117.98067 234.824868 118.092389 234.48348 118.291222 
C 234.142092 118.490055 233.950275 118.759768 233.950275 119.04096 
C 233.950275 119.322152 234.142092 119.591865 234.48348 119.790698 
C 234.824868 119.989531 235.287954 120.10125 235.77075 120.10125 
z
" clip-path="url(#pce0b14212d)" style="fill: #d88922"/>
   </g>
   <g id="patch_36">
    <path d="M 189.2475 109.302 
L 229.7025 109.302 
L 229.7025 101.0553 
L 189.2475 101.0553 
z
" clip-path="url(#pce0b14212d)" style="fill: #ffffff; stroke: #e2be81; stroke-width: 0.8; stroke-linejoin: miter"/>
   </g>
   <g id="patch_37">
    <path d="M 199.36125 106.35675 
C 199.844046 106.35675 200.307132 106.245031 200.64852 106.046198 
C 200.989908 105.847365 201.181725 105.577652 201.181725 105.29646 
C 201.181725 105.015268 200.989908 104.745555 200.64852 104.546722 
C 200.307132 104.347889 199.844046 104.23617 199.36125 104.23617 
C 198.878454 104.23617 198.415368 104.347889 198.07398 104.546722 
C 197.732592 104.745555 197.540775 105.015268 197.540775 105.29646 
C 197.540775 105.577652 197.732592 105.847365 198.07398 106.046198 
C 198.415368 106.245031 198.878454 106.35675 199.36125 106.35675 
z
" clip-path="url(#pce0b14212d)" style="fill: #d88922"/>
   </g>
   <g id="patch_38">
    <path d="M 211.49775 106.35675 
C 211.980546 106.35675 212.443632 106.245031 212.78502 106.046198 
C 213.126408 105.847365 213.318225 105.577652 213.318225 105.29646 
C 213.318225 105.015268 213.126408 104.745555 212.78502 104.546722 
C 212.443632 104.347889 211.980546 104.23617 211.49775 104.23617 
C 211.014954 104.23617 210.551868 104.347889 210.21048 104.546722 
C 209.869092 104.745555 209.677275 105.015268 209.677275 105.29646 
C 209.677275 105.577652 209.869092 105.847365 210.21048 106.046198 
C 210.551868 106.245031 211.014954 106.35675 211.49775 106.35675 
z
" clip-path="url(#pce0b14212d)" style="fill: #d88922"/>
   </g>
   <g id="patch_39">
    <path d="M 223.63425 106.35675 
C 224.117046 106.35675 224.580132 106.245031 224.92152 106.046198 
C 225.262908 105.847365 225.454725 105.577652 225.454725 105.29646 
C 225.454725 105.015268 225.262908 104.745555 224.92152 104.546722 
C 224.580132 104.347889 224.117046 104.23617 223.63425 104.23617 
C 223.151454 104.23617 222.688368 104.347889 222.34698 104.546722 
C 222.005592 104.745555 221.813775 105.015268 221.813775 105.29646 
C 221.813775 105.577652 222.005592 105.847365 222.34698 106.046198 
C 222.688368 106.245031 223.151454 106.35675 223.63425 106.35675 
z
" clip-path="url(#pce0b14212d)" style="fill: #d88922"/>
   </g>
   <g id="patch_40">
    <path d="M 235.77075 106.35675 
C 236.253546 106.35675 236.716632 106.245031 237.05802 106.046198 
C 237.399408 105.847365 237.591225 105.577652 237.591225 105.29646 
C 237.591225 105.015268 237.399408 104.745555 237.05802 104.546722 
C 236.716632 104.347889 236.253546 104.23617 235.77075 104.23617 
C 235.287954 104.23617 234.824868 104.347889 234.48348 104.546722 
C 234.142092 104.745555 233.950275 105.015268 233.950275 105.29646 
C 233.950275 105.577652 234.142092 105.847365 234.48348 106.046198 
C 234.824868 106.245031 235.287954 106.35675 235.77075 106.35675 
z
" clip-path="url(#pce0b14212d)" style="fill: #d88922"/>
   </g>
   <g id="patch_41">
    <path d="M 121.2831 132.78546 
L 158.09715 132.78546 
Q 174.27915 132.78546 174.27915 123.36066 
L 174.27915 107.80974 
Q 174.27915 98.38494 158.09715 98.38494 
L 121.2831 98.38494 
Q 105.1011 98.38494 105.1011 107.80974 
L 105.1011 123.36066 
Q 105.1011 132.78546 121.2831 132.78546 
z
" clip-path="url(#pce0b14212d)" style="fill: #f4f9fd; stroke: #2469a6; stroke-width: 1.1; stroke-linejoin: miter"/>
   </g>
   <g id="patch_42">
    <path d="M 149.500462 112.227615 
C 149.500462 110.684696 148.487496 109.203393 146.686326 108.112385 
C 144.885156 107.021377 142.439639 106.407801 139.8924 106.407801 
C 137.345161 106.407801 134.899644 107.021377 133.098474 108.112385 
C 131.297304 109.203393 130.284338 110.684696 130.284338 112.227615 
" clip-path="url(#pce0b14212d)" style="fill: none; stroke: #143b63; stroke-linejoin: miter"/>
   </g>
   <g id="patch_43">
    <path d="M 127.978403 122.076531 
L 151.806398 122.076531 
L 151.806398 111.332259 
L 127.978403 111.332259 
z
" clip-path="url(#pce0b14212d)" style="fill: #ffffff; stroke: #143b63; stroke-linejoin: miter"/>
   </g>
   <g id="patch_44">
    <path d="M 139.8924 118.047429 
C 140.503941 118.047429 141.090517 117.905918 141.522942 117.654063 
C 141.955367 117.402208 142.198335 117.060572 142.198335 116.704395 
C 142.198335 116.348218 141.955367 116.006582 141.522942 115.754727 
C 141.090517 115.502872 140.503941 115.361361 139.8924 115.361361 
C 139.280859 115.361361 138.694283 115.502872 138.261858 115.754727 
C 137.829433 116.006582 137.586465 116.348218 137.586465 116.704395 
C 137.586465 117.060572 137.829433 117.402208 138.261858 117.654063 
C 138.694283 117.905918 139.280859 118.047429 139.8924 118.047429 
z
" clip-path="url(#pce0b14212d)" style="fill: #143b63"/>
   </g>
   <g id="patch_45">
    <path d="M 117.2376 126.1881 
L 126.9468 126.1881 
L 126.9468 118.17702 
L 117.2376 118.17702 
z
" clip-path="url(#pce0b14212d)" style="fill: #ddecf8; stroke: #2469a6; stroke-width: 0.6; stroke-linejoin: miter"/>
   </g>
   <g id="patch_46">
    <path d="M 129.77865 126.1881 
L 139.48785 126.1881 
L 139.48785 118.17702 
L 129.77865 118.17702 
z
" clip-path="url(#pce0b14212d)" style="fill: #ffffff; stroke: #2469a6; stroke-width: 0.6; stroke-linejoin: miter"/>
   </g>
   <g id="patch_47">
    <path d="M 142.3197 126.1881 
L 152.0289 126.1881 
L 152.0289 118.17702 
L 142.3197 118.17702 
z
" clip-path="url(#pce0b14212d)" style="fill: #ddecf8; stroke: #2469a6; stroke-width: 0.6; stroke-linejoin: miter"/>
   </g>
   <g id="patch_48">
    <path d="M 154.86075 126.1881 
L 164.56995 126.1881 
L 164.56995 118.17702 
L 154.86075 118.17702 
z
" clip-path="url(#pce0b14212d)" style="fill: #ffffff; stroke: #2469a6; stroke-width: 0.6; stroke-linejoin: miter"/>
   </g>
   <g id="patch_49">
    <path d="M 167.4018 126.1881 
L 177.111 126.1881 
L 177.111 118.17702 
L 167.4018 118.17702 
z
" clip-path="url(#pce0b14212d)" style="fill: #ddecf8; stroke: #2469a6; stroke-width: 0.6; stroke-linejoin: miter"/>
   </g>
   <g id="patch_50">
    <path d="M 92.647896 97.605388 
Q 98.291392 107.361875 106.691177 113.262027 
" clip-path="url(#pce0b14212d)" style="fill: none; stroke: #2469a6; stroke-width: 0.9; stroke-linecap: round"/>
    <path d="M 105.204637 110.506995 
L 106.691177 113.262027 
L 103.595227 112.79824 
z
" clip-path="url(#pce0b14212d)" style="fill: #2469a6; stroke: #2469a6; stroke-width: 0.9; stroke-linecap: round"/>
   </g>
   <g id="patch_51">
    <path d="M 93.131319 114.627174 
Q 100.246223 116.128808 106.376582 114.835068 
" clip-path="url(#pce0b14212d)" style="fill: none; stroke: #2469a6; stroke-width: 0.9; stroke-linecap: round"/>
    <path d="M 103.347839 114.043412 
L 106.376582 114.835068 
L 103.926011 116.783068 
z
" clip-path="url(#pce0b14212d)" style="fill: #2469a6; stroke: #2469a6; stroke-width: 0.9; stroke-linecap: round"/>
   </g>
   <g id="patch_52">
    <path d="M 92.978682 131.511716 
Q 102.201816 125.033147 107.341443 116.14763 
" clip-path="url(#pce0b14212d)" style="fill: none; stroke: #2469a6; stroke-width: 0.9; stroke-linecap: round"/>
    <path d="M 104.727616 117.870391 
L 107.341443 116.14763 
L 107.151356 119.272348 
z
" clip-path="url(#pce0b14212d)" style="fill: #2469a6; stroke: #2469a6; stroke-width: 0.9; stroke-linecap: round"/>
   </g>
   <g id="patch_53">
    <path d="M 172.042273 115.5852 
Q 175.087661 115.5852 176.791408 115.5852 
" clip-path="url(#pce0b14212d)" style="fill: none; stroke: #2469a6; stroke-width: 1.2; stroke-linecap: round"/>
    <path d="M 173.191408 113.7852 
L 176.791408 115.5852 
L 173.191408 117.3852 
z
" clip-path="url(#pce0b14212d)" style="fill: #2469a6; stroke: #2469a6; stroke-width: 1.2; stroke-linecap: round"/>
   </g>
   <g id="patch_54">
    <path d="M 264.89835 186.97806 
L 309.8034 186.97806 
Q 321.9399 186.97806 321.9399 179.90946 
L 321.9399 58.32954 
Q 321.9399 51.26094 309.8034 51.26094 
L 264.89835 51.26094 
Q 252.76185 51.26094 252.76185 58.32954 
L 252.76185 179.90946 
Q 252.76185 186.97806 264.89835 186.97806 
z
" clip-path="url(#pce0b14212d)" style="fill: #dff3ef; stroke: #2f8f87; stroke-linejoin: miter"/>
   </g>
   <g id="patch_55">
    <path d="M 261.66195 97.9137 
L 298.88055 97.9137 
Q 302.11695 97.9137 302.11695 96.02874 
L 302.11695 80.94906 
Q 302.11695 79.0641 298.88055 79.0641 
L 261.66195 79.0641 
Q 258.42555 79.0641 258.42555 80.94906 
L 258.42555 96.02874 
Q 258.42555 97.9137 261.66195 97.9137 
z
" clip-path="url(#pce0b14212d)" style="fill: #ffffff; stroke: #2f8f87; stroke-width: 0.9; stroke-linejoin: miter"/>
   </g>
   <g id="patch_56">
    <path d="M 282.294 128.30868 
C 284.86891 128.30868 287.338705 127.712846 289.159441 126.652404 
C 290.980177 125.591962 292.0032 124.153492 292.0032 122.6538 
C 292.0032 121.154108 290.980177 119.715638 289.159441 118.655196 
C 287.338705 117.594754 284.86891 116.99892 282.294 116.99892 
C 279.71909 116.99892 277.249295 117.594754 275.428559 118.655196 
C 273.607823 119.715638 272.5848 121.154108 272.5848 122.6538 
C 272.5848 124.153492 273.607823 125.591962 275.428559 126.652404 
C 277.249295 127.712846 279.71909 128.30868 282.294 128.30868 
z
" clip-path="url(#pce0b14212d)" style="fill: #ffffff; stroke: #2f8f87; stroke-width: 0.9; stroke-linejoin: miter"/>
   </g>
   <g id="patch_57">
    <path d="M 293.6214 126.800712 
C 297.054613 126.800712 300.347673 126.006267 302.775322 124.592344 
C 305.20297 123.178421 306.567 121.260461 306.567 119.260872 
C 306.567 117.261283 305.20297 115.343323 302.775322 113.9294 
C 300.347673 112.515477 297.054613 111.721032 293.6214 111.721032 
C 290.188187 111.721032 286.895127 112.515477 284.467478 113.9294 
C 282.03983 115.343323 280.6758 117.261283 280.6758 119.260872 
C 280.6758 121.260461 282.03983 123.178421 284.467478 124.592344 
C 286.895127 126.006267 290.188187 126.800712 293.6214 126.800712 
z
" clip-path="url(#pce0b14212d)" style="fill: #ffffff; stroke: #2f8f87; stroke-width: 0.9; stroke-linejoin: miter"/>
   </g>
   <g id="patch_58">
    <path d="M 307.21428 129.062664 
C 310.132511 129.062664 312.931612 128.387386 314.995113 127.185551 
C 317.058614 125.983717 318.21804 124.353451 318.21804 122.6538 
C 318.21804 120.954149 317.058614 119.323883 314.995113 118.122049 
C 312.931612 116.920214 310.132511 116.244936 307.21428 116.244936 
C 304.296049 116.244936 301.496948 116.920214 299.433447 118.122049 
C 297.369946 119.323883 296.21052 120.954149 296.21052 122.6538 
C 296.21052 124.353451 297.369946 125.983717 299.433447 127.185551 
C 301.496948 128.387386 304.296049 129.062664 307.21428 129.062664 
z
" clip-path="url(#pce0b14212d)" style="fill: #ffffff; stroke: #2f8f87; stroke-width: 0.9; stroke-linejoin: miter"/>
   </g>
   <g id="patch_59">
    <path d="M 272.90844 128.30868 
L 314.98164 128.30868 
L 314.98164 121.71132 
L 272.90844 121.71132 
z
" clip-path="url(#pce0b14212d)" style="fill: #ffffff; stroke: #2f8f87; stroke-width: 0.9; stroke-linejoin: miter"/>
   </g>
   <g id="patch_60">
    <path d="M 270.1575 167.4216 
L 287.9577 167.4216 
Q 292.0032 167.4216 292.0032 165.0654 
L 292.0032 150.9282 
Q 292.0032 148.572 287.9577 148.572 
L 270.1575 148.572 
Q 266.112 148.572 266.112 150.9282 
L 266.112 165.0654 
Q 266.112 167.4216 270.1575 167.4216 
z
" clip-path="url(#pce0b14212d)" style="fill: #ffffff; stroke: #2f8f87; stroke-linejoin: miter"/>
   </g>
   <g id="patch_61">
    <path d="M 279.0576 164.782656 
C 279.572582 164.782656 280.066541 164.663489 280.430688 164.451401 
C 280.794835 164.239312 280.99944 163.951618 280.99944 163.65168 
C 280.99944 163.351742 280.794835 163.064048 280.430688 162.851959 
C 280.066541 162.639871 279.572582 162.520704 279.0576 162.520704 
C 278.542618 162.520704 278.048659 162.639871 277.684512 162.851959 
C 277.320365 163.064048 277.11576 163.351742 277.11576 163.65168 
C 277.11576 163.951618 277.320365 164.239312 277.684512 164.451401 
C 278.048659 164.663489 278.542618 164.782656 279.0576 164.782656 
z
" clip-path="url(#pce0b14212d)" style="fill: #2f8f87"/>
   </g>
   <g id="patch_62">
    <path d="M 266.9211 181.08756 
L 307.78065 181.08756 
Q 311.82615 181.08756 311.82615 178.73136 
L 311.82615 170.72028 
Q 311.82615 168.36408 307.78065 168.36408 
L 266.9211 168.36408 
Q 262.8756 168.36408 262.8756 170.72028 
L 262.8756 178.73136 
Q 262.8756 181.08756 266.9211 181.08756 
z
" clip-path="url(#pce0b14212d)" style="fill: #ffffff; stroke: #2f8f87; stroke-width: 0.9; stroke-linejoin: miter"/>
   </g>
   <g id="patch_63">
    <path d="M 266.112 179.2026 
L 278.855325 179.2026 
L 278.855325 170.24904 
L 266.112 170.24904 
z
" clip-path="url(#pce0b14212d)" style="fill: #2f8f87; opacity: 0.18"/>
   </g>
   <g id="patch_64">
    <path d="M 258.8301 132.78546 
L 291.59865 132.78546 
Q 307.78065 132.78546 307.78065 123.36066 
L 307.78065 107.80974 
Q 307.78065 98.38494 291.59865 98.38494 
L 258.8301 98.38494 
Q 242.6481 98.38494 242.6481 107.80974 
L 242.6481 123.36066 
Q 242.6481 132.78546 258.8301 132.78546 
z
" clip-path="url(#pce0b14212d)" style="fill: #f4fffc; stroke: #2f8f87; stroke-width: 1.1; stroke-linejoin: miter"/>
   </g>
   <g id="patch_65">
    <path d="M 285.024713 112.227615 
C 285.024713 110.684696 284.011746 109.203393 282.210576 108.112385 
C 280.409406 107.021377 277.963889 106.407801 275.41665 106.407801 
C 272.869411 106.407801 270.423894 107.021377 268.622724 108.112385 
C 266.821554 109.203393 265.808587 110.684696 265.808587 112.227615 
" clip-path="url(#pce0b14212d)" style="fill: none; stroke: #2f8f87; stroke-linejoin: miter"/>
   </g>
   <g id="patch_66">
    <path d="M 263.502653 122.076531 
L 287.330647 122.076531 
L 287.330647 111.332259 
L 263.502653 111.332259 
z
" clip-path="url(#pce0b14212d)" style="fill: #ffffff; stroke: #2f8f87; stroke-linejoin: miter"/>
   </g>
   <g id="patch_67">
    <path d="M 275.41665 118.047429 
C 276.028191 118.047429 276.614767 117.905918 277.047192 117.654063 
C 277.479617 117.402208 277.722585 117.060572 277.722585 116.704395 
C 277.722585 116.348218 277.479617 116.006582 277.047192 115.754727 
C 276.614767 115.502872 276.028191 115.361361 275.41665 115.361361 
C 274.805109 115.361361 274.218533 115.502872 273.786108 115.754727 
C 273.353683 116.006582 273.110715 116.348218 273.110715 116.704395 
C 273.110715 117.060572 273.353683 117.402208 273.786108 117.654063 
C 274.218533 117.905918 274.805109 118.047429 275.41665 118.047429 
z
" clip-path="url(#pce0b14212d)" style="fill: #2f8f87"/>
   </g>
   <g id="patch_68">
    <path d="M 255.99825 126.1881 
L 265.70745 126.1881 
L 265.70745 118.17702 
L 255.99825 118.17702 
z
" clip-path="url(#pce0b14212d)" style="fill: #ddecf8; stroke: #2f8f87; stroke-width: 0.6; stroke-linejoin: miter"/>
   </g>
   <g id="patch_69">
    <path d="M 268.5393 126.1881 
L 278.2485 126.1881 
L 278.2485 118.17702 
L 268.5393 118.17702 
z
" clip-path="url(#pce0b14212d)" style="fill: #ffffff; stroke: #2f8f87; stroke-width: 0.6; stroke-linejoin: miter"/>
   </g>
   <g id="patch_70">
    <path d="M 281.08035 126.1881 
L 290.78955 126.1881 
L 290.78955 118.17702 
L 281.08035 118.17702 
z
" clip-path="url(#pce0b14212d)" style="fill: #ddecf8; stroke: #2f8f87; stroke-width: 0.6; stroke-linejoin: miter"/>
   </g>
   <g id="patch_71">
    <path d="M 293.6214 126.1881 
L 303.3306 126.1881 
L 303.3306 118.17702 
L 293.6214 118.17702 
z
" clip-path="url(#pce0b14212d)" style="fill: #ffffff; stroke: #2f8f87; stroke-width: 0.6; stroke-linejoin: miter"/>
   </g>
   <g id="patch_72">
    <path d="M 306.16245 126.1881 
L 315.87165 126.1881 
L 315.87165 118.17702 
L 306.16245 118.17702 
z
" clip-path="url(#pce0b14212d)" style="fill: #ddecf8; stroke: #2f8f87; stroke-width: 0.6; stroke-linejoin: miter"/>
   </g>
   <g id="patch_73">
    <path d="M 240.814785 115.5852 
Q 242.852078 115.5852 243.54773 115.5852 
" clip-path="url(#pce0b14212d)" style="fill: none; stroke: #2f8f87; stroke-width: 1.2; stroke-linecap: round"/>
    <path d="M 239.94773 113.7852 
L 243.54773 115.5852 
L 239.94773 117.3852 
z
" clip-path="url(#pce0b14212d)" style="fill: #2f8f87; stroke: #2f8f87; stroke-width: 1.2; stroke-linecap: round"/>
   </g>
   <g id="patch_74">
    <path d="M 305.272273 114.899847 
Q 313.982026 106.556071 317.985612 96.251199 
" clip-path="url(#pce0b14212d)" style="fill: none; stroke: #2f8f87; stroke-width: 0.9; stroke-linecap: round"/>
    <path d="M 315.666641 98.354143 
L 317.985612 96.251199 
L 318.276585 99.368142 
z
" clip-path="url(#pce0b14212d)" style="fill: #2f8f87; stroke: #2f8f87; stroke-width: 0.9; stroke-linecap: round"/>
   </g>
   <g id="patch_75">
    <path d="M 305.320519 116.218745 
Q 310.874909 120.62243 316.759421 122.160312 
" clip-path="url(#pce0b14212d)" style="fill: none; stroke: #2f8f87; stroke-width: 0.9; stroke-linecap: round"/>
    <path d="M 314.404399 120.09782 
L 316.759421 122.160312 
L 313.696415 122.806834 
z
" clip-path="url(#pce0b14212d)" style="fill: #2f8f87; stroke: #2f8f87; stroke-width: 0.9; stroke-linecap: round"/>
   </g>
   <g id="patch_76">
    <path d="M 304.673417 116.579035 
Q 307.314038 136.05461 317.592993 151.613463 
" clip-path="url(#pce0b14212d)" style="fill: none; stroke: #2f8f87; stroke-width: 0.9; stroke-linecap: round"/>
    <path d="M 317.217681 148.505547 
L 317.592993 151.613463 
L 314.881473 150.048963 
z
" clip-path="url(#pce0b14212d)" style="fill: #2f8f87; stroke: #2f8f87; stroke-width: 0.9; stroke-linecap: round"/>
   </g>
   <g id="patch_77">
    <path d="M 109.1466 225.85536 
L 241.0299 225.85536 
Q 251.14365 225.85536 251.14365 219.96486 
L 251.14365 183.20814 
Q 251.14365 177.31764 241.0299 177.31764 
L 109.1466 177.31764 
Q 99.03285 177.31764 99.03285 183.20814 
L 99.03285 219.96486 
Q 99.03285 225.85536 109.1466 225.85536 
z
" clip-path="url(#pce0b14212d)" style="fill: #fbe3e1; stroke: #b94747; stroke-width: 0.9; stroke-linejoin: miter"/>
   </g>
   <g id="patch_78">
    <path d="M 113.59665 201.82212 
L 145.5561 201.82212 
Q 152.0289 201.82212 152.0289 198.0522 
L 152.0289 191.45484 
Q 152.0289 187.68492 145.5561 187.68492 
L 113.59665 187.68492 
Q 107.12385 187.68492 107.12385 191.45484 
L 107.12385 198.0522 
Q 107.12385 201.82212 113.59665 201.82212 
z
" clip-path="url(#pce0b14212d)" style="fill: #ffffff; stroke: #e6aaaa; stroke-width: 0.8; stroke-linejoin: miter"/>
   </g>
   <g id="patch_79">
    <path d="M 157.28805 201.82212 
L 189.2475 201.82212 
Q 195.7203 201.82212 195.7203 198.0522 
L 195.7203 191.45484 
Q 195.7203 187.68492 189.2475 187.68492 
L 157.28805 187.68492 
Q 150.81525 187.68492 150.81525 191.45484 
L 150.81525 198.0522 
Q 150.81525 201.82212 157.28805 201.82212 
z
" clip-path="url(#pce0b14212d)" style="fill: #ffffff; stroke: #e6aaaa; stroke-width: 0.8; stroke-linejoin: miter"/>
   </g>
   <g id="patch_80">
    <path d="M 113.59665 212.1894 
L 145.5561 212.1894 
Q 152.0289 212.1894 152.0289 208.41948 
L 152.0289 201.82212 
Q 152.0289 198.0522 145.5561 198.0522 
L 113.59665 198.0522 
Q 107.12385 198.0522 107.12385 201.82212 
L 107.12385 208.41948 
Q 107.12385 212.1894 113.59665 212.1894 
z
" clip-path="url(#pce0b14212d)" style="fill: #ffffff; stroke: #e6aaaa; stroke-width: 0.8; stroke-linejoin: miter"/>
   </g>
   <g id="patch_81">
    <path d="M 157.28805 212.1894 
L 189.2475 212.1894 
Q 195.7203 212.1894 195.7203 208.41948 
L 195.7203 201.82212 
Q 195.7203 198.0522 189.2475 198.0522 
L 157.28805 198.0522 
Q 150.81525 198.0522 150.81525 201.82212 
L 150.81525 208.41948 
Q 150.81525 212.1894 157.28805 212.1894 
z
" clip-path="url(#pce0b14212d)" style="fill: #ffffff; stroke: #e6aaaa; stroke-width: 0.8; stroke-linejoin: miter"/>
   </g>
   <g id="patch_82">
    <path d="M 113.59665 222.55668 
L 145.5561 222.55668 
Q 152.0289 222.55668 152.0289 218.78676 
L 152.0289 212.1894 
Q 152.0289 208.41948 145.5561 208.41948 
L 113.59665 208.41948 
Q 107.12385 208.41948 107.12385 212.1894 
L 107.12385 218.78676 
Q 107.12385 222.55668 113.59665 222.55668 
z
" clip-path="url(#pce0b14212d)" style="fill: #ffffff; stroke: #e6aaaa; stroke-width: 0.8; stroke-linejoin: miter"/>
   </g>
   <g id="patch_83">
    <path d="M 157.28805 222.55668 
L 189.2475 222.55668 
Q 195.7203 222.55668 195.7203 218.78676 
L 195.7203 212.1894 
Q 195.7203 208.41948 189.2475 208.41948 
L 157.28805 208.41948 
Q 150.81525 208.41948 150.81525 212.1894 
L 150.81525 218.78676 
Q 150.81525 222.55668 157.28805 222.55668 
z
" clip-path="url(#pce0b14212d)" style="fill: #ffffff; stroke: #e6aaaa; stroke-width: 0.8; stroke-linejoin: miter"/>
   </g>
   <g id="patch_84">
    <path d="M 244.2663 186.365448 
C 244.2663 185.326008 243.583881 184.328078 242.370461 183.593083 
C 241.157041 182.858088 239.509535 182.444731 237.7935 182.444731 
C 236.077465 182.444731 234.429959 182.858088 233.216539 183.593083 
C 232.003119 184.328078 231.3207 185.326008 231.3207 186.365448 
" clip-path="url(#pce0b14212d)" style="fill: none; stroke: #b94747; stroke-linejoin: miter"/>
   </g>
   <g id="patch_85">
    <path d="M 229.767228 193.000507 
L 245.819772 193.000507 
L 245.819772 185.762261 
L 229.767228 185.762261 
z
" clip-path="url(#pce0b14212d)" style="fill: #ffffff; stroke: #b94747; stroke-linejoin: miter"/>
   </g>
   <g id="patch_86">
    <path d="M 237.7935 190.286165 
C 238.205486 190.286165 238.600653 190.190831 238.891971 190.021161 
C 239.183288 189.85149 239.346972 189.621335 239.346972 189.381384 
C 239.346972 189.141433 239.183288 188.911278 238.891971 188.741607 
C 238.600653 188.571937 238.205486 188.476603 237.7935 188.476603 
C 237.381514 188.476603 236.986347 188.571937 236.695029 188.741607 
C 236.403712 188.911278 236.240028 189.141433 236.240028 189.381384 
C 236.240028 189.621335 236.403712 189.85149 236.695029 190.021161 
C 236.986347 190.190831 237.381514 190.286165 237.7935 190.286165 
z
" clip-path="url(#pce0b14212d)" style="fill: #b94747"/>
   </g>
   <g id="patch_87">
    <path d="M 339.7401 201.11526 
L 388.69065 201.11526 
Q 400.82715 201.11526 400.82715 194.04666 
L 400.82715 58.32954 
Q 400.82715 51.26094 388.69065 51.26094 
L 339.7401 51.26094 
Q 327.6036 51.26094 327.6036 58.32954 
L 327.6036 194.04666 
Q 327.6036 201.11526 339.7401 201.11526 
z
" clip-path="url(#pce0b14212d)" style="fill: #f0fbf8; stroke: #2f8f87; stroke-width: 1.2; stroke-linejoin: miter"/>
   </g>
   <g id="patch_88">
    <path d="M 340.95375 92.0232 
L 348.23565 92.0232 
L 348.23565 86.83956 
L 340.95375 86.83956 
z
" clip-path="url(#pce0b14212d)" style="fill: #ffffff; stroke: #2f8f87; stroke-width: 0.65; stroke-linejoin: miter"/>
   </g>
   <g id="patch_89">
    <path d="M 348.23565 92.0232 
L 355.51755 92.0232 
L 355.51755 83.06964 
L 348.23565 83.06964 
z
" clip-path="url(#pce0b14212d)" style="fill: #ddecf8; stroke: #2f8f87; stroke-width: 0.65; stroke-linejoin: miter"/>
   </g>
   <g id="patch_90">
    <path d="M 355.51755 92.0232 
L 362.79945 92.0232 
L 362.79945 85.42584 
L 355.51755 85.42584 
z
" clip-path="url(#pce0b14212d)" style="fill: #ffffff; stroke: #2f8f87; stroke-width: 0.65; stroke-linejoin: miter"/>
   </g>
   <g id="patch_91">
    <path d="M 362.79945 92.0232 
L 370.08135 92.0232 
L 370.08135 80.2422 
L 362.79945 80.2422 
z
" clip-path="url(#pce0b14212d)" style="fill: #ddecf8; stroke: #2f8f87; stroke-width: 0.65; stroke-linejoin: miter"/>
   </g>
   <g id="patch_92">
    <path d="M 370.08135 92.0232 
L 377.36325 92.0232 
L 377.36325 85.89708 
L 370.08135 85.89708 
z
" clip-path="url(#pce0b14212d)" style="fill: #ffffff; stroke: #2f8f87; stroke-width: 0.65; stroke-linejoin: miter"/>
   </g>
   <g id="patch_93">
    <path d="M 377.36325 92.0232 
L 384.64515 92.0232 
L 384.64515 81.89154 
L 377.36325 81.89154 
z
" clip-path="url(#pce0b14212d)" style="fill: #ddecf8; stroke: #2f8f87; stroke-width: 0.65; stroke-linejoin: miter"/>
   </g>
   <g id="patch_94">
    <path d="M 384.64515 92.0232 
L 391.92705 92.0232 
L 391.92705 84.48336 
L 384.64515 84.48336 
z
" clip-path="url(#pce0b14212d)" style="fill: #ffffff; stroke: #2f8f87; stroke-width: 0.65; stroke-linejoin: miter"/>
   </g>
   <g id="patch_95">
    <path d="M 342.1674 111.57966 
L 360.7767 111.57966 
Q 367.2495 111.57966 367.2495 107.80974 
L 367.2495 101.21238 
Q 367.2495 97.44246 360.7767 97.44246 
L 342.1674 97.44246 
Q 335.6946 97.44246 335.6946 101.21238 
L 335.6946 107.80974 
Q 335.6946 111.57966 342.1674 111.57966 
z
" clip-path="url(#pce0b14212d)" style="fill: #ffffff; stroke: #a7d8cc; stroke-width: 0.8; stroke-linejoin: miter"/>
   </g>
   <g id="patch_96">
    <path d="M 370.4859 111.57966 
L 389.0952 111.57966 
Q 395.568 111.57966 395.568 107.80974 
L 395.568 101.21238 
Q 395.568 97.44246 389.0952 97.44246 
L 370.4859 97.44246 
Q 364.0131 97.44246 364.0131 101.21238 
L 364.0131 107.80974 
Q 364.0131 111.57966 370.4859 111.57966 
z
" clip-path="url(#pce0b14212d)" style="fill: #ffffff; stroke: #a7d8cc; stroke-width: 0.8; stroke-linejoin: miter"/>
   </g>
   <g id="patch_97">
    <path d="M 342.1674 124.06752 
L 360.7767 124.06752 
Q 367.2495 124.06752 367.2495 120.2976 
L 367.2495 113.70024 
Q 367.2495 109.93032 360.7767 109.93032 
L 342.1674 109.93032 
Q 335.6946 109.93032 335.6946 113.70024 
L 335.6946 120.2976 
Q 335.6946 124.06752 342.1674 124.06752 
z
" clip-path="url(#pce0b14212d)" style="fill: #ffffff; stroke: #a7d8cc; stroke-width: 0.8; stroke-linejoin: miter"/>
   </g>
   <g id="patch_98">
    <path d="M 370.4859 124.06752 
L 389.0952 124.06752 
Q 395.568 124.06752 395.568 120.2976 
L 395.568 113.70024 
Q 395.568 109.93032 389.0952 109.93032 
L 370.4859 109.93032 
Q 364.0131 109.93032 364.0131 113.70024 
L 364.0131 120.2976 
Q 364.0131 124.06752 370.4859 124.06752 
z
" clip-path="url(#pce0b14212d)" style="fill: #ffffff; stroke: #a7d8cc; stroke-width: 0.8; stroke-linejoin: miter"/>
   </g>
   <g id="patch_99">
    <path d="M 342.1674 136.55538 
L 360.7767 136.55538 
Q 367.2495 136.55538 367.2495 132.78546 
L 367.2495 126.1881 
Q 367.2495 122.41818 360.7767 122.41818 
L 342.1674 122.41818 
Q 335.6946 122.41818 335.6946 126.1881 
L 335.6946 132.78546 
Q 335.6946 136.55538 342.1674 136.55538 
z
" clip-path="url(#pce0b14212d)" style="fill: #ffffff; stroke: #a7d8cc; stroke-width: 0.8; stroke-linejoin: miter"/>
   </g>
   <g id="patch_100">
    <path d="M 370.4859 136.55538 
L 389.0952 136.55538 
Q 395.568 136.55538 395.568 132.78546 
L 395.568 126.1881 
Q 395.568 122.41818 389.0952 122.41818 
L 370.4859 122.41818 
Q 364.0131 122.41818 364.0131 126.1881 
L 364.0131 132.78546 
Q 364.0131 136.55538 370.4859 136.55538 
z
" clip-path="url(#pce0b14212d)" style="fill: #ffffff; stroke: #a7d8cc; stroke-width: 0.8; stroke-linejoin: miter"/>
   </g>
   <g id="patch_101">
    <path d="M 342.1674 149.04324 
L 360.7767 149.04324 
Q 367.2495 149.04324 367.2495 145.27332 
L 367.2495 138.67596 
Q 367.2495 134.90604 360.7767 134.90604 
L 342.1674 134.90604 
Q 335.6946 134.90604 335.6946 138.67596 
L 335.6946 145.27332 
Q 335.6946 149.04324 342.1674 149.04324 
z
" clip-path="url(#pce0b14212d)" style="fill: #ffffff; stroke: #a7d8cc; stroke-width: 0.8; stroke-linejoin: miter"/>
   </g>
   <g id="patch_102">
    <path d="M 370.4859 149.04324 
L 394.7589 149.04324 
Q 401.2317 149.04324 401.2317 145.27332 
L 401.2317 138.67596 
Q 401.2317 134.90604 394.7589 134.90604 
L 370.4859 134.90604 
Q 364.0131 134.90604 364.0131 138.67596 
L 364.0131 145.27332 
Q 364.0131 149.04324 370.4859 149.04324 
z
" clip-path="url(#pce0b14212d)" style="fill: #ffffff; stroke: #a7d8cc; stroke-width: 0.8; stroke-linejoin: miter"/>
   </g>
   <g id="patch_103">
    <path d="M 319.702035 115.5852 
Q 324.772039 115.5852 328.500402 115.5852 
" clip-path="url(#pce0b14212d)" style="fill: none; stroke: #2f8f87; stroke-width: 1.2; stroke-linecap: round"/>
    <path d="M 324.900402 113.7852 
L 328.500402 115.5852 
L 324.900402 117.3852 
z
" clip-path="url(#pce0b14212d)" style="fill: #2f8f87; stroke: #2f8f87; stroke-width: 1.2; stroke-linecap: round"/>
   </g>
   <g id="patch_104">
    <path d="M 342.57195 190.51236 
L 385.8588 190.51236 
Q 394.7589 190.51236 394.7589 185.32872 
L 394.7589 170.72028 
Q 394.7589 165.53664 385.8588 165.53664 
L 342.57195 165.53664 
Q 333.67185 165.53664 333.67185 170.72028 
L 333.67185 185.32872 
Q 333.67185 190.51236 342.57195 190.51236 
z
" clip-path="url(#pce0b14212d)" style="fill: #ece8f7; stroke: #6d5aa8; stroke-linejoin: miter"/>
   </g>
   <g id="patch_105">
    <path d="M 346.2129 169.601085 
L 358.450537 173.488815 
L 356.00301 181.91223 
L 346.2129 187.355052 
L 336.42279 181.91223 
L 333.975262 173.488815 
z
" clip-path="url(#pce0b14212d)" style="fill: #ece8f7; stroke: #6d5aa8; stroke-width: 1.1; stroke-linejoin: miter"/>
   </g>
   <g id="patch_106">
    <path d="M 395.770573 174.16315 
C 394.756594 171.959125 392.521108 170.01054 389.412975 168.621484 
C 386.304843 167.232427 382.494615 166.47912 378.5769 166.47912 
C 374.659185 166.47912 370.848957 167.232427 367.740825 168.621484 
C 364.632692 170.01054 362.397206 171.959125 361.383227 174.16315 
" clip-path="url(#pce0b14212d)" style="fill: none; stroke: #6d5aa8; stroke-linejoin: miter"/>
   </g>
   <g id="line2d_13">
    <path d="M 33.0912 88.72452 
L 39.564 84.24774 
L 46.0368 88.72452 
" clip-path="url(#pce0b14212d)" style="fill: none; stroke: #2469a6; stroke-linecap: square"/>
   </g>
   <g id="line2d_14">
    <path d="M 30.461625 85.42584 
L 25.40475 83.06964 
" clip-path="url(#pce0b14212d)" style="fill: none; stroke: #2469a6; stroke-opacity: 0.8; stroke-width: 0.7; stroke-linecap: square"/>
   </g>
   <g id="line2d_15">
    <path d="M 48.666375 85.42584 
L 53.72325 83.06964 
" clip-path="url(#pce0b14212d)" style="fill: none; stroke: #2469a6; stroke-opacity: 0.8; stroke-width: 0.7; stroke-linecap: square"/>
   </g>
   <g id="line2d_16">
    <path d="M 30.461625 93.90816 
L 25.40475 96.26436 
" clip-path="url(#pce0b14212d)" style="fill: none; stroke: #2469a6; stroke-opacity: 0.8; stroke-width: 0.7; stroke-linecap: square"/>
   </g>
   <g id="line2d_17">
    <path d="M 48.666375 93.90816 
L 53.72325 96.26436 
" clip-path="url(#pce0b14212d)" style="fill: none; stroke: #2469a6; stroke-opacity: 0.8; stroke-width: 0.7; stroke-linecap: square"/>
   </g>
   <g id="line2d_18">
    <path d="M 60.802875 85.42584 
L 55.746 83.06964 
" clip-path="url(#pce0b14212d)" style="fill: none; stroke: #2f8f87; stroke-opacity: 0.8; stroke-width: 0.7; stroke-linecap: square"/>
   </g>
   <g id="line2d_19">
    <path d="M 79.007625 85.42584 
L 84.0645 83.06964 
" clip-path="url(#pce0b14212d)" style="fill: none; stroke: #2f8f87; stroke-opacity: 0.8; stroke-width: 0.7; stroke-linecap: square"/>
   </g>
   <g id="line2d_20">
    <path d="M 60.802875 93.90816 
L 55.746 96.26436 
" clip-path="url(#pce0b14212d)" style="fill: none; stroke: #2f8f87; stroke-opacity: 0.8; stroke-width: 0.7; stroke-linecap: square"/>
   </g>
   <g id="line2d_21">
    <path d="M 79.007625 93.90816 
L 84.0645 96.26436 
" clip-path="url(#pce0b14212d)" style="fill: none; stroke: #2f8f87; stroke-opacity: 0.8; stroke-width: 0.7; stroke-linecap: square"/>
   </g>
   <g id="line2d_22">
    <path d="M 32.2821 122.41818 
L 46.8459 122.41818 
" clip-path="url(#pce0b14212d)" style="fill: none; stroke: #6d5aa8; stroke-linecap: square"/>
   </g>
   <g id="line2d_23">
    <path d="M 34.7094 119.1195 
L 44.4186 119.1195 
" clip-path="url(#pce0b14212d)" style="fill: none; stroke: #6d5aa8; stroke-linecap: square"/>
   </g>
   <g id="line2d_24">
    <path d="M 30.461625 119.59074 
L 25.40475 117.23454 
" clip-path="url(#pce0b14212d)" style="fill: none; stroke: #6d5aa8; stroke-opacity: 0.8; stroke-width: 0.7; stroke-linecap: square"/>
   </g>
   <g id="line2d_25">
    <path d="M 48.666375 119.59074 
L 53.72325 117.23454 
" clip-path="url(#pce0b14212d)" style="fill: none; stroke: #6d5aa8; stroke-opacity: 0.8; stroke-width: 0.7; stroke-linecap: square"/>
   </g>
   <g id="line2d_26">
    <path d="M 30.461625 128.07306 
L 25.40475 130.42926 
" clip-path="url(#pce0b14212d)" style="fill: none; stroke: #6d5aa8; stroke-opacity: 0.8; stroke-width: 0.7; stroke-linecap: square"/>
   </g>
   <g id="line2d_27">
    <path d="M 48.666375 128.07306 
L 53.72325 130.42926 
" clip-path="url(#pce0b14212d)" style="fill: none; stroke: #6d5aa8; stroke-opacity: 0.8; stroke-width: 0.7; stroke-linecap: square"/>
   </g>
   <g id="line2d_28">
    <path d="M 63.43245 122.88942 
L 69.90525 118.41264 
L 76.37805 122.88942 
" clip-path="url(#pce0b14212d)" style="fill: none; stroke: #d88922; stroke-linecap: square"/>
   </g>
   <g id="line2d_29">
    <path d="M 60.802875 119.59074 
L 55.746 117.23454 
" clip-path="url(#pce0b14212d)" style="fill: none; stroke: #d88922; stroke-opacity: 0.8; stroke-width: 0.7; stroke-linecap: square"/>
   </g>
   <g id="line2d_30">
    <path d="M 79.007625 119.59074 
L 84.0645 117.23454 
" clip-path="url(#pce0b14212d)" style="fill: none; stroke: #d88922; stroke-opacity: 0.8; stroke-width: 0.7; stroke-linecap: square"/>
   </g>
   <g id="line2d_31">
    <path d="M 60.802875 128.07306 
L 55.746 130.42926 
" clip-path="url(#pce0b14212d)" style="fill: none; stroke: #d88922; stroke-opacity: 0.8; stroke-width: 0.7; stroke-linecap: square"/>
   </g>
   <g id="line2d_32">
    <path d="M 79.007625 128.07306 
L 84.0645 130.42926 
" clip-path="url(#pce0b14212d)" style="fill: none; stroke: #d88922; stroke-opacity: 0.8; stroke-width: 0.7; stroke-linecap: square"/>
   </g>
   <g id="line2d_33">
    <path d="M 45.834525 153.75564 
L 40.77765 151.39944 
" clip-path="url(#pce0b14212d)" style="fill: none; stroke: #143b63; stroke-opacity: 0.8; stroke-width: 0.7; stroke-linecap: square"/>
   </g>
   <g id="line2d_34">
    <path d="M 64.039275 153.75564 
L 69.09615 151.39944 
" clip-path="url(#pce0b14212d)" style="fill: none; stroke: #143b63; stroke-opacity: 0.8; stroke-width: 0.7; stroke-linecap: square"/>
   </g>
   <g id="line2d_35">
    <path d="M 45.834525 162.23796 
L 40.77765 164.59416 
" clip-path="url(#pce0b14212d)" style="fill: none; stroke: #143b63; stroke-opacity: 0.8; stroke-width: 0.7; stroke-linecap: square"/>
   </g>
   <g id="line2d_36">
    <path d="M 64.039275 162.23796 
L 69.09615 164.59416 
" clip-path="url(#pce0b14212d)" style="fill: none; stroke: #143b63; stroke-opacity: 0.8; stroke-width: 0.7; stroke-linecap: square"/>
   </g>
   <g id="line2d_37">
    <path d="M 268.13475 89.43138 
L 276.22575 85.66146 
L 284.31675 90.8451 
L 292.40775 84.24774 
" clip-path="url(#pce0b14212d)" style="fill: none; stroke: #2f8f87; stroke-linecap: square"/>
   </g>
   <g id="line2d_38">
    <path d="M 272.18025 99.0918 
L 288.36225 99.0918 
" clip-path="url(#pce0b14212d)" style="fill: none; stroke: #2f8f87; stroke-width: 0.8; stroke-linecap: square"/>
   </g>
   <g id="line2d_39">
    <path d="M 271.7757 156.58308 
L 286.3395 156.58308 
" clip-path="url(#pce0b14212d)" style="fill: none; stroke: #2f8f87; stroke-linecap: square"/>
   </g>
   <g id="line2d_40">
    <path d="M 274.203 153.2844 
L 283.9122 153.2844 
" clip-path="url(#pce0b14212d)" style="fill: none; stroke: #2f8f87; stroke-linecap: square"/>
   </g>
   <g id="line2d_41">
    <path d="M 269.955225 153.75564 
L 264.89835 151.39944 
" clip-path="url(#pce0b14212d)" style="fill: none; stroke: #2f8f87; stroke-opacity: 0.8; stroke-width: 0.7; stroke-linecap: square"/>
   </g>
   <g id="line2d_42">
    <path d="M 288.159975 153.75564 
L 293.21685 151.39944 
" clip-path="url(#pce0b14212d)" style="fill: none; stroke: #2f8f87; stroke-opacity: 0.8; stroke-width: 0.7; stroke-linecap: square"/>
   </g>
   <g id="line2d_43">
    <path d="M 269.955225 162.23796 
L 264.89835 164.59416 
" clip-path="url(#pce0b14212d)" style="fill: none; stroke: #2f8f87; stroke-opacity: 0.8; stroke-width: 0.7; stroke-linecap: square"/>
   </g>
   <g id="line2d_44">
    <path d="M 288.159975 162.23796 
L 293.21685 164.59416 
" clip-path="url(#pce0b14212d)" style="fill: none; stroke: #2f8f87; stroke-opacity: 0.8; stroke-width: 0.7; stroke-linecap: square"/>
   </g>
   <g id="line2d_45">
    <path d="M 209.475 215.7237 
L 209.475 206.2989 
" clip-path="url(#pce0b14212d)" style="fill: none; stroke: #b94747; stroke-width: 0.8; stroke-linecap: square"/>
   </g>
   <g id="line2d_46">
    <path d="M 209.475 208.18386 
L 216.35235 208.18386 
" clip-path="url(#pce0b14212d)" style="fill: none; stroke: #b94747; stroke-width: 0.75; stroke-linecap: square"/>
   </g>
   <g id="line2d_47">
    <path d="M 209.475 212.42502 
L 216.35235 212.42502 
" clip-path="url(#pce0b14212d)" style="fill: none; stroke: #b94747; stroke-width: 0.75; stroke-linecap: square"/>
   </g>
   <g id="line2d_48">
    <path d="M 209.475 216.66618 
L 216.35235 216.66618 
" clip-path="url(#pce0b14212d)" style="fill: none; stroke: #b94747; stroke-width: 0.75; stroke-linecap: square"/>
   </g>
   <g id="line2d_49">
    <path d="M 351.8766 93.90816 
L 351.8766 97.44246 
" clip-path="url(#pce0b14212d)" style="fill: none; stroke: #5a6b76; stroke-width: 0.5; stroke-linecap: square"/>
   </g>
   <g id="line2d_50">
    <path d="M 373.7223 93.90816 
L 373.7223 97.44246 
" clip-path="url(#pce0b14212d)" style="fill: none; stroke: #5a6b76; stroke-width: 0.5; stroke-linecap: square"/>
   </g>
   <g id="line2d_51">
    <path d="M 388.2861 93.90816 
L 388.2861 97.44246 
" clip-path="url(#pce0b14212d)" style="fill: none; stroke: #5a6b76; stroke-width: 0.5; stroke-linecap: square"/>
   </g>
   <g id="line2d_52">
    <path d="M 341.317845 178.0245 
L 345.767895 180.875502 
L 352.887975 174.525543 
" clip-path="url(#pce0b14212d)" style="fill: none; stroke: #6d5aa8; stroke-linecap: square"/>
   </g>
   <g id="line2d_53">
    <path d="M 391.079556 173.450814 
L 393.499425 172.793603 
" clip-path="url(#pce0b14212d)" style="fill: none; stroke: #6d5aa8; stroke-width: 0.7; stroke-linecap: square"/>
   </g>
   <g id="line2d_54">
    <path d="M 385.474478 169.888196 
L 386.809493 168.541447 
" clip-path="url(#pce0b14212d)" style="fill: none; stroke: #6d5aa8; stroke-width: 0.7; stroke-linecap: square"/>
   </g>
   <g id="line2d_55">
    <path d="M 377.374573 168.842332 
L 377.141865 167.293158 
" clip-path="url(#pce0b14212d)" style="fill: none; stroke: #6d5aa8; stroke-width: 0.7; stroke-linecap: square"/>
   </g>
   <g id="line2d_56">
    <path d="M 369.709545 170.691507 
L 367.993283 169.500238 
" clip-path="url(#pce0b14212d)" style="fill: none; stroke: #6d5aa8; stroke-width: 0.7; stroke-linecap: square"/>
   </g>
   <g id="line2d_57">
    <path d="M 365.613695 174.098391 
L 363.104687 173.566518 
" clip-path="url(#pce0b14212d)" style="fill: none; stroke: #6d5aa8; stroke-width: 0.7; stroke-linecap: square"/>
   </g>
   <g id="line2d_58">
    <path d="M 378.5769 176.8464 
L 386.872342 169.946342 
" clip-path="url(#pce0b14212d)" style="fill: none; stroke: #6d5aa8; stroke-width: 1.2; stroke-linecap: square"/>
   </g>
   <g id="text_1">
    <text style="fill: #1f2a33; font: 700 10px 'Arial', 'Helvetica', 'DejaVu Sans', sans-serif; text-anchor: start" x="19.3365" y="20.3904" transform="rotate(-0 19.3365 20.3904)">MQTT-based IoT traffic under encrypted monitoring</text>
   </g>
   <g id="text_2">
    <text style="fill: #5a6b76; font: 6.9px 'Arial', 'Helvetica', 'DejaVu Sans', sans-serif; text-anchor: start" x="19.3365" y="29.015231" transform="rotate(-0 19.3365 29.015231)">Publish/subscribe telemetry is broker mediated; raw MQTT content is hidden while flow behavior remains observable</text>
   </g>
   <g id="text_3">
    <text style="fill: #143b63; font: 700 7.3px 'Arial', 'Helvetica', 'DejaVu Sans', sans-serif" transform="translate(32.017603 60.60757)">IoT publishers</text>
    <text style="fill: #143b63; font: 700 7.3px 'Arial', 'Helvetica', 'DejaVu Sans', sans-serif" transform="translate(34.045634 68.318423)">MQTT clients</text>
   </g>
   <g id="text_4">
    <text style="fill: #2469a6; font: 700 4.9px 'Arial', 'Helvetica', 'DejaVu Sans', sans-serif; text-anchor: middle" x="38.148075" y="175.995992" transform="rotate(-0 38.148075 175.995992)">MQTT</text>
   </g>
   <g id="text_5">
    <text style="fill: #1f2a33; font: 5.2px 'Arial', 'Helvetica', 'DejaVu Sans', sans-serif; text-anchor: middle" x="59.508315" y="176.070101" transform="rotate(-0 59.508315 176.070101)">PUBLISH</text>
   </g>
   <g id="text_6">
    <text style="fill: #1f2a33; font: 700 7.5px 'Arial', 'Helvetica', 'DejaVu Sans', sans-serif" transform="translate(198.853711 88.121326)">MQTT</text>
    <text style="fill: #1f2a33; font: 700 7.5px 'Arial', 'Helvetica', 'DejaVu Sans', sans-serif" transform="translate(197.804297 96.043435)">broker</text>
   </g>
   <g id="text_7">
    <text style="fill: #143b63; font: 700 6.4px 'Arial', 'Helvetica', 'DejaVu Sans', sans-serif" transform="translate(123.8964 103.2612)">TLS MQTT</text>
    <text style="fill: #143b63; font: 700 6.4px 'Arial', 'Helvetica', 'DejaVu Sans', sans-serif" transform="translate(125.8469 110.0214)">PUBLISH</text>
   </g>
   <g id="text_8">
    <text style="fill: #2469a6; font: 4.7px 'Arial', 'Helvetica', 'DejaVu Sans', sans-serif; text-anchor: middle" x="122.0922" y="123.397583" transform="rotate(-0 122.0922 123.397583)">01</text>
   </g>
   <g id="text_9">
    <text style="fill: #2469a6; font: 4.7px 'Arial', 'Helvetica', 'DejaVu Sans', sans-serif; text-anchor: middle" x="134.63325" y="123.397583" transform="rotate(-0 134.63325 123.397583)">10</text>
   </g>
   <g id="text_10">
    <text style="fill: #2469a6; font: 4.7px 'Arial', 'Helvetica', 'DejaVu Sans', sans-serif; text-anchor: middle" x="147.1743" y="123.397583" transform="rotate(-0 147.1743 123.397583)">01</text>
   </g>
   <g id="text_11">
    <text style="fill: #2469a6; font: 4.7px 'Arial', 'Helvetica', 'DejaVu Sans', sans-serif; text-anchor: middle" x="159.71535" y="123.397583" transform="rotate(-0 159.71535 123.397583)">10</text>
   </g>
   <g id="text_12">
    <text style="fill: #2469a6; font: 4.7px 'Arial', 'Helvetica', 'DejaVu Sans', sans-serif; text-anchor: middle" x="172.2564" y="123.397583" transform="rotate(-0 172.2564 123.397583)">01</text>
   </g>
   <g id="text_13">
    <text style="fill: #2f8f87; font: 700 7.3px 'Arial', 'Helvetica', 'DejaVu Sans', sans-serif" transform="translate(266.45615 60.60757)">Subscribers</text>
    <text style="fill: #2f8f87; font: 700 7.3px 'Arial', 'Helvetica', 'DejaVu Sans', sans-serif" transform="translate(265.045767 68.318423)">and IoT apps</text>
   </g>
   <g id="text_14">
    <text style="fill: #2f8f87; font: 700 4.9px 'Arial', 'Helvetica', 'DejaVu Sans', sans-serif; text-anchor: middle" x="272.483663" y="175.995992" transform="rotate(-0 272.483663 175.995992)">MQTT</text>
   </g>
   <g id="text_15">
    <text style="fill: #1f2a33; font: 5.2px 'Arial', 'Helvetica', 'DejaVu Sans', sans-serif; text-anchor: middle" x="292.872983" y="176.070101" transform="rotate(-0 292.872983 176.070101)">DELIVER</text>
   </g>
   <g id="text_16">
    <text style="fill: #2f8f87; font: 700 6.3px 'Arial', 'Helvetica', 'DejaVu Sans', sans-serif" transform="translate(259.670588 103.288092)">TLS MQTT</text>
    <text style="fill: #2f8f87; font: 700 6.3px 'Arial', 'Helvetica', 'DejaVu Sans', sans-serif" transform="translate(256.863642 109.942664)">SUBSCRIBE</text>
   </g>
   <g id="text_17">
    <text style="fill: #2f8f87; font: 4.7px 'Arial', 'Helvetica', 'DejaVu Sans', sans-serif; text-anchor: middle" x="260.85285" y="123.397583" transform="rotate(-0 260.85285 123.397583)">01</text>
   </g>
   <g id="text_18">
    <text style="fill: #2f8f87; font: 4.7px 'Arial', 'Helvetica', 'DejaVu Sans', sans-serif; text-anchor: middle" x="273.3939" y="123.397583" transform="rotate(-0 273.3939 123.397583)">10</text>
   </g>
   <g id="text_19">
    <text style="fill: #2f8f87; font: 4.7px 'Arial', 'Helvetica', 'DejaVu Sans', sans-serif; text-anchor: middle" x="285.93495" y="123.397583" transform="rotate(-0 285.93495 123.397583)">01</text>
   </g>
   <g id="text_20">
    <text style="fill: #2f8f87; font: 4.7px 'Arial', 'Helvetica', 'DejaVu Sans', sans-serif; text-anchor: middle" x="298.476" y="123.397583" transform="rotate(-0 298.476 123.397583)">10</text>
   </g>
   <g id="text_21">
    <text style="fill: #2f8f87; font: 4.7px 'Arial', 'Helvetica', 'DejaVu Sans', sans-serif; text-anchor: middle" x="311.01705" y="123.397583" transform="rotate(-0 311.01705 123.397583)">01</text>
   </g>
   <g id="text_22">
    <text style="fill: #b94747; font: 700 6.2px 'Arial', 'Helvetica', 'DejaVu Sans', sans-serif; text-anchor: start" x="110.36025" y="188.387377" transform="rotate(-0 110.36025 188.387377)">MQTT application fields hidden/excluded</text>
   </g>
   <g id="text_23">
    <text style="fill: #1f2a33; font: 5px 'Arial', 'Helvetica', 'DejaVu Sans', sans-serif; text-anchor: middle" x="129.576375" y="196.016801" transform="rotate(-0 129.576375 196.016801)">topic string</text>
   </g>
   <g id="text_24">
    <text style="fill: #1f2a33; font: 5px 'Arial', 'Helvetica', 'DejaVu Sans', sans-serif; text-anchor: middle" x="173.267775" y="196.016801" transform="rotate(-0 173.267775 196.016801)">payload</text>
   </g>
   <g id="text_25">
    <text style="fill: #1f2a33; font: 5px 'Arial', 'Helvetica', 'DejaVu Sans', sans-serif; text-anchor: middle" x="129.576375" y="206.413378" transform="rotate(-0 129.576375 206.413378)">username</text>
   </g>
   <g id="text_26">
    <text style="fill: #1f2a33; font: 5px 'Arial', 'Helvetica', 'DejaVu Sans', sans-serif; text-anchor: middle" x="173.267775" y="206.413378" transform="rotate(-0 173.267775 206.413378)">password</text>
   </g>
   <g id="text_27">
    <text style="fill: #1f2a33; font: 5px 'Arial', 'Helvetica', 'DejaVu Sans', sans-serif; text-anchor: middle" x="129.576375" y="216.780658" transform="rotate(-0 129.576375 216.780658)">client ID</text>
   </g>
   <g id="text_28">
    <text style="fill: #1f2a33; font: 5px 'Arial', 'Helvetica', 'DejaVu Sans', sans-serif; text-anchor: middle" x="173.267775" y="216.780658" transform="rotate(-0 173.267775 216.780658)">raw IP / exact time</text>
   </g>
   <g id="text_29">
    <text style="fill: #b94747; font: 700 4.9px 'Arial', 'Helvetica', 'DejaVu Sans', sans-serif; text-anchor: middle" x="209.475" y="205.180716" transform="rotate(-0 209.475 205.180716)">topic hierarchy</text>
   </g>
   <g id="text_30">
    <text style="fill: #1f2a33; font: 3.9px 'Arial', 'Helvetica', 'DejaVu Sans', sans-serif; text-anchor: start" x="217.97055" y="209.192985" transform="rotate(-0 217.97055 209.192985)">factory/+/temp</text>
   </g>
   <g id="text_31">
    <text style="fill: #1f2a33; font: 3.9px 'Arial', 'Helvetica', 'DejaVu Sans', sans-serif; text-anchor: start" x="217.97055" y="213.433231" transform="rotate(-0 217.97055 213.433231)">home/lab/#</text>
   </g>
   <g id="text_32">
    <text style="fill: #1f2a33; font: 3.9px 'Arial', 'Helvetica', 'DejaVu Sans', sans-serif; text-anchor: start" x="217.97055" y="217.674391" transform="rotate(-0 217.97055 217.674391)">device/+/state</text>
   </g>
   <g id="text_33">
    <text style="fill: #2f8f87; font: 700 7px 'Arial', 'Helvetica', 'DejaVu Sans', sans-serif" transform="translate(336.002709 60.684966)">Broker / gateway</text>
    <text style="fill: #2f8f87; font: 700 7px 'Arial', 'Helvetica', 'DejaVu Sans', sans-serif" transform="translate(329.195209 68.170809)">observable metadata</text>
   </g>
   <g id="text_34">
    <text style="fill: #5a6b76; font: 5.8px 'Arial', 'Helvetica', 'DejaVu Sans', sans-serif; text-anchor: middle" x="364.0131" y="81.270351" transform="rotate(-0 364.0131 81.270351)">client-broker flows</text>
   </g>
   <g id="text_35">
    <text style="fill: #1f2a33; font: 5.1px 'Arial', 'Helvetica', 'DejaVu Sans', sans-serif; text-anchor: middle" x="351.47205" y="105.82949" transform="rotate(-0 351.47205 105.82949)">duration</text>
   </g>
   <g id="text_36">
    <text style="fill: #1f2a33; font: 5.1px 'Arial', 'Helvetica', 'DejaVu Sans', sans-serif; text-anchor: middle" x="379.79055" y="105.82949" transform="rotate(-0 379.79055 105.82949)">packets</text>
   </g>
   <g id="text_37">
    <text style="fill: #1f2a33; font: 5.1px 'Arial', 'Helvetica', 'DejaVu Sans', sans-serif; text-anchor: middle" x="351.47205" y="118.287467" transform="rotate(-0 351.47205 118.287467)">bytes</text>
   </g>
   <g id="text_38">
    <text style="fill: #1f2a33; font: 5.1px 'Arial', 'Helvetica', 'DejaVu Sans', sans-serif; text-anchor: middle" x="379.79055" y="118.31735" transform="rotate(-0 379.79055 118.31735)">pkt size</text>
   </g>
   <g id="text_39">
    <text style="fill: #1f2a33; font: 5.1px 'Arial', 'Helvetica', 'DejaVu Sans', sans-serif; text-anchor: middle" x="351.47205" y="130.80521" transform="rotate(-0 351.47205 130.80521)">IAT</text>
   </g>
   <g id="text_40">
    <text style="fill: #1f2a33; font: 5.1px 'Arial', 'Helvetica', 'DejaVu Sans', sans-serif; text-anchor: middle" x="379.79055" y="130.80521" transform="rotate(-0 379.79055 130.80521)">rates</text>
   </g>
   <g id="text_41">
    <text style="fill: #1f2a33; font: 5.1px 'Arial', 'Helvetica', 'DejaVu Sans', sans-serif; text-anchor: middle" x="351.47205" y="143.29307" transform="rotate(-0 351.47205 143.29307)">burst</text>
   </g>
   <g id="text_42">
    <text style="fill: #1f2a33; font: 5.1px 'Arial', 'Helvetica', 'DejaVu Sans', sans-serif; text-anchor: middle" x="382.6224" y="143.294265" transform="rotate(-0 382.6224 143.294265)">TCP flags</text>
   </g>
   <g id="text_43">
    <text style="fill: #6d5aa8; font: 700 5.6px 'Arial', 'Helvetica', 'DejaVu Sans', sans-serif; text-anchor: middle" x="364.41765" y="187.7202" transform="rotate(-0 364.41765 187.7202)">metadata-only IDS</text>
   </g>
   <g id="text_44">
    <text style="fill: #5a6b76; font: 6px 'Arial', 'Helvetica', 'DejaVu Sans', sans-serif; text-anchor: middle" x="249.93" y="233.300235" transform="rotate(-0 249.93 233.300235)">Bounded claim: IDS over MQTT traffic metadata, not payload inspection or a replacement for MQTT/TLS security.</text>
   </g>
  </g>
 </g>
 <defs>
  <clipPath id="pce0b14212d">
   <rect x="7.2" y="7.2" width="404.55" height="235.62"/>
  </clipPath>
 </defs>
</svg>
