<?xml version="1.0" encoding="utf-8" standalone="no"?>
<!DOCTYPE svg PUBLIC "-//W3C//DTD SVG 1.1//EN"
  "http://www.w3.org/Graphics/SVG/1.1/DTD/svg11.dtd">
<svg xmlns:xlink="http://www.w3.org/1999/xlink" width="418.95pt" height="261.108pt" viewBox="0 0 418.95 261.108" xmlns="http://www.w3.org/2000/svg" version="1.1">
 <metadata>
  <rdf:RDF xmlns:dc="http://purl.org/dc/elements/1.1/" xmlns:cc="http://creativecommons.org/ns#" xmlns:rdf="http://www.w3.org/1999/02/22-rdf-syntax-ns#">
   <cc:Work>
    <dc:type rdf:resource="http://purl.org/dc/dcmitype/StillImage"/>
    <dc:date>2026-06-13T18:47:15.255473</dc:date>
    <dc:format>image/svg+xml</dc:format>
    <dc:creator>
     <cc:Agent>
      <dc:title>Matplotlib v3.7.0, https://matplotlib.org/</dc:title>
     </cc:Agent>
    </dc:creator>
   </cc:Work>
  </rdf:RDF>
 </metadata>
 <defs>
  <style type="text/css">*{stroke-linejoin: round; stroke-linecap: butt}</style>
 </defs>
 <g id="figure_1">
  <g id="patch_1">
   <path d="M 0 261.108 
L 418.95 261.108 
L 418.95 0 
L 0 0 
z
" style="fill: #ffffff"/>
  </g>
  <g id="axes_1">
   <g id="line2d_1">
    <path d="M 39.564 241.5726 
L 39.564 19.5354 
" clip-path="url(#pba23793863)" style="fill: none; stroke: #eef2f4; stroke-opacity: 0.55; stroke-width: 0.45; stroke-linecap: square"/>
   </g>
   <g id="line2d_2">
    <path d="M 80.019 241.5726 
L 80.019 19.5354 
" clip-path="url(#pba23793863)" style="fill: none; stroke: #eef2f4; stroke-opacity: 0.55; stroke-width: 0.45; stroke-linecap: square"/>
   </g>
   <g id="line2d_3">
    <path d="M 136.656 241.5726 
L 136.656 19.5354 
" clip-path="url(#pba23793863)" style="fill: none; stroke: #eef2f4; stroke-opacity: 0.55; stroke-width: 0.45; stroke-linecap: square"/>
   </g>
   <g id="line2d_4">
    <path d="M 282.294 241.5726 
L 282.294 19.5354 
" clip-path="url(#pba23793863)" style="fill: none; stroke: #eef2f4; stroke-opacity: 0.55; stroke-width: 0.45; stroke-linecap: square"/>
   </g>
   <g id="line2d_5">
    <path d="M 338.931 241.5726 
L 338.931 19.5354 
" clip-path="url(#pba23793863)" style="fill: none; stroke: #eef2f4; stroke-opacity: 0.55; stroke-width: 0.45; stroke-linecap: square"/>
   </g>
   <g id="line2d_6">
    <path d="M 383.4315 241.5726 
L 383.4315 19.5354 
" clip-path="url(#pba23793863)" style="fill: none; stroke: #eef2f4; stroke-opacity: 0.55; stroke-width: 0.45; stroke-linecap: square"/>
   </g>
   <g id="line2d_7">
    <path d="M 23.382 224.30304 
L 395.568 224.30304 
" clip-path="url(#pba23793863)" style="fill: none; stroke: #eef2f4; stroke-opacity: 0.45; stroke-width: 0.45; stroke-linecap: square"/>
   </g>
   <g id="line2d_8">
    <path d="M 23.382 194.69808 
L 395.568 194.69808 
" clip-path="url(#pba23793863)" style="fill: none; stroke: #eef2f4; stroke-opacity: 0.45; stroke-width: 0.45; stroke-linecap: square"/>
   </g>
   <g id="line2d_9">
    <path d="M 23.382 160.15896 
L 395.568 160.15896 
" clip-path="url(#pba23793863)" style="fill: none; stroke: #eef2f4; stroke-opacity: 0.45; stroke-width: 0.45; stroke-linecap: square"/>
   </g>
   <g id="line2d_10">
    <path d="M 23.382 100.94904 
L 395.568 100.94904 
" clip-path="url(#pba23793863)" style="fill: none; stroke: #eef2f4; stroke-opacity: 0.45; stroke-width: 0.45; stroke-linecap: square"/>
   </g>
   <g id="line2d_11">
    <path d="M 23.382 61.47576 
L 395.568 61.47576 
" clip-path="url(#pba23793863)" style="fill: none; stroke: #eef2f4; stroke-opacity: 0.45; stroke-width: 0.45; stroke-linecap: square"/>
   </g>
   <g id="line2d_12">
    <path d="M 23.382 31.8708 
L 395.568 31.8708 
" clip-path="url(#pba23793863)" style="fill: none; stroke: #eef2f4; stroke-opacity: 0.45; stroke-width: 0.45; stroke-linecap: square"/>
   </g>
   <g id="patch_2">
    <path d="M 39.564 196.178328 
C 40.207727 196.178328 40.825176 196.02236 41.28036 195.744773 
C 41.735544 195.467187 41.9913 195.090646 41.9913 194.69808 
C 41.9913 194.305514 41.735544 193.928973 41.28036 193.651387 
C 40.825176 193.3738 40.207727 193.217832 39.564 193.217832 
C 38.920273 193.217832 38.302824 193.3738 37.84764 193.651387 
C 37.392456 193.928973 37.1367 194.305514 37.1367 194.69808 
C 37.1367 195.090646 37.392456 195.467187 37.84764 195.744773 
C 38.302824 196.02236 38.920273 196.178328 39.564 196.178328 
z
" clip-path="url(#pba23793863)" style="fill: #ffffff; stroke: #eef2f4; stroke-width: 0.7; stroke-linejoin: miter"/>
   </g>
   <g id="patch_3">
    <path d="M 80.019 62.956008 
C 80.662727 62.956008 81.280176 62.80004 81.73536 62.522453 
C 82.190544 62.244867 82.4463 61.868326 82.4463 61.47576 
C 82.4463 61.083194 82.190544 60.706653 81.73536 60.429067 
C 81.280176 60.15148 80.662727 59.995512 80.019 59.995512 
C 79.375273 59.995512 78.757824 60.15148 78.30264 60.429067 
C 77.847456 60.706653 77.5917 61.083194 77.5917 61.47576 
C 77.5917 61.868326 77.847456 62.244867 78.30264 62.522453 
C 78.757824 62.80004 79.375273 62.956008 80.019 62.956008 
z
" clip-path="url(#pba23793863)" style="fill: #ffffff; stroke: #eef2f4; stroke-width: 0.7; stroke-linejoin: miter"/>
   </g>
   <g id="patch_4">
    <path d="M 136.656 161.639208 
C 137.299727 161.639208 137.917176 161.48324 138.37236 161.205653 
C 138.827544 160.928067 139.0833 160.551526 139.0833 160.15896 
C 139.0833 159.766394 138.827544 159.389853 138.37236 159.112267 
C 137.917176 158.83468 137.299727 158.678712 136.656 158.678712 
C 136.012273 158.678712 135.394824 158.83468 134.93964 159.112267 
C 134.484456 159.389853 134.2287 159.766394 134.2287 160.15896 
C 134.2287 160.551526 134.484456 160.928067 134.93964 161.205653 
C 135.394824 161.48324 136.012273 161.639208 136.656 161.639208 
z
" clip-path="url(#pba23793863)" style="fill: #ffffff; stroke: #eef2f4; stroke-width: 0.7; stroke-linejoin: miter"/>
   </g>
   <g id="patch_5">
    <path d="M 282.294 102.429288 
C 282.937727 102.429288 283.555176 102.27332 284.01036 101.995733 
C 284.465544 101.718147 284.7213 101.341606 284.7213 100.94904 
C 284.7213 100.556474 284.465544 100.179933 284.01036 99.902347 
C 283.555176 99.62476 282.937727 99.468792 282.294 99.468792 
C 281.650273 99.468792 281.032824 99.62476 280.57764 99.902347 
C 280.122456 100.179933 279.8667 100.556474 279.8667 100.94904 
C 279.8667 101.341606 280.122456 101.718147 280.57764 101.995733 
C 281.032824 102.27332 281.650273 102.429288 282.294 102.429288 
z
" clip-path="url(#pba23793863)" style="fill: #ffffff; stroke: #eef2f4; stroke-width: 0.7; stroke-linejoin: miter"/>
   </g>
   <g id="patch_6">
    <path d="M 338.931 225.783288 
C 339.574727 225.783288 340.192176 225.62732 340.64736 225.349733 
C 341.102544 225.072147 341.3583 224.695606 341.3583 224.30304 
C 341.3583 223.910474 341.102544 223.533933 340.64736 223.256347 
C 340.192176 222.97876 339.574727 222.822792 338.931 222.822792 
C 338.287273 222.822792 337.669824 222.97876 337.21464 223.256347 
C 336.759456 223.533933 336.5037 223.910474 336.5037 224.30304 
C 336.5037 224.695606 336.759456 225.072147 337.21464 225.349733 
C 337.669824 225.62732 338.287273 225.783288 338.931 225.783288 
z
" clip-path="url(#pba23793863)" style="fill: #ffffff; stroke: #eef2f4; stroke-width: 0.7; stroke-linejoin: miter"/>
   </g>
   <g id="patch_7">
    <path d="M 383.4315 33.351048 
C 384.075227 33.351048 384.692676 33.19508 385.14786 32.917493 
C 385.603044 32.639907 385.8588 32.263366 385.8588 31.8708 
C 385.8588 31.478234 385.603044 31.101693 385.14786 30.824107 
C 384.692676 30.54652 384.075227 30.390552 383.4315 30.390552 
C 382.787773 30.390552 382.170324 30.54652 381.71514 30.824107 
C 381.259956 31.101693 381.0042 31.478234 381.0042 31.8708 
C 381.0042 32.263366 381.259956 32.639907 381.71514 32.917493 
C 382.170324 33.19508 382.787773 33.351048 383.4315 33.351048 
z
" clip-path="url(#pba23793863)" style="fill: #ffffff; stroke: #eef2f4; stroke-width: 0.7; stroke-linejoin: miter"/>
   </g>
   <g id="patch_8">
    <path d="M 30.25935 115.258104 
L 81.23265 115.258104 
Q 93.36915 115.258104 93.36915 107.856864 
L 93.36915 48.400236 
Q 93.36915 40.998996 81.23265 40.998996 
L 30.25935 40.998996 
Q 18.12285 40.998996 18.12285 48.400236 
L 18.12285 107.856864 
Q 18.12285 115.258104 30.25935 115.258104 
z
" clip-path="url(#pba23793863)" style="fill: #f7fbff; stroke: #2469a6; stroke-width: 1.1; stroke-linejoin: miter"/>
   </g>
   <g id="patch_9">
    <path d="M 30.902584 69.465645 
L 35.279815 69.465645 
Q 39.325316 69.465645 39.325316 66.998565 
L 39.325316 63.354195 
Q 39.325316 60.887115 35.279815 60.887115 
L 30.902584 60.887115 
Q 26.857084 60.887115 26.857084 63.354195 
L 26.857084 66.998565 
Q 26.857084 69.465645 30.902584 69.465645 
z
" clip-path="url(#pba23793863)" style="fill: #ffffff; stroke: #2469a6; stroke-width: 0.9; stroke-linejoin: miter"/>
   </g>
   <g id="patch_10">
    <path d="M 33.0912 65.907623 
C 33.674203 65.907623 34.233405 65.766367 34.64565 65.514967 
C 35.057895 65.263566 35.289525 64.922546 35.289525 64.567011 
C 35.289525 64.211477 35.057895 63.870457 34.64565 63.619056 
C 34.233405 63.367655 33.674203 63.2264 33.0912 63.2264 
C 32.508197 63.2264 31.948995 63.367655 31.53675 63.619056 
C 31.124505 63.870457 30.892875 64.211477 30.892875 64.567011 
C 30.892875 64.922546 31.124505 65.263566 31.53675 65.514967 
C 31.948995 65.766367 32.508197 65.907623 33.0912 65.907623 
z
" clip-path="url(#pba23793863)" style="fill: #ddecf8; stroke: #2469a6; stroke-width: 0.8; stroke-linejoin: miter"/>
   </g>
   <g id="patch_11">
    <path d="M 34.63075 64.12921 
C 34.494107 63.95051 34.276602 63.799261 34.003914 63.693319 
C 33.731225 63.587378 33.414524 63.531084 33.0912 63.531084 
C 32.767876 63.531084 32.451175 63.587378 32.178486 63.693319 
C 31.905798 63.799261 31.688293 63.95051 31.55165 64.12921 
" clip-path="url(#pba23793863)" style="fill: none; stroke: #2469a6; stroke-width: 0.8; stroke-linejoin: miter"/>
   </g>
   <g id="patch_12">
    <path d="M 33.0912 64.78029 
C 33.18395 64.78029 33.272914 64.757818 33.338499 64.717822 
C 33.404083 64.677827 33.440933 64.623574 33.440933 64.567011 
C 33.440933 64.510449 33.404083 64.456196 33.338499 64.4162 
C 33.272914 64.376205 33.18395 64.353732 33.0912 64.353732 
C 32.99845 64.353732 32.909486 64.376205 32.843901 64.4162 
C 32.778317 64.456196 32.741467 64.510449 32.741467 64.567011 
C 32.741467 64.623574 32.778317 64.677827 32.843901 64.717822 
C 32.909486 64.757818 32.99845 64.78029 33.0912 64.78029 
z
" clip-path="url(#pba23793863)" style="fill: #2469a6"/>
   </g>
   <g id="patch_13">
    <path d="M 35.892847 63.461193 
C 35.846635 63.43269 35.785972 63.409485 35.715844 63.393486 
C 35.645716 63.377487 35.568098 63.369145 35.489372 63.369145 
C 35.410646 63.369145 35.333029 63.377487 35.262901 63.393486 
C 35.192773 63.409485 35.13211 63.43269 35.085898 63.461193 
" clip-path="url(#pba23793863)" style="fill: none; opacity: 0.85; stroke: #2469a6; stroke-width: 0.5; stroke-linejoin: miter"/>
   </g>
   <g id="patch_14">
    <path d="M 36.147673 63.378565 
C 36.072274 63.332059 35.973297 63.294199 35.858878 63.268095 
C 35.744459 63.241992 35.61782 63.22838 35.489372 63.22838 
C 35.360925 63.22838 35.234286 63.241992 35.119867 63.268095 
C 35.005447 63.294199 34.90647 63.332059 34.831072 63.378565 
" clip-path="url(#pba23793863)" style="fill: none; opacity: 0.73; stroke: #2469a6; stroke-width: 0.5; stroke-linejoin: miter"/>
   </g>
   <g id="patch_15">
    <path d="M 36.402499 63.295936 
C 36.297914 63.231429 36.160623 63.178913 36.001912 63.142704 
C 35.843202 63.106496 35.667542 63.087616 35.489372 63.087616 
C 35.311203 63.087616 35.135543 63.106496 34.976832 63.142704 
C 34.818122 63.178913 34.680831 63.231429 34.576246 63.295936 
" clip-path="url(#pba23793863)" style="fill: none; opacity: 0.61; stroke: #2469a6; stroke-width: 0.5; stroke-linejoin: miter"/>
   </g>
   <g id="patch_16">
    <path d="M 35.489372 63.773308 
C 35.53111 63.773308 35.571144 63.763196 35.600657 63.745198 
C 35.63017 63.7272 35.646752 63.702786 35.646752 63.677333 
C 35.646752 63.65188 35.63017 63.627466 35.600657 63.609468 
C 35.571144 63.59147 35.53111 63.581357 35.489372 63.581357 
C 35.447635 63.581357 35.407601 63.59147 35.378088 63.609468 
C 35.348575 63.627466 35.331992 63.65188 35.331992 63.677333 
C 35.331992 63.702786 35.348575 63.7272 35.378088 63.745198 
C 35.407601 63.763196 35.447635 63.773308 35.489372 63.773308 
z
" clip-path="url(#pba23793863)" style="fill: #2469a6"/>
   </g>
   <g id="patch_17">
    <path d="M 45.2277 72.084204 
L 80.8281 72.084204 
Q 87.3009 72.084204 87.3009 68.136876 
L 87.3009 61.229052 
Q 87.3009 57.281724 80.8281 57.281724 
L 45.2277 57.281724 
Q 38.7549 57.281724 38.7549 61.229052 
L 38.7549 68.136876 
Q 38.7549 72.084204 45.2277 72.084204 
z
" clip-path="url(#pba23793863)" style="fill: #ffffff; stroke: #2469a6; stroke-width: 0.8; stroke-linejoin: miter"/>
   </g>
   <g id="patch_18">
    <path d="M 29.094246 83.758427 
L 36.376146 83.758427 
L 36.376146 78.330851 
L 29.094246 78.330851 
z
" clip-path="url(#pba23793863)" style="fill: #ffffff; stroke: #2f8f87; stroke-width: 0.65; stroke-linejoin: miter"/>
   </g>
   <g id="patch_19">
    <path d="M 31.861368 83.758427 
L 39.143268 83.758427 
L 39.143268 74.383523 
L 31.861368 74.383523 
z
" clip-path="url(#pba23793863)" style="fill: #ddecf8; stroke: #2f8f87; stroke-width: 0.65; stroke-linejoin: miter"/>
   </g>
   <g id="patch_20">
    <path d="M 34.62849 83.758427 
L 41.91039 83.758427 
L 41.91039 76.850603 
L 34.62849 76.850603 
z
" clip-path="url(#pba23793863)" style="fill: #ffffff; stroke: #2f8f87; stroke-width: 0.65; stroke-linejoin: miter"/>
   </g>
   <g id="patch_21">
    <path d="M 37.395612 83.758427 
L 44.677512 83.758427 
L 44.677512 71.423027 
L 37.395612 71.423027 
z
" clip-path="url(#pba23793863)" style="fill: #ddecf8; stroke: #2f8f87; stroke-width: 0.65; stroke-linejoin: miter"/>
   </g>
   <g id="patch_22">
    <path d="M 29.483673 79.633469 
Q 33.093706 79.633469 36.08882 79.633469 
" clip-path="url(#pba23793863)" style="fill: none; stroke: #2f8f87; stroke-width: 0.55; stroke-linecap: round"/>
    <path d="M 34.48882 78.833469 
L 36.08882 79.633469 
L 34.48882 80.433469 
z
" clip-path="url(#pba23793863)" style="fill: #2f8f87; stroke: #2f8f87; stroke-width: 0.55; stroke-linecap: round"/>
   </g>
   <g id="patch_23">
    <path d="M 45.2277 89.353764 
L 80.8281 89.353764 
Q 87.3009 89.353764 87.3009 85.406436 
L 87.3009 78.498612 
Q 87.3009 74.551284 80.8281 74.551284 
L 45.2277 74.551284 
Q 38.7549 74.551284 38.7549 78.498612 
L 38.7549 85.406436 
Q 38.7549 89.353764 45.2277 89.353764 
z
" clip-path="url(#pba23793863)" style="fill: #ffffff; stroke: #2469a6; stroke-width: 0.8; stroke-linejoin: miter"/>
   </g>
   <g id="patch_24">
    <path d="M 28.47933 101.590481 
L 37.70307 101.590481 
L 37.70307 97.840519 
L 28.47933 97.840519 
z
" clip-path="url(#pba23793863)" style="fill: #ffffff; stroke: #d88922; stroke-width: 0.8; stroke-linejoin: miter"/>
   </g>
   <g id="patch_25">
    <path d="M 45.2277 106.623324 
L 80.8281 106.623324 
Q 87.3009 106.623324 87.3009 102.675996 
L 87.3009 95.768172 
Q 87.3009 91.820844 80.8281 91.820844 
L 45.2277 91.820844 
Q 38.7549 91.820844 38.7549 95.768172 
L 38.7549 102.675996 
Q 38.7549 106.623324 45.2277 106.623324 
z
" clip-path="url(#pba23793863)" style="fill: #ffffff; stroke: #2469a6; stroke-width: 0.8; stroke-linejoin: miter"/>
   </g>
   <g id="patch_26">
    <path d="M 119.26035 110.323944 
L 170.23365 110.323944 
Q 182.37015 110.323944 182.37015 102.922704 
L 182.37015 53.334396 
Q 182.37015 45.933156 170.23365 45.933156 
L 119.26035 45.933156 
Q 107.12385 45.933156 107.12385 53.334396 
L 107.12385 102.922704 
Q 107.12385 110.323944 119.26035 110.323944 
z
" clip-path="url(#pba23793863)" style="fill: #dff3ef; stroke: #2f8f87; stroke-width: 1.1; stroke-linejoin: miter"/>
   </g>
   <g id="patch_27">
    <path d="M 129.77865 78.251904 
L 165.7836 78.251904 
Q 172.2564 78.251904 172.2564 74.304576 
L 172.2564 67.396752 
Q 172.2564 63.449424 165.7836 63.449424 
L 129.77865 63.449424 
Q 123.30585 63.449424 123.30585 67.396752 
L 123.30585 74.304576 
Q 123.30585 78.251904 129.77865 78.251904 
z
" clip-path="url(#pba23793863)" style="fill: #ffffff; stroke: #a7d8cc; stroke-width: 0.8; stroke-linejoin: miter"/>
   </g>
   <g id="patch_28">
    <path d="M 129.77865 91.820844 
L 165.7836 91.820844 
Q 172.2564 91.820844 172.2564 87.873516 
L 172.2564 80.965692 
Q 172.2564 77.018364 165.7836 77.018364 
L 129.77865 77.018364 
Q 123.30585 77.018364 123.30585 80.965692 
L 123.30585 87.873516 
Q 123.30585 91.820844 129.77865 91.820844 
z
" clip-path="url(#pba23793863)" style="fill: #ffffff; stroke: #a7d8cc; stroke-width: 0.8; stroke-linejoin: miter"/>
   </g>
   <g id="patch_29">
    <path d="M 129.77865 105.389784 
L 165.7836 105.389784 
Q 172.2564 105.389784 172.2564 101.442456 
L 172.2564 94.534632 
Q 172.2564 90.587304 165.7836 90.587304 
L 129.77865 90.587304 
Q 123.30585 90.587304 123.30585 94.534632 
L 123.30585 101.442456 
Q 123.30585 105.389784 129.77865 105.389784 
z
" clip-path="url(#pba23793863)" style="fill: #ffffff; stroke: #a7d8cc; stroke-width: 0.8; stroke-linejoin: miter"/>
   </g>
   <g id="patch_30">
    <path d="M 127.950866 93.5478 
Q 145.556381 93.5478 162.435175 93.5478 
" clip-path="url(#pba23793863)" style="fill: none; stroke: #2f8f87; stroke-width: 0.65; stroke-linecap: round"/>
    <path d="M 160.435175 92.5478 
L 162.435175 93.5478 
L 160.435175 94.5478 
z
" clip-path="url(#pba23793863)" style="fill: #2f8f87; stroke: #2f8f87; stroke-width: 0.65; stroke-linecap: round"/>
   </g>
   <g id="patch_31">
    <path d="M 163.161334 97.001712 
Q 145.555819 97.001712 128.677025 97.001712 
" clip-path="url(#pba23793863)" style="fill: none; stroke: #2f8f87; stroke-width: 0.65; stroke-linecap: round"/>
    <path d="M 130.677025 98.001712 
L 128.677025 97.001712 
L 130.677025 96.001712 
z
" clip-path="url(#pba23793863)" style="fill: #2f8f87; stroke: #2f8f87; stroke-width: 0.65; stroke-linecap: round"/>
   </g>
   <g id="patch_32">
    <path d="M 123.30585 105.143076 
L 130.58775 105.143076 
L 130.58775 99.7155 
L 123.30585 99.7155 
z
" clip-path="url(#pba23793863)" style="fill: #ffffff; stroke: #2f8f87; stroke-width: 0.65; stroke-linejoin: miter"/>
   </g>
   <g id="patch_33">
    <path d="M 131.8014 105.143076 
L 139.0833 105.143076 
L 139.0833 95.768172 
L 131.8014 95.768172 
z
" clip-path="url(#pba23793863)" style="fill: #ddecf8; stroke: #2f8f87; stroke-width: 0.65; stroke-linejoin: miter"/>
   </g>
   <g id="patch_34">
    <path d="M 140.29695 105.143076 
L 147.57885 105.143076 
L 147.57885 98.235252 
L 140.29695 98.235252 
z
" clip-path="url(#pba23793863)" style="fill: #ffffff; stroke: #2f8f87; stroke-width: 0.65; stroke-linejoin: miter"/>
   </g>
   <g id="patch_35">
    <path d="M 148.7925 105.143076 
L 156.0744 105.143076 
L 156.0744 92.807676 
L 148.7925 92.807676 
z
" clip-path="url(#pba23793863)" style="fill: #ddecf8; stroke: #2f8f87; stroke-width: 0.65; stroke-linejoin: miter"/>
   </g>
   <g id="patch_36">
    <path d="M 157.28805 105.143076 
L 164.56995 105.143076 
L 164.56995 98.728668 
L 157.28805 98.728668 
z
" clip-path="url(#pba23793863)" style="fill: #ffffff; stroke: #2f8f87; stroke-width: 0.65; stroke-linejoin: miter"/>
   </g>
   <g id="patch_37">
    <path d="M 165.7836 105.143076 
L 173.0655 105.143076 
L 173.0655 94.534632 
L 165.7836 94.534632 
z
" clip-path="url(#pba23793863)" style="fill: #ddecf8; stroke: #2f8f87; stroke-width: 0.65; stroke-linejoin: miter"/>
   </g>
   <g id="patch_38">
    <path d="M 91.135236 77.51178 
Q 100.247874 77.51178 108.018871 77.51178 
" clip-path="url(#pba23793863)" style="fill: none; stroke: #5a6b76; stroke-width: 1.2; stroke-linecap: round"/>
    <path d="M 104.418871 75.71178 
L 108.018871 77.51178 
L 104.418871 79.31178 
z
" clip-path="url(#pba23793863)" style="fill: #5a6b76; stroke: #5a6b76; stroke-width: 1.2; stroke-linecap: round"/>
   </g>
   <g id="patch_39">
    <path d="M 208.26135 117.725184 
L 269.3484 117.725184 
Q 281.4849 117.725184 281.4849 110.323944 
L 281.4849 43.466076 
Q 281.4849 36.064836 269.3484 36.064836 
L 208.26135 36.064836 
Q 196.12485 36.064836 196.12485 43.466076 
L 196.12485 110.323944 
Q 196.12485 117.725184 208.26135 117.725184 
z
" clip-path="url(#pba23793863)" style="fill: #fbe3e1; stroke: #b94747; stroke-width: 1.2; stroke-linejoin: miter"/>
   </g>
   <g id="patch_40">
    <path d="M 214.3296 53.630446 
L 230.34978 58.959338 
L 227.145744 70.505273 
L 214.3296 77.965723 
L 201.513456 70.505273 
L 198.30942 58.959338 
z
" clip-path="url(#pba23793863)" style="fill: #ffffff; stroke: #b94747; stroke-width: 1.1; stroke-linejoin: miter"/>
   </g>
   <g id="patch_41">
    <path d="M 262.572188 61.044021 
C 262.572188 60.278772 262.092361 59.544082 261.239176 59.002969 
C 260.38599 58.461856 259.227587 58.157537 258.021 58.157537 
C 256.814413 58.157537 255.65601 58.461856 254.802824 59.002969 
C 253.949639 59.544082 253.469813 60.278772 253.469813 61.044021 
" clip-path="url(#pba23793863)" style="fill: none; stroke: #b94747; stroke-linejoin: miter"/>
   </g>
   <g id="patch_42">
    <path d="M 252.377527 65.928839 
L 263.664472 65.928839 
L 263.664472 60.599947 
L 252.377527 60.599947 
z
" clip-path="url(#pba23793863)" style="fill: #ffffff; stroke: #b94747; stroke-linejoin: miter"/>
   </g>
   <g id="patch_43">
    <path d="M 258.021 63.930505 
C 258.310677 63.930505 258.588529 63.860319 258.793362 63.735405 
C 258.998195 63.610491 259.113285 63.441048 259.113285 63.264393 
C 259.113285 63.087738 258.998195 62.918295 258.793362 62.793381 
C 258.588529 62.668467 258.310677 62.598281 258.021 62.598281 
C 257.731323 62.598281 257.453471 62.668467 257.248638 62.793381 
C 257.043805 62.918295 256.928715 63.087738 256.928715 63.264393 
C 256.928715 63.441048 257.043805 63.610491 257.248638 63.735405 
C 257.453471 63.860319 257.731323 63.930505 258.021 63.930505 
z
" clip-path="url(#pba23793863)" style="fill: #b94747"/>
   </g>
   <g id="patch_44">
    <path d="M 210.68865 83.186064 
L 234.15255 83.186064 
Q 240.62535 83.186064 240.62535 79.238736 
L 240.62535 72.330912 
Q 240.62535 68.383584 234.15255 68.383584 
L 210.68865 68.383584 
Q 204.21585 68.383584 204.21585 72.330912 
L 204.21585 79.238736 
Q 204.21585 83.186064 210.68865 83.186064 
z
" clip-path="url(#pba23793863)" style="fill: #ffffff; stroke: #e6aaaa; stroke-width: 0.8; stroke-linejoin: miter"/>
   </g>
   <g id="patch_45">
    <path d="M 243.86175 83.186064 
L 267.32565 83.186064 
Q 273.79845 83.186064 273.79845 79.238736 
L 273.79845 72.330912 
Q 273.79845 68.383584 267.32565 68.383584 
L 243.86175 68.383584 
Q 237.38895 68.383584 237.38895 72.330912 
L 237.38895 79.238736 
Q 237.38895 83.186064 243.86175 83.186064 
z
" clip-path="url(#pba23793863)" style="fill: #ffffff; stroke: #e6aaaa; stroke-width: 0.8; stroke-linejoin: miter"/>
   </g>
   <g id="patch_46">
    <path d="M 210.68865 94.287924 
L 234.15255 94.287924 
Q 240.62535 94.287924 240.62535 90.340596 
L 240.62535 83.432772 
Q 240.62535 79.485444 234.15255 79.485444 
L 210.68865 79.485444 
Q 204.21585 79.485444 204.21585 83.432772 
L 204.21585 90.340596 
Q 204.21585 94.287924 210.68865 94.287924 
z
" clip-path="url(#pba23793863)" style="fill: #ffffff; stroke: #e6aaaa; stroke-width: 0.8; stroke-linejoin: miter"/>
   </g>
   <g id="patch_47">
    <path d="M 243.86175 94.287924 
L 267.32565 94.287924 
Q 273.79845 94.287924 273.79845 90.340596 
L 273.79845 83.432772 
Q 273.79845 79.485444 267.32565 79.485444 
L 243.86175 79.485444 
Q 237.38895 79.485444 237.38895 83.432772 
L 237.38895 90.340596 
Q 237.38895 94.287924 243.86175 94.287924 
z
" clip-path="url(#pba23793863)" style="fill: #ffffff; stroke: #e6aaaa; stroke-width: 0.8; stroke-linejoin: miter"/>
   </g>
   <g id="patch_48">
    <path d="M 210.68865 105.389784 
L 234.15255 105.389784 
Q 240.62535 105.389784 240.62535 101.442456 
L 240.62535 94.534632 
Q 240.62535 90.587304 234.15255 90.587304 
L 210.68865 90.587304 
Q 204.21585 90.587304 204.21585 94.534632 
L 204.21585 101.442456 
Q 204.21585 105.389784 210.68865 105.389784 
z
" clip-path="url(#pba23793863)" style="fill: #ffffff; stroke: #e6aaaa; stroke-width: 0.8; stroke-linejoin: miter"/>
   </g>
   <g id="patch_49">
    <path d="M 243.86175 105.389784 
L 267.32565 105.389784 
Q 273.79845 105.389784 273.79845 101.442456 
L 273.79845 94.534632 
Q 273.79845 90.587304 267.32565 90.587304 
L 243.86175 90.587304 
Q 237.38895 90.587304 237.38895 94.534632 
L 237.38895 101.442456 
Q 237.38895 105.389784 243.86175 105.389784 
z
" clip-path="url(#pba23793863)" style="fill: #ffffff; stroke: #e6aaaa; stroke-width: 0.8; stroke-linejoin: miter"/>
   </g>
   <g id="patch_50">
    <path d="M 210.68865 116.491644 
L 234.15255 116.491644 
Q 240.62535 116.491644 240.62535 112.544316 
L 240.62535 105.636492 
Q 240.62535 101.689164 234.15255 101.689164 
L 210.68865 101.689164 
Q 204.21585 101.689164 204.21585 105.636492 
L 204.21585 112.544316 
Q 204.21585 116.491644 210.68865 116.491644 
z
" clip-path="url(#pba23793863)" style="fill: #ffffff; stroke: #e6aaaa; stroke-width: 0.8; stroke-linejoin: miter"/>
   </g>
   <g id="patch_51">
    <path d="M 243.86175 116.491644 
L 267.32565 116.491644 
Q 273.79845 116.491644 273.79845 112.544316 
L 273.79845 105.636492 
Q 273.79845 101.689164 267.32565 101.689164 
L 243.86175 101.689164 
Q 237.38895 101.689164 237.38895 105.636492 
L 237.38895 112.544316 
Q 237.38895 116.491644 243.86175 116.491644 
z
" clip-path="url(#pba23793863)" style="fill: #ffffff; stroke: #e6aaaa; stroke-width: 0.8; stroke-linejoin: miter"/>
   </g>
   <g id="patch_52">
    <path d="M 180.136236 77.51178 
Q 189.248874 77.51178 197.019871 77.51178 
" clip-path="url(#pba23793863)" style="fill: none; stroke: #5a6b76; stroke-width: 1.2; stroke-linecap: round"/>
    <path d="M 193.419871 75.71178 
L 197.019871 77.51178 
L 193.419871 79.31178 
z
" clip-path="url(#pba23793863)" style="fill: #5a6b76; stroke: #5a6b76; stroke-width: 1.2; stroke-linecap: round"/>
   </g>
   <g id="patch_53">
    <path d="M 309.39885 110.323944 
L 382.6224 110.323944 
Q 394.7589 110.323944 394.7589 102.922704 
L 394.7589 53.334396 
Q 394.7589 45.933156 382.6224 45.933156 
L 309.39885 45.933156 
Q 297.26235 45.933156 297.26235 53.334396 
L 297.26235 102.922704 
Q 297.26235 110.323944 309.39885 110.323944 
z
" clip-path="url(#pba23793863)" style="fill: #fff1d8; stroke: #d88922; stroke-width: 1.2; stroke-linejoin: miter"/>
   </g>
   <g id="patch_54">
    <path d="M 321.9399 74.551284 
L 375.3405 74.551284 
Q 381.8133 74.551284 381.8133 70.603956 
L 381.8133 63.696132 
Q 381.8133 59.748804 375.3405 59.748804 
L 321.9399 59.748804 
Q 315.4671 59.748804 315.4671 63.696132 
L 315.4671 70.603956 
Q 315.4671 74.551284 321.9399 74.551284 
z
" clip-path="url(#pba23793863)" style="fill: #ffffff; stroke: #d88922; stroke-width: 0.8; stroke-linejoin: miter"/>
   </g>
   <g id="patch_55">
    <path d="M 321.9399 86.393268 
L 375.3405 86.393268 
Q 381.8133 86.393268 381.8133 82.44594 
L 381.8133 75.538116 
Q 381.8133 71.590788 375.3405 71.590788 
L 321.9399 71.590788 
Q 315.4671 71.590788 315.4671 75.538116 
L 315.4671 82.44594 
Q 315.4671 86.393268 321.9399 86.393268 
z
" clip-path="url(#pba23793863)" style="fill: #ffffff; stroke: #d88922; stroke-width: 0.8; stroke-linejoin: miter"/>
   </g>
   <g id="patch_56">
    <path d="M 321.9399 98.235252 
L 375.3405 98.235252 
Q 381.8133 98.235252 381.8133 94.287924 
L 381.8133 87.3801 
Q 381.8133 83.432772 375.3405 83.432772 
L 321.9399 83.432772 
Q 315.4671 83.432772 315.4671 87.3801 
L 315.4671 94.287924 
Q 315.4671 98.235252 321.9399 98.235252 
z
" clip-path="url(#pba23793863)" style="fill: #ffffff; stroke: #d88922; stroke-width: 0.8; stroke-linejoin: miter"/>
   </g>
   <g id="patch_57">
    <path d="M 321.9399 110.077236 
L 375.3405 110.077236 
Q 381.8133 110.077236 381.8133 106.129908 
L 381.8133 99.222084 
Q 381.8133 95.274756 375.3405 95.274756 
L 321.9399 95.274756 
Q 315.4671 95.274756 315.4671 99.222084 
L 315.4671 106.129908 
Q 315.4671 110.077236 321.9399 110.077236 
z
" clip-path="url(#pba23793863)" style="fill: #ffffff; stroke: #d88922; stroke-width: 0.8; stroke-linejoin: miter"/>
   </g>
   <g id="patch_58">
    <path d="M 279.250739 77.51178 
Q 289.375447 77.51178 298.158515 77.51178 
" clip-path="url(#pba23793863)" style="fill: none; stroke: #5a6b76; stroke-width: 1.2; stroke-linecap: round"/>
    <path d="M 294.558515 75.71178 
L 298.158515 77.51178 
L 294.558515 79.31178 
z
" clip-path="url(#pba23793863)" style="fill: #5a6b76; stroke: #5a6b76; stroke-width: 1.2; stroke-linecap: round"/>
   </g>
   <g id="patch_59">
    <path d="M 50.48685 185.569884 
L 117.64215 185.569884 
Q 129.77865 185.569884 129.77865 178.168644 
L 129.77865 150.784056 
Q 129.77865 143.382816 117.64215 143.382816 
L 50.48685 143.382816 
Q 38.35035 143.382816 38.35035 150.784056 
L 38.35035 178.168644 
Q 38.35035 185.569884 50.48685 185.569884 
z
" clip-path="url(#pba23793863)" style="fill: #ece8f7; stroke: #6d5aa8; stroke-width: 1.1; stroke-linejoin: miter"/>
   </g>
   <g id="patch_60">
    <path d="M 55.746 167.066784 
L 112.383 167.066784 
Q 118.8558 167.066784 118.8558 163.119456 
L 118.8558 156.211632 
Q 118.8558 152.264304 112.383 152.264304 
L 55.746 152.264304 
Q 49.2732 152.264304 49.2732 156.211632 
L 49.2732 163.119456 
Q 49.2732 167.066784 55.746 167.066784 
z
" clip-path="url(#pba23793863)" style="fill: #ffffff; stroke: #b9add9; stroke-width: 0.8; stroke-linejoin: miter"/>
   </g>
   <g id="patch_61">
    <path d="M 55.746 176.935104 
L 112.383 176.935104 
Q 118.8558 176.935104 118.8558 172.987776 
L 118.8558 166.079952 
Q 118.8558 162.132624 112.383 162.132624 
L 55.746 162.132624 
Q 49.2732 162.132624 49.2732 166.079952 
L 49.2732 172.987776 
Q 49.2732 176.935104 55.746 176.935104 
z
" clip-path="url(#pba23793863)" style="fill: #ffffff; stroke: #b9add9; stroke-width: 0.8; stroke-linejoin: miter"/>
   </g>
   <g id="patch_62">
    <path d="M 55.746 186.803424 
L 112.383 186.803424 
Q 118.8558 186.803424 118.8558 182.856096 
L 118.8558 175.948272 
Q 118.8558 172.000944 112.383 172.000944 
L 55.746 172.000944 
Q 49.2732 172.000944 49.2732 175.948272 
L 49.2732 182.856096 
Q 49.2732 186.803424 55.746 186.803424 
z
" clip-path="url(#pba23793863)" style="fill: #ffffff; stroke: #b9add9; stroke-width: 0.8; stroke-linejoin: miter"/>
   </g>
   <g id="patch_63">
    <path d="M 344.819127 108.182305 
Q 209.056314 85.275864 85.972785 144.438069 
" clip-path="url(#pba23793863)" style="fill: none; stroke: #6d5aa8; stroke-linecap: round"/>
    <path d="M 89.997218 144.500797 
L 85.972785 144.438069 
L 88.437628 141.256159 
z
" clip-path="url(#pba23793863)" style="fill: #6d5aa8; stroke: #6d5aa8; stroke-linecap: round"/>
   </g>
   <g id="patch_64">
    <path d="M 162.95175 194.204664 
L 211.49775 194.204664 
Q 222.82515 194.204664 222.82515 187.29684 
L 222.82515 147.82356 
Q 222.82515 140.915736 211.49775 140.915736 
L 162.95175 140.915736 
Q 151.62435 140.915736 151.62435 147.82356 
L 151.62435 187.29684 
Q 151.62435 194.204664 162.95175 194.204664 
z
" clip-path="url(#pba23793863)" style="fill: #ffffff; stroke: #2469a6; stroke-width: 1.1; stroke-linejoin: miter"/>
   </g>
   <g id="patch_65">
    <path d="M 171.04275 187.29684 
L 178.32465 187.29684 
L 178.32465 181.869264 
L 171.04275 181.869264 
z
" clip-path="url(#pba23793863)" style="fill: #ffffff; stroke: #2469a6; stroke-width: 0.65; stroke-linejoin: miter"/>
   </g>
   <g id="patch_66">
    <path d="M 178.32465 187.29684 
L 185.60655 187.29684 
L 185.60655 177.921936 
L 178.32465 177.921936 
z
" clip-path="url(#pba23793863)" style="fill: #ddecf8; stroke: #2469a6; stroke-width: 0.65; stroke-linejoin: miter"/>
   </g>
   <g id="patch_67">
    <path d="M 185.60655 187.29684 
L 192.88845 187.29684 
L 192.88845 180.389016 
L 185.60655 180.389016 
z
" clip-path="url(#pba23793863)" style="fill: #ffffff; stroke: #2469a6; stroke-width: 0.65; stroke-linejoin: miter"/>
   </g>
   <g id="patch_68">
    <path d="M 192.88845 187.29684 
L 200.17035 187.29684 
L 200.17035 174.96144 
L 192.88845 174.96144 
z
" clip-path="url(#pba23793863)" style="fill: #ddecf8; stroke: #2469a6; stroke-width: 0.65; stroke-linejoin: miter"/>
   </g>
   <g id="patch_69">
    <path d="M 127.541279 164.599704 
Q 140.702448 164.599704 152.857385 164.599704 
" clip-path="url(#pba23793863)" style="fill: none; stroke: #2469a6; stroke-width: 0.9; stroke-linecap: round"/>
    <path d="M 149.257385 162.799704 
L 152.857385 164.599704 
L 149.257385 166.399704 
z
" clip-path="url(#pba23793863)" style="fill: #2469a6; stroke: #2469a6; stroke-width: 0.9; stroke-linecap: round"/>
   </g>
   <g id="patch_70">
    <path d="M 241.839 194.204664 
L 290.385 194.204664 
Q 301.7124 194.204664 301.7124 187.29684 
L 301.7124 147.82356 
Q 301.7124 140.915736 290.385 140.915736 
L 241.839 140.915736 
Q 230.5116 140.915736 230.5116 147.82356 
L 230.5116 187.29684 
Q 230.5116 194.204664 241.839 194.204664 
z
" clip-path="url(#pba23793863)" style="fill: #ffffff; stroke: #2f8f87; stroke-width: 1.1; stroke-linejoin: miter"/>
   </g>
   <g id="patch_71">
    <path d="M 246.61269 189.606027 
L 258.91101 189.606027 
Q 262.14741 189.606027 262.14741 187.632363 
L 262.14741 183.507405 
Q 262.14741 181.533741 258.91101 181.533741 
L 246.61269 181.533741 
Q 243.37629 181.533741 243.37629 183.507405 
L 243.37629 187.632363 
Q 243.37629 189.606027 246.61269 189.606027 
z
" clip-path="url(#pba23793863)" style="fill: #ffffff; stroke: #2f8f87; stroke-width: 0.9; stroke-linejoin: miter"/>
   </g>
   <g id="patch_72">
    <path d="M 249.68727 186.113628 
C 249.842194 186.113628 249.990793 186.076092 250.100341 186.009286 
C 250.209888 185.942481 250.27144 185.85186 250.27144 185.757382 
C 250.27144 185.662904 250.209888 185.572284 250.100341 185.505478 
C 249.990793 185.438672 249.842194 185.401136 249.68727 185.401136 
C 249.532346 185.401136 249.383747 185.438672 249.274199 185.505478 
C 249.164652 185.572284 249.1031 185.662904 249.1031 185.757382 
C 249.1031 185.85186 249.164652 185.942481 249.274199 186.009286 
C 249.383747 186.076092 249.532346 186.113628 249.68727 186.113628 
z
" clip-path="url(#pba23793863)" style="fill: #2f8f87"/>
   </g>
   <g id="patch_73">
    <path d="M 252.76185 186.113628 
C 252.916774 186.113628 253.065373 186.076092 253.174921 186.009286 
C 253.284468 185.942481 253.34602 185.85186 253.34602 185.757382 
C 253.34602 185.662904 253.284468 185.572284 253.174921 185.505478 
C 253.065373 185.438672 252.916774 185.401136 252.76185 185.401136 
C 252.606926 185.401136 252.458327 185.438672 252.348779 185.505478 
C 252.239232 185.572284 252.17768 185.662904 252.17768 185.757382 
C 252.17768 185.85186 252.239232 185.942481 252.348779 186.009286 
C 252.458327 186.076092 252.606926 186.113628 252.76185 186.113628 
z
" clip-path="url(#pba23793863)" style="fill: #2f8f87"/>
   </g>
   <g id="patch_74">
    <path d="M 255.83643 186.113628 
C 255.991354 186.113628 256.139953 186.076092 256.249501 186.009286 
C 256.359048 185.942481 256.4206 185.85186 256.4206 185.757382 
C 256.4206 185.662904 256.359048 185.572284 256.249501 185.505478 
C 256.139953 185.438672 255.991354 185.401136 255.83643 185.401136 
C 255.681506 185.401136 255.532907 185.438672 255.423359 185.505478 
C 255.313812 185.572284 255.25226 185.662904 255.25226 185.757382 
C 255.25226 185.85186 255.313812 185.942481 255.423359 186.009286 
C 255.532907 186.076092 255.681506 186.113628 255.83643 186.113628 
z
" clip-path="url(#pba23793863)" style="fill: #2f8f87"/>
   </g>
   <g id="patch_75">
    <path d="M 253.914634 179.571147 
C 253.7826 179.489709 253.609276 179.423409 253.40891 179.377698 
C 253.208545 179.331987 252.986782 179.308151 252.76185 179.308151 
C 252.536918 179.308151 252.315155 179.331987 252.11479 179.377698 
C 251.914424 179.423409 251.7411 179.489709 251.609066 179.571147 
" clip-path="url(#pba23793863)" style="fill: none; opacity: 0.85; stroke: #2f8f87; stroke-width: 0.65; stroke-linejoin: miter"/>
   </g>
   <g id="patch_76">
    <path d="M 254.642709 179.335066 
C 254.427284 179.202193 254.144493 179.09402 253.81758 179.019439 
C 253.490668 178.944857 253.128844 178.905968 252.76185 178.905968 
C 252.394856 178.905968 252.033032 178.944857 251.70612 179.019439 
C 251.379207 179.09402 251.096416 179.202193 250.880991 179.335066 
" clip-path="url(#pba23793863)" style="fill: none; opacity: 0.73; stroke: #2f8f87; stroke-width: 0.65; stroke-linejoin: miter"/>
   </g>
   <g id="patch_77">
    <path d="M 255.370783 179.098985 
C 255.071968 178.914678 254.679709 178.764631 254.22625 178.661179 
C 253.77279 178.557727 253.270906 178.503784 252.76185 178.503784 
C 252.252794 178.503784 251.75091 178.557727 251.29745 178.661179 
C 250.843991 178.764631 250.451732 178.914678 250.152917 179.098985 
" clip-path="url(#pba23793863)" style="fill: none; opacity: 0.61; stroke: #2f8f87; stroke-width: 0.65; stroke-linejoin: miter"/>
   </g>
   <g id="patch_78">
    <path d="M 252.76185 180.462905 
C 252.881101 180.462905 252.995483 180.434012 253.079806 180.382589 
C 253.164129 180.331166 253.211507 180.261412 253.211507 180.188689 
C 253.211507 180.115966 253.164129 180.046212 253.079806 179.994789 
C 252.995483 179.943366 252.881101 179.914473 252.76185 179.914473 
C 252.642599 179.914473 252.528217 179.943366 252.443894 179.994789 
C 252.359571 180.046212 252.312193 180.115966 252.312193 180.188689 
C 252.312193 180.261412 252.359571 180.331166 252.443894 180.382589 
C 252.528217 180.434012 252.642599 180.462905 252.76185 180.462905 
z
" clip-path="url(#pba23793863)" style="fill: #2f8f87"/>
   </g>
   <g id="patch_79">
    <path d="M 273.31299 189.606027 
L 285.61131 189.606027 
Q 288.84771 189.606027 288.84771 187.632363 
L 288.84771 183.507405 
Q 288.84771 181.533741 285.61131 181.533741 
L 273.31299 181.533741 
Q 270.07659 181.533741 270.07659 183.507405 
L 270.07659 187.632363 
Q 270.07659 189.606027 273.31299 189.606027 
z
" clip-path="url(#pba23793863)" style="fill: #ffffff; stroke: #2f8f87; stroke-width: 0.9; stroke-linejoin: miter"/>
   </g>
   <g id="patch_80">
    <path d="M 276.38757 186.113628 
C 276.542494 186.113628 276.691093 186.076092 276.800641 186.009286 
C 276.910188 185.942481 276.97174 185.85186 276.97174 185.757382 
C 276.97174 185.662904 276.910188 185.572284 276.800641 185.505478 
C 276.691093 185.438672 276.542494 185.401136 276.38757 185.401136 
C 276.232646 185.401136 276.084047 185.438672 275.974499 185.505478 
C 275.864952 185.572284 275.8034 185.662904 275.8034 185.757382 
C 275.8034 185.85186 275.864952 185.942481 275.974499 186.009286 
C 276.084047 186.076092 276.232646 186.113628 276.38757 186.113628 
z
" clip-path="url(#pba23793863)" style="fill: #2f8f87"/>
   </g>
   <g id="patch_81">
    <path d="M 279.46215 186.113628 
C 279.617074 186.113628 279.765673 186.076092 279.875221 186.009286 
C 279.984768 185.942481 280.04632 185.85186 280.04632 185.757382 
C 280.04632 185.662904 279.984768 185.572284 279.875221 185.505478 
C 279.765673 185.438672 279.617074 185.401136 279.46215 185.401136 
C 279.307226 185.401136 279.158627 185.438672 279.049079 185.505478 
C 278.939532 185.572284 278.87798 185.662904 278.87798 185.757382 
C 278.87798 185.85186 278.939532 185.942481 279.049079 186.009286 
C 279.158627 186.076092 279.307226 186.113628 279.46215 186.113628 
z
" clip-path="url(#pba23793863)" style="fill: #2f8f87"/>
   </g>
   <g id="patch_82">
    <path d="M 282.53673 186.113628 
C 282.691654 186.113628 282.840253 186.076092 282.949801 186.009286 
C 283.059348 185.942481 283.1209 185.85186 283.1209 185.757382 
C 283.1209 185.662904 283.059348 185.572284 282.949801 185.505478 
C 282.840253 185.438672 282.691654 185.401136 282.53673 185.401136 
C 282.381806 185.401136 282.233207 185.438672 282.123659 185.505478 
C 282.014112 185.572284 281.95256 185.662904 281.95256 185.757382 
C 281.95256 185.85186 282.014112 185.942481 282.123659 186.009286 
C 282.233207 186.076092 282.381806 186.113628 282.53673 186.113628 
z
" clip-path="url(#pba23793863)" style="fill: #2f8f87"/>
   </g>
   <g id="patch_83">
    <path d="M 280.614934 179.571147 
C 280.4829 179.489709 280.309576 179.423409 280.10921 179.377698 
C 279.908845 179.331987 279.687082 179.308151 279.46215 179.308151 
C 279.237218 179.308151 279.015455 179.331987 278.81509 179.377698 
C 278.614724 179.423409 278.4414 179.489709 278.309366 179.571147 
" clip-path="url(#pba23793863)" style="fill: none; opacity: 0.85; stroke: #2f8f87; stroke-width: 0.65; stroke-linejoin: miter"/>
   </g>
   <g id="patch_84">
    <path d="M 281.343009 179.335066 
C 281.127584 179.202193 280.844793 179.09402 280.51788 179.019439 
C 280.190968 178.944857 279.829144 178.905968 279.46215 178.905968 
C 279.095156 178.905968 278.733332 178.944857 278.40642 179.019439 
C 278.079507 179.09402 277.796716 179.202193 277.581291 179.335066 
" clip-path="url(#pba23793863)" style="fill: none; opacity: 0.73; stroke: #2f8f87; stroke-width: 0.65; stroke-linejoin: miter"/>
   </g>
   <g id="patch_85">
    <path d="M 282.071083 179.098985 
C 281.772268 178.914678 281.380009 178.764631 280.92655 178.661179 
C 280.47309 178.557727 279.971206 178.503784 279.46215 178.503784 
C 278.953094 178.503784 278.45121 178.557727 277.99775 178.661179 
C 277.544291 178.764631 277.152032 178.914678 276.853217 179.098985 
" clip-path="url(#pba23793863)" style="fill: none; opacity: 0.61; stroke: #2f8f87; stroke-width: 0.65; stroke-linejoin: miter"/>
   </g>
   <g id="patch_86">
    <path d="M 279.46215 180.462905 
C 279.581401 180.462905 279.695783 180.434012 279.780106 180.382589 
C 279.864429 180.331166 279.911807 180.261412 279.911807 180.188689 
C 279.911807 180.115966 279.864429 180.046212 279.780106 179.994789 
C 279.695783 179.943366 279.581401 179.914473 279.46215 179.914473 
C 279.342899 179.914473 279.228517 179.943366 279.144194 179.994789 
C 279.059871 180.046212 279.012493 180.115966 279.012493 180.188689 
C 279.012493 180.261412 279.059871 180.331166 279.144194 180.382589 
C 279.228517 180.434012 279.342899 180.462905 279.46215 180.462905 
z
" clip-path="url(#pba23793863)" style="fill: #2f8f87"/>
   </g>
   <g id="patch_87">
    <path d="M 263.879666 182.856096 
Q 267.52941 182.856096 270.39653 182.856096 
" clip-path="url(#pba23793863)" style="fill: none; stroke: #2f8f87; stroke-width: 0.7; stroke-linecap: round"/>
    <path d="M 268.39653 181.856096 
L 270.39653 182.856096 
L 268.39653 183.856096 
z
" clip-path="url(#pba23793863)" style="fill: #2f8f87; stroke: #2f8f87; stroke-width: 0.7; stroke-linecap: round"/>
   </g>
   <g id="patch_88">
    <path d="M 127.540106 164.599704 
Q 180.143287 164.599704 231.740236 164.599704 
" clip-path="url(#pba23793863)" style="fill: none; stroke: #2f8f87; stroke-width: 0.9; stroke-linecap: round"/>
    <path d="M 228.140236 162.799704 
L 231.740236 164.599704 
L 228.140236 166.399704 
z
" clip-path="url(#pba23793863)" style="fill: #2f8f87; stroke: #2f8f87; stroke-width: 0.9; stroke-linecap: round"/>
   </g>
   <g id="patch_89">
    <path d="M 320.72625 194.204664 
L 369.27225 194.204664 
Q 380.59965 194.204664 380.59965 187.29684 
L 380.59965 147.82356 
Q 380.59965 140.915736 369.27225 140.915736 
L 320.72625 140.915736 
Q 309.39885 140.915736 309.39885 147.82356 
L 309.39885 187.29684 
Q 309.39885 194.204664 320.72625 194.204664 
z
" clip-path="url(#pba23793863)" style="fill: #ffffff; stroke: #d88922; stroke-width: 1.1; stroke-linejoin: miter"/>
   </g>
   <g id="patch_90">
    <path d="M 329.504985 187.642231 
C 330.728067 187.642231 331.90122 187.345891 332.76607 186.818477 
C 333.630919 186.291063 334.116855 185.575636 334.116855 184.82976 
C 334.116855 184.083884 333.630919 183.368457 332.76607 182.841043 
C 331.90122 182.313629 330.728067 182.017289 329.504985 182.017289 
C 328.281903 182.017289 327.10875 182.313629 326.2439 182.841043 
C 325.379051 183.368457 324.893115 184.083884 324.893115 184.82976 
C 324.893115 185.575636 325.379051 186.291063 326.2439 186.818477 
C 327.10875 187.345891 328.281903 187.642231 329.504985 187.642231 
z
" clip-path="url(#pba23793863)" style="fill: #ffffff; stroke: #d88922; stroke-width: 0.9; stroke-linejoin: miter"/>
   </g>
   <g id="patch_91">
    <path d="M 334.8855 186.892239 
C 336.516276 186.892239 338.08048 186.497119 339.233613 185.793901 
C 340.386746 185.090682 341.03466 184.136779 341.03466 183.142277 
C 341.03466 182.147776 340.386746 181.193873 339.233613 180.490654 
C 338.08048 179.787435 336.516276 179.392316 334.8855 179.392316 
C 333.254724 179.392316 331.69052 179.787435 330.537387 180.490654 
C 329.384254 181.193873 328.73634 182.147776 328.73634 183.142277 
C 328.73634 184.136779 329.384254 185.090682 330.537387 185.793901 
C 331.69052 186.497119 333.254724 186.892239 334.8855 186.892239 
z
" clip-path="url(#pba23793863)" style="fill: #ffffff; stroke: #d88922; stroke-width: 0.9; stroke-linejoin: miter"/>
   </g>
   <g id="patch_92">
    <path d="M 341.342118 188.017227 
C 342.728278 188.017227 344.057851 187.681376 345.038014 187.08364 
C 346.018177 186.485904 346.568904 185.675086 346.568904 184.82976 
C 346.568904 183.984434 346.018177 183.173616 345.038014 182.57588 
C 344.057851 181.978144 342.728278 181.642293 341.342118 181.642293 
C 339.955958 181.642293 338.626385 181.978144 337.646222 182.57588 
C 336.666059 183.173616 336.115332 183.984434 336.115332 184.82976 
C 336.115332 185.675086 336.666059 186.485904 337.646222 187.08364 
C 338.626385 187.681376 339.955958 188.017227 341.342118 188.017227 
z
" clip-path="url(#pba23793863)" style="fill: #ffffff; stroke: #d88922; stroke-width: 0.9; stroke-linejoin: miter"/>
   </g>
   <g id="patch_93">
    <path d="M 325.046844 187.642231 
L 345.031614 187.642231 
L 345.031614 184.361015 
L 325.046844 184.361015 
z
" clip-path="url(#pba23793863)" style="fill: #ffffff; stroke: #d88922; stroke-width: 0.9; stroke-linejoin: miter"/>
   </g>
   <g id="patch_94">
    <path d="M 353.41389 190.928382 
L 362.47581 190.928382 
Q 366.52131 190.928382 366.52131 188.461302 
L 366.52131 181.198218 
Q 366.52131 178.731138 362.47581 178.731138 
L 353.41389 178.731138 
Q 349.36839 178.731138 349.36839 181.198218 
L 349.36839 188.461302 
Q 349.36839 190.928382 353.41389 190.928382 
z
" clip-path="url(#pba23793863)" style="fill: #ffffff; stroke: #d88922; stroke-width: 0.9; stroke-linejoin: miter"/>
   </g>
   <g id="patch_95">
    <path d="M 357.94485 186.132378 
C 358.983397 186.132378 359.979548 185.880749 360.713911 185.43291 
C 361.448275 184.985071 361.860894 184.377585 361.860894 183.744245 
C 361.860894 183.110904 361.448275 182.503419 360.713911 182.055579 
C 359.979548 181.60774 358.983397 181.356111 357.94485 181.356111 
C 356.906303 181.356111 355.910152 181.60774 355.175789 182.055579 
C 354.441425 182.503419 354.028806 183.110904 354.028806 183.744245 
C 354.028806 184.377585 354.441425 184.985071 355.175789 185.43291 
C 355.910152 185.880749 356.906303 186.132378 357.94485 186.132378 
z
" clip-path="url(#pba23793863)" style="fill: #ddecf8; stroke: #d88922; stroke-width: 0.8; stroke-linejoin: miter"/>
   </g>
   <g id="patch_96">
    <path d="M 360.687368 182.964355 
C 360.443956 182.646023 360.056498 182.376592 359.570737 182.187871 
C 359.084976 181.999149 358.520812 181.898869 357.94485 181.898869 
C 357.368888 181.898869 356.804724 181.999149 356.318963 182.187871 
C 355.833202 182.376592 355.445744 182.646023 355.202332 182.964355 
" clip-path="url(#pba23793863)" style="fill: none; stroke: #d88922; stroke-width: 0.8; stroke-linejoin: miter"/>
   </g>
   <g id="patch_97">
    <path d="M 357.94485 184.124175 
C 358.110073 184.124175 358.268552 184.084143 358.385382 184.012896 
C 358.502213 183.941649 358.567857 183.845003 358.567857 183.744245 
C 358.567857 183.643486 358.502213 183.546841 358.385382 183.475593 
C 358.268552 183.404346 358.110073 183.364314 357.94485 183.364314 
C 357.779627 183.364314 357.621148 183.404346 357.504318 183.475593 
C 357.387487 183.546841 357.321843 183.643486 357.321843 183.744245 
C 357.321843 183.845003 357.387487 183.941649 357.504318 184.012896 
C 357.621148 184.084143 357.779627 184.124175 357.94485 184.124175 
z
" clip-path="url(#pba23793863)" style="fill: #d88922"/>
   </g>
   <g id="patch_98">
    <path d="M 362.935638 181.774366 
C 362.853317 181.723591 362.745253 181.682254 362.620328 181.653754 
C 362.495404 181.625254 362.357139 181.610393 362.216898 181.610393 
C 362.076657 181.610393 361.938392 181.625254 361.813468 181.653754 
C 361.688543 181.682254 361.580479 181.723591 361.498158 181.774366 
" clip-path="url(#pba23793863)" style="fill: none; opacity: 0.85; stroke: #d88922; stroke-width: 0.5; stroke-linejoin: miter"/>
   </g>
   <g id="patch_99">
    <path d="M 363.389579 181.627174 
C 363.255266 181.54433 363.078951 181.476886 362.875127 181.430386 
C 362.671302 181.383886 362.445712 181.359639 362.216898 181.359639 
C 361.988084 181.359639 361.762494 181.383886 361.558669 181.430386 
C 361.354845 181.476886 361.17853 181.54433 361.044217 181.627174 
" clip-path="url(#pba23793863)" style="fill: none; opacity: 0.73; stroke: #d88922; stroke-width: 0.5; stroke-linejoin: miter"/>
   </g>
   <g id="patch_100">
    <path d="M 363.84352 181.479982 
C 363.657215 181.36507 363.412648 181.271518 363.129925 181.207018 
C 362.847201 181.142518 362.534285 181.108885 362.216898 181.108885 
C 361.899511 181.108885 361.586595 181.142518 361.303871 181.207018 
C 361.021148 181.271518 360.776581 181.36507 360.590276 181.479982 
" clip-path="url(#pba23793863)" style="fill: none; opacity: 0.61; stroke: #d88922; stroke-width: 0.5; stroke-linejoin: miter"/>
   </g>
   <g id="patch_101">
    <path d="M 362.216898 182.330361 
C 362.291249 182.330361 362.362564 182.312347 362.415138 182.280286 
C 362.467711 182.248224 362.497251 182.204734 362.497251 182.159393 
C 362.497251 182.114051 362.467711 182.070561 362.415138 182.0385 
C 362.362564 182.006438 362.291249 181.988424 362.216898 181.988424 
C 362.142547 181.988424 362.071232 182.006438 362.018658 182.0385 
C 361.966085 182.070561 361.936545 182.114051 361.936545 182.159393 
C 361.936545 182.204734 361.966085 182.248224 362.018658 182.280286 
C 362.071232 182.312347 362.142547 182.330361 362.216898 182.330361 
z
" clip-path="url(#pba23793863)" style="fill: #d88922"/>
   </g>
   <g id="patch_102">
    <path d="M 127.544613 164.599704 
Q 219.588625 164.599704 310.626407 164.599704 
" clip-path="url(#pba23793863)" style="fill: none; stroke: #d88922; stroke-width: 0.9; stroke-linecap: round"/>
    <path d="M 307.026407 162.799704 
L 310.626407 164.599704 
L 307.026407 166.399704 
z
" clip-path="url(#pba23793863)" style="fill: #d88922; stroke: #d88922; stroke-width: 0.9; stroke-linecap: round"/>
   </g>
   <g id="patch_103">
    <path d="M 109.1466 241.079184 
L 313.8489 241.079184 
Q 323.96265 241.079184 323.96265 234.911484 
L 323.96265 217.395216 
Q 323.96265 211.227516 313.8489 211.227516 
L 109.1466 211.227516 
Q 99.03285 211.227516 99.03285 217.395216 
L 99.03285 234.911484 
Q 99.03285 241.079184 109.1466 241.079184 
z
" clip-path="url(#pba23793863)" style="fill: #f8fafb; stroke: #b8c7d1; stroke-linejoin: miter"/>
   </g>
   <g id="patch_104">
    <path d="M 119.6649 236.63844 
L 153.6471 236.63844 
Q 160.1199 236.63844 160.1199 232.691112 
L 160.1199 225.783288 
Q 160.1199 221.83596 153.6471 221.83596 
L 119.6649 221.83596 
Q 113.1921 221.83596 113.1921 225.783288 
L 113.1921 232.691112 
Q 113.1921 236.63844 119.6649 236.63844 
z
" clip-path="url(#pba23793863)" style="fill: #ffffff; stroke: #b8c7d1; stroke-width: 0.8; stroke-linejoin: miter"/>
   </g>
   <g id="patch_105">
    <path d="M 167.4018 236.63844 
L 201.384 236.63844 
Q 207.8568 236.63844 207.8568 232.691112 
L 207.8568 225.783288 
Q 207.8568 221.83596 201.384 221.83596 
L 167.4018 221.83596 
Q 160.929 221.83596 160.929 225.783288 
L 160.929 232.691112 
Q 160.929 236.63844 167.4018 236.63844 
z
" clip-path="url(#pba23793863)" style="fill: #ffffff; stroke: #b8c7d1; stroke-width: 0.8; stroke-linejoin: miter"/>
   </g>
   <g id="patch_106">
    <path d="M 215.1387 236.63844 
L 249.1209 236.63844 
Q 255.5937 236.63844 255.5937 232.691112 
L 255.5937 225.783288 
Q 255.5937 221.83596 249.1209 221.83596 
L 215.1387 221.83596 
Q 208.6659 221.83596 208.6659 225.783288 
L 208.6659 232.691112 
Q 208.6659 236.63844 215.1387 236.63844 
z
" clip-path="url(#pba23793863)" style="fill: #ffffff; stroke: #b8c7d1; stroke-width: 0.8; stroke-linejoin: miter"/>
   </g>
   <g id="patch_107">
    <path d="M 262.8756 236.63844 
L 296.8578 236.63844 
Q 303.3306 236.63844 303.3306 232.691112 
L 303.3306 225.783288 
Q 303.3306 221.83596 296.8578 221.83596 
L 262.8756 221.83596 
Q 256.4028 221.83596 256.4028 225.783288 
L 256.4028 232.691112 
Q 256.4028 236.63844 262.8756 236.63844 
z
" clip-path="url(#pba23793863)" style="fill: #ffffff; stroke: #b8c7d1; stroke-width: 0.8; stroke-linejoin: miter"/>
   </g>
   <g id="patch_108">
    <path d="M 187.917074 192.956963 
Q 198.376239 203.8568 209.860014 212.0382 
" clip-path="url(#pba23793863)" style="fill: none; stroke: #b8c7d1; stroke-width: 0.9; stroke-linecap: round"/>
    <path d="M 207.972432 208.483339 
L 209.860014 212.0382 
L 205.883576 211.415349 
z
" clip-path="url(#pba23793863)" style="fill: #b8c7d1; stroke: #b8c7d1; stroke-width: 0.9; stroke-linecap: round"/>
   </g>
   <g id="patch_109">
    <path d="M 265.146883 192.496679 
Q 237.790052 200.077188 213.290364 212.304636 
" clip-path="url(#pba23793863)" style="fill: none; stroke: #b8c7d1; stroke-width: 0.9; stroke-linecap: round"/>
    <path d="M 217.315285 212.30758 
L 213.290364 212.304636 
L 215.707672 209.086465 
z
" clip-path="url(#pba23793863)" style="fill: #b8c7d1; stroke: #b8c7d1; stroke-width: 0.9; stroke-linecap: round"/>
   </g>
   <g id="patch_110">
    <path d="M 344.002072 192.287765 
Q 277.215741 196.138454 213.439104 212.696405 
" clip-path="url(#pba23793863)" style="fill: none; stroke: #b8c7d1; stroke-width: 0.9; stroke-linecap: round"/>
    <path d="M 217.375911 213.53399 
L 213.439104 212.696405 
L 216.471256 210.04951 
z
" clip-path="url(#pba23793863)" style="fill: #b8c7d1; stroke: #b8c7d1; stroke-width: 0.9; stroke-linecap: round"/>
   </g>
   <g id="line2d_13">
    <path d="M 33.0912 64.567011 
L 34.490134 63.957642 
" clip-path="url(#pba23793863)" style="fill: none; stroke: #2469a6; stroke-linecap: square"/>
   </g>
   <g id="line2d_14">
    <path d="M 29.709162 98.77801 
L 36.473238 98.77801 
" clip-path="url(#pba23793863)" style="fill: none; stroke: #d88922; stroke-width: 0.65; stroke-linecap: square"/>
   </g>
   <g id="line2d_15">
    <path d="M 29.709162 99.7155 
L 36.473238 99.7155 
" clip-path="url(#pba23793863)" style="fill: none; stroke: #d88922; stroke-width: 0.65; stroke-linecap: square"/>
   </g>
   <g id="line2d_16">
    <path d="M 29.709162 100.65299 
L 36.473238 100.65299 
" clip-path="url(#pba23793863)" style="fill: none; stroke: #d88922; stroke-width: 0.65; stroke-linecap: square"/>
   </g>
   <g id="line2d_17">
    <path d="M 125.3286 93.5478 
L 165.7836 93.5478 
" clip-path="url(#pba23793863)" style="fill: none; stroke: #2f8f87; stroke-width: 0.9; stroke-linecap: square"/>
   </g>
   <g id="line2d_18">
    <path d="M 207.921528 65.17638 
L 213.747048 69.084235 
L 223.06788 60.380376 
" clip-path="url(#pba23793863)" style="fill: none; stroke: #b94747; stroke-linecap: square"/>
   </g>
   <g id="line2d_19">
    <path d="M 248.14998 183.694903 
L 244.767942 180.694934 
" clip-path="url(#pba23793863)" style="fill: none; stroke: #2f8f87; stroke-width: 0.9; stroke-linecap: square"/>
   </g>
   <g id="line2d_20">
    <path d="M 257.37372 183.694903 
L 260.755758 180.694934 
" clip-path="url(#pba23793863)" style="fill: none; stroke: #2f8f87; stroke-width: 0.9; stroke-linecap: square"/>
   </g>
   <g id="line2d_21">
    <path d="M 274.85028 183.694903 
L 271.468242 180.694934 
" clip-path="url(#pba23793863)" style="fill: none; stroke: #2f8f87; stroke-width: 0.9; stroke-linecap: square"/>
   </g>
   <g id="line2d_22">
    <path d="M 284.07402 183.694903 
L 287.456058 180.694934 
" clip-path="url(#pba23793863)" style="fill: none; stroke: #2f8f87; stroke-width: 0.9; stroke-linecap: square"/>
   </g>
   <g id="line2d_23">
    <path d="M 357.94485 183.744245 
L 360.436878 182.65873 
" clip-path="url(#pba23793863)" style="fill: none; stroke: #d88922; stroke-linecap: square"/>
   </g>
   <g id="text_1">
    <text style="fill: #1f2a33; font: 700 10px 'Arial', 'Helvetica', 'DejaVu Sans', sans-serif; text-anchor: start" x="19.3365" y="20.954985" transform="rotate(-0 19.3365 20.954985)">LAM-MQTT pipeline for MQTT-based IoT traffic</text>
   </g>
   <g id="text_2">
    <text style="fill: #5a6b76; font: 6.9px 'Arial', 'Helvetica', 'DejaVu Sans', sans-serif; text-anchor: start" x="19.3365" y="29.953938" transform="rotate(-0 19.3365 29.953938)">Packet, biflow, and flow-window metadata are audited before within-dataset and transfer evaluation</text>
   </g>
   <g id="text_3">
    <text style="fill: #143b63; font: 700 7px 'Arial', 'Helvetica', 'DejaVu Sans', sans-serif" transform="translate(37.667953 50.465111)">MQTT / IoT</text>
    <text style="fill: #143b63; font: 700 7px 'Arial', 'Helvetica', 'DejaVu Sans', sans-serif" transform="translate(31.627172 57.85908)">traffic sources</text>
   </g>
   <g id="text_4">
    <text style="fill: #1f2a33; font: 4.45px 'Arial', 'Helvetica', 'DejaVu Sans', sans-serif" transform="translate(49.925779 63.480004)">MQTTEEB-D</text>
    <text style="fill: #1f2a33; font: 4.45px 'Arial', 'Helvetica', 'DejaVu Sans', sans-serif" transform="translate(49.796103 68.186713)">packet traces</text>
   </g>
   <g id="text_5">
    <text style="fill: #1f2a33; font: 4.45px 'Arial', 'Helvetica', 'DejaVu Sans', sans-serif" transform="translate(43.616166 80.749564)">MQTT-IoT-IDS2020</text>
    <text style="fill: #1f2a33; font: 4.45px 'Arial', 'Helvetica', 'DejaVu Sans', sans-serif" transform="translate(48.68256 85.456273)">biflow features</text>
   </g>
   <g id="text_6">
    <text style="fill: #1f2a33; font: 4.45px 'Arial', 'Helvetica', 'DejaVu Sans', sans-serif" transform="translate(56.720373 98.019124)">IoT-23</text>
    <text style="fill: #1f2a33; font: 4.45px 'Arial', 'Helvetica', 'DejaVu Sans', sans-serif" transform="translate(49.425502 102.725833)">external flows</text>
   </g>
   <g id="text_7">
    <text style="fill: #5a6b76; font: 5.3px 'Arial', 'Helvetica', 'DejaVu Sans', sans-serif; text-anchor: middle" x="55.746" y="109.720413" transform="rotate(-0 55.746 109.720413)">raw datasets not redistributed</text>
   </g>
   <g id="text_8">
    <text style="fill: #2f8f87; font: 700 7px 'Arial', 'Helvetica', 'DejaVu Sans', sans-serif" transform="translate(124.138016 55.892687)">MQTT traffic</text>
    <text style="fill: #2f8f87; font: 700 7px 'Arial', 'Helvetica', 'DejaVu Sans', sans-serif" transform="translate(120.436766 63.286656)">representation</text>
   </g>
   <g id="text_9">
    <text style="fill: #1f2a33; font: 5.2px 'Arial', 'Helvetica', 'DejaVu Sans', sans-serif; text-anchor: middle" x="147.781125" y="72.194945" transform="rotate(-0 147.781125 72.194945)">packet-level</text>
   </g>
   <g id="text_10">
    <text style="fill: #1f2a33; font: 5.2px 'Arial', 'Helvetica', 'DejaVu Sans', sans-serif; text-anchor: middle" x="147.781125" y="85.763885" transform="rotate(-0 147.781125 85.763885)">biflow</text>
   </g>
   <g id="text_11">
    <text style="fill: #1f2a33; font: 5.2px 'Arial', 'Helvetica', 'DejaVu Sans', sans-serif; text-anchor: middle" x="147.781125" y="99.332825" transform="rotate(-0 147.781125 99.332825)">1/5/10 s flow windows</text>
   </g>
   <g id="text_12">
    <text style="fill: #b94747; font: 700 6.7px 'Arial', 'Helvetica', 'DejaVu Sans', sans-serif; text-anchor: middle" x="239.00715" y="49.640445" transform="rotate(-0 239.00715 49.640445)">MQTT leakage audit</text>
   </g>
   <g id="text_13">
    <text style="fill: #b94747; font: 5.8px 'Arial', 'Helvetica', 'DejaVu Sans', sans-serif; text-anchor: start" x="241.0299" y="66.675771" transform="rotate(-0 241.0299 66.675771)">quarantine</text>
   </g>
   <g id="text_14">
    <text style="fill: #1f2a33; font: 4.9px 'Arial', 'Helvetica', 'DejaVu Sans', sans-serif; text-anchor: middle" x="222.4206" y="77.051551" transform="rotate(-0 222.4206 77.051551)">topic raw</text>
   </g>
   <g id="text_15">
    <text style="fill: #1f2a33; font: 4.9px 'Arial', 'Helvetica', 'DejaVu Sans', sans-serif; text-anchor: middle" x="255.5937" y="77.02284" transform="rotate(-0 255.5937 77.02284)">payload</text>
   </g>
   <g id="text_16">
    <text style="fill: #1f2a33; font: 4.9px 'Arial', 'Helvetica', 'DejaVu Sans', sans-serif; text-anchor: middle" x="222.4206" y="88.153411" transform="rotate(-0 222.4206 88.153411)">client ID</text>
   </g>
   <g id="text_17">
    <text style="fill: #1f2a33; font: 4.9px 'Arial', 'Helvetica', 'DejaVu Sans', sans-serif; text-anchor: middle" x="255.5937" y="88.18327" transform="rotate(-0 255.5937 88.18327)">username/pass</text>
   </g>
   <g id="text_18">
    <text style="fill: #1f2a33; font: 4.9px 'Arial', 'Helvetica', 'DejaVu Sans', sans-serif; text-anchor: middle" x="222.4206" y="99.255271" transform="rotate(-0 222.4206 99.255271)">label</text>
   </g>
   <g id="text_19">
    <text style="fill: #1f2a33; font: 4.9px 'Arial', 'Helvetica', 'DejaVu Sans', sans-serif; text-anchor: middle" x="255.5937" y="99.255271" transform="rotate(-0 255.5937 99.255271)">scenario/file</text>
   </g>
   <g id="text_20">
    <text style="fill: #1f2a33; font: 4.9px 'Arial', 'Helvetica', 'DejaVu Sans', sans-serif; text-anchor: middle" x="222.4206" y="110.357131" transform="rotate(-0 222.4206 110.357131)">raw IP</text>
   </g>
   <g id="text_21">
    <text style="fill: #1f2a33; font: 4.9px 'Arial', 'Helvetica', 'DejaVu Sans', sans-serif; text-anchor: middle" x="255.5937" y="110.357131" transform="rotate(-0 255.5937 110.357131)">exact time</text>
   </g>
   <g id="text_22">
    <text style="fill: #d88922; font: 700 7px 'Arial', 'Helvetica', 'DejaVu Sans', sans-serif; text-anchor: middle" x="345.80835" y="59.632327" transform="rotate(-0 345.80835 59.632327)">Metadata feature policies</text>
   </g>
   <g id="text_23">
    <text style="fill: #1f2a33; font: 5px 'Arial', 'Helvetica', 'DejaVu Sans', sans-serif; text-anchor: middle" x="348.6402" y="68.442622" transform="rotate(-0 348.6402 68.442622)">full audited metadata</text>
   </g>
   <g id="text_24">
    <text style="fill: #1f2a33; font: 5px 'Arial', 'Helvetica', 'DejaVu Sans', sans-serif; text-anchor: middle" x="348.6402" y="80.284606" transform="rotate(-0 348.6402 80.284606)">broker-side secure</text>
   </g>
   <g id="text_25">
    <text style="fill: #1f2a33; font: 5px 'Arial', 'Helvetica', 'DejaVu Sans', sans-serif; text-anchor: middle" x="348.6402" y="92.127762" transform="rotate(-0 348.6402 92.127762)">strict encrypted-flow</text>
   </g>
   <g id="text_26">
    <text style="fill: #1f2a33; font: 5px 'Arial', 'Helvetica', 'DejaVu Sans', sans-serif; text-anchor: middle" x="348.6402" y="103.968574" transform="rotate(-0 348.6402 103.968574)">common MQTT metadata</text>
   </g>
   <g id="text_27">
    <text style="fill: #6d5aa8; font: 700 6.8px 'Arial', 'Helvetica', 'DejaVu Sans', sans-serif; text-anchor: middle" x="84.0645" y="155.753947" transform="rotate(-0 84.0645 155.753947)">Baseline IDS models</text>
   </g>
   <g id="text_28">
    <text style="fill: #1f2a33; font: 5.2px 'Arial', 'Helvetica', 'DejaVu Sans', sans-serif; text-anchor: middle" x="84.0645" y="160.979356" transform="rotate(-0 84.0645 160.979356)">Logistic regression</text>
   </g>
   <g id="text_29">
    <text style="fill: #1f2a33; font: 5.2px 'Arial', 'Helvetica', 'DejaVu Sans', sans-serif; text-anchor: middle" x="84.0645" y="170.878145" transform="rotate(-0 84.0645 170.878145)">Random forest</text>
   </g>
   <g id="text_30">
    <text style="fill: #1f2a33; font: 5.2px 'Arial', 'Helvetica', 'DejaVu Sans', sans-serif; text-anchor: middle" x="84.0645" y="180.746465" transform="rotate(-0 84.0645 180.746465)">Extra trees</text>
   </g>
   <g id="text_31">
    <text style="fill: #2469a6; font: 700 6.2px 'Arial', 'Helvetica', 'DejaVu Sans', sans-serif" transform="translate(168.142797 153.064068)">Within MQTT</text>
    <text style="fill: #2469a6; font: 700 6.2px 'Arial', 'Helvetica', 'DejaVu Sans', sans-serif" transform="translate(176.371359 159.613012)">dataset</text>
   </g>
   <g id="text_32">
    <text style="fill: #1f2a33; font: 5.2px 'Arial', 'Helvetica', 'DejaVu Sans', sans-serif" transform="translate(171.759219 175.0372)">70/15/15 split</text>
    <text style="fill: #1f2a33; font: 5.2px 'Arial', 'Helvetica', 'DejaVu Sans', sans-serif" transform="translate(165.767844 180.537175)">binary + multiclass</text>
   </g>
   <g id="text_33">
    <text style="fill: #2f8f87; font: 700 6.2px 'Arial', 'Helvetica', 'DejaVu Sans', sans-serif" transform="translate(243.731938 153.064068)">MQTT-to-MQTT</text>
    <text style="fill: #2f8f87; font: 700 6.2px 'Arial', 'Helvetica', 'DejaVu Sans', sans-serif" transform="translate(254.569344 159.613012)">transfer</text>
   </g>
   <g id="text_34">
    <text style="fill: #1f2a33; font: 5.2px 'Arial', 'Helvetica', 'DejaVu Sans', sans-serif" transform="translate(244.581156 175.005513)">common metadata</text>
    <text style="fill: #1f2a33; font: 5.2px 'Arial', 'Helvetica', 'DejaVu Sans', sans-serif" transform="translate(246.610375 180.505488)">asymmetric tests</text>
   </g>
   <g id="text_35">
    <text style="fill: #d88922; font: 700 6.2px 'Arial', 'Helvetica', 'DejaVu Sans', sans-serif" transform="translate(327.257078 153.064068)">External IoT</text>
    <text style="fill: #d88922; font: 700 6.2px 'Arial', 'Helvetica', 'DejaVu Sans', sans-serif" transform="translate(328.291219 159.613012)">robustness</text>
   </g>
   <g id="text_36">
    <text style="fill: #1f2a33; font: 5.2px 'Arial', 'Helvetica', 'DejaVu Sans', sans-serif" transform="translate(328.668812 175.013232)">IoT-23 only as</text>
    <text style="fill: #1f2a33; font: 5.2px 'Arial', 'Helvetica', 'DejaVu Sans', sans-serif" transform="translate(324.480375 180.574144)">out-of-domain IoT</text>
   </g>
   <g id="text_37">
    <text style="fill: #1f2a33; font: 700 6.7px 'Arial', 'Helvetica', 'DejaVu Sans', sans-serif; text-anchor: middle" x="211.49775" y="223.120138" transform="rotate(-0 211.49775 223.120138)">Reproducible artifacts</text>
   </g>
   <g id="text_38">
    <text style="fill: #1f2a33; font: 5.3px 'Arial', 'Helvetica', 'DejaVu Sans', sans-serif; text-anchor: middle" x="136.656" y="230.607333" transform="rotate(-0 136.656 230.607333)">feature views</text>
   </g>
   <g id="text_39">
    <text style="fill: #1f2a33; font: 5.3px 'Arial', 'Helvetica', 'DejaVu Sans', sans-serif; text-anchor: middle" x="184.3929" y="230.607333" transform="rotate(-0 184.3929 230.607333)">audit rules</text>
   </g>
   <g id="text_40">
    <text style="fill: #1f2a33; font: 5.3px 'Arial', 'Helvetica', 'DejaVu Sans', sans-serif; text-anchor: middle" x="232.1298" y="230.607333" transform="rotate(-0 232.1298 230.607333)">metric tables</text>
   </g>
   <g id="text_41">
    <text style="fill: #1f2a33; font: 5.3px 'Arial', 'Helvetica', 'DejaVu Sans', sans-serif; text-anchor: middle" x="279.8667" y="230.608575" transform="rotate(-0 279.8667 230.608575)">figures</text>
   </g>
  </g>
 </g>
 <defs>
  <clipPath id="pba23793863">
   <rect x="7.2" y="7.2" width="404.55" height="246.708"/>
  </clipPath>
 </defs>
</svg>
