<?xml version="1.0" encoding="utf-8" standalone="no"?>
<!DOCTYPE svg PUBLIC "-//W3C//DTD SVG 1.1//EN"
  "http://www.w3.org/Graphics/SVG/1.1/DTD/svg11.dtd">
<svg xmlns:xlink="http://www.w3.org/1999/xlink" width="405pt" height="213.984pt" viewBox="0 0 405 213.984" xmlns="http://www.w3.org/2000/svg" version="1.1">
 <metadata>
  <rdf:RDF xmlns:dc="http://purl.org/dc/elements/1.1/" xmlns:cc="http://creativecommons.org/ns#" xmlns:rdf="http://www.w3.org/1999/02/22-rdf-syntax-ns#">
   <cc:Work>
    <dc:type rdf:resource="http://purl.org/dc/dcmitype/StillImage"/>
    <dc:date>2026-06-12T14:27:17.833749</dc:date>
    <dc:format>image/svg+xml</dc:format>
    <dc:creator>
     <cc:Agent>
      <dc:title>Matplotlib v3.7.0, https://matplotlib.org/</dc:title>
     </cc:Agent>
    </dc:creator>
   </cc:Work>
  </rdf:RDF>
 </metadata>
 <defs>
  <style type="text/css">*{stroke-linejoin: round; stroke-linecap: butt}</style>
 </defs>
 <g id="figure_1">
  <g id="patch_1">
   <path d="M 0 213.984 
L 405 213.984 
L 405 0 
L 0 0 
z
" style="fill: #ffffff"/>
  </g>
  <g id="axes_1">
   <g id="patch_2">
    <path d="M 35.79192 73.781222 
L 54.77508 73.781222 
Q 56.72808 73.781222 56.72808 71.785382 
L 56.72808 59.171674 
Q 56.72808 57.175834 54.77508 57.175834 
L 35.79192 57.175834 
Q 33.83892 57.175834 33.83892 59.171674 
L 33.83892 71.785382 
Q 33.83892 73.781222 35.79192 73.781222 
z
" clip-path="url(#p94193f3b37)" style="fill: #eef5fb; stroke: #86b6d9; stroke-linejoin: miter"/>
   </g>
   <g id="patch_3">
    <path d="M 61.18092 55.818662 
L 80.16408 55.818662 
Q 82.11708 55.818662 82.11708 53.822822 
L 82.11708 41.209114 
Q 82.11708 39.213274 80.16408 39.213274 
L 61.18092 39.213274 
Q 59.22792 39.213274 59.22792 41.209114 
L 59.22792 53.822822 
Q 59.22792 55.818662 61.18092 55.818662 
z
" clip-path="url(#p94193f3b37)" style="fill: #eef5fb; stroke: #86b6d9; stroke-linejoin: miter"/>
   </g>
   <g id="patch_4">
    <path d="M 57.27492 91.743782 
L 76.25808 91.743782 
Q 78.21108 91.743782 78.21108 89.747942 
L 78.21108 77.134234 
Q 78.21108 75.138394 76.25808 75.138394 
L 57.27492 75.138394 
Q 55.32192 75.138394 55.32192 77.134234 
L 55.32192 89.747942 
Q 55.32192 91.743782 57.27492 91.743782 
z
" clip-path="url(#p94193f3b37)" style="fill: #eef5fb; stroke: #86b6d9; stroke-linejoin: miter"/>
   </g>
   <g id="patch_5">
    <path d="M 31.88592 109.706342 
L 50.86908 109.706342 
Q 52.82208 109.706342 52.82208 107.710502 
L 52.82208 95.096794 
Q 52.82208 93.100954 50.86908 93.100954 
L 31.88592 93.100954 
Q 29.93292 93.100954 29.93292 95.096794 
L 29.93292 107.710502 
Q 29.93292 109.706342 31.88592 109.706342 
z
" clip-path="url(#p94193f3b37)" style="fill: #eef5fb; stroke: #86b6d9; stroke-linejoin: miter"/>
   </g>
   <g id="patch_6">
    <path d="M 95.55372 109.706342 
L 176.64228 109.706342 
Q 179.76708 109.706342 179.76708 106.512998 
L 179.76708 47.595802 
Q 179.76708 44.402458 176.64228 44.402458 
L 95.55372 44.402458 
Q 92.42892 44.402458 92.42892 47.595802 
L 92.42892 106.512998 
Q 92.42892 109.706342 95.55372 109.706342 
z
" clip-path="url(#p94193f3b37)" style="fill: #f5f8fa; stroke: #b8c7d1; stroke-linejoin: miter"/>
   </g>
   <g id="patch_7">
    <path d="M 100.989058 95.01696 
Q 132.190614 95.01696 161.826922 95.01696 
" clip-path="url(#p94193f3b37)" style="fill: none; stroke: #4c78a8; stroke-width: 1.4; stroke-linecap: round"/>
    <path d="M 157.826922 93.01696 
L 161.826922 95.01696 
L 157.826922 97.01696 
z
" clip-path="url(#p94193f3b37)" style="fill: #4c78a8; stroke: #4c78a8; stroke-width: 1.4; stroke-linecap: round"/>
   </g>
   <g id="patch_8">
    <path d="M 100.989058 81.04608 
Q 132.190614 81.04608 161.826922 81.04608 
" clip-path="url(#p94193f3b37)" style="fill: none; stroke: #4c78a8; stroke-width: 1.4; stroke-linecap: round"/>
    <path d="M 157.826922 79.04608 
L 161.826922 81.04608 
L 157.826922 83.04608 
z
" clip-path="url(#p94193f3b37)" style="fill: #4c78a8; stroke: #4c78a8; stroke-width: 1.4; stroke-linecap: round"/>
   </g>
   <g id="patch_9">
    <path d="M 100.989058 67.0752 
Q 132.190614 67.0752 161.826922 67.0752 
" clip-path="url(#p94193f3b37)" style="fill: none; stroke: #4c78a8; stroke-width: 1.4; stroke-linecap: round"/>
    <path d="M 157.826922 65.0752 
L 161.826922 67.0752 
L 157.826922 69.0752 
z
" clip-path="url(#p94193f3b37)" style="fill: #4c78a8; stroke: #4c78a8; stroke-width: 1.4; stroke-linecap: round"/>
   </g>
   <g id="patch_10">
    <path d="M 202.96872 101.722982 
L 246.95028 101.722982 
Q 250.07508 101.722982 250.07508 98.529638 
L 250.07508 57.575002 
Q 250.07508 54.381658 246.95028 54.381658 
L 202.96872 54.381658 
Q 199.84392 54.381658 199.84392 57.575002 
L 199.84392 98.529638 
Q 199.84392 101.722982 202.96872 101.722982 
z
" clip-path="url(#p94193f3b37)" style="fill: #fff4e6; stroke: #f2a65a; stroke-linejoin: miter"/>
   </g>
   <g id="patch_11">
    <path d="M 181.064919 77.0544 
Q 189.804744 77.0544 197.202929 77.0544 
" clip-path="url(#p94193f3b37)" style="fill: none; stroke: #4c78a8; stroke-width: 1.2; stroke-linecap: round"/>
    <path d="M 193.202929 75.0544 
L 197.202929 77.0544 
L 193.202929 79.0544 
z
" clip-path="url(#p94193f3b37)" style="fill: #4c78a8; stroke: #4c78a8; stroke-width: 1.2; stroke-linecap: round"/>
   </g>
   <g id="patch_12">
    <path d="M 273.27672 87.752102 
L 368.03628 87.752102 
Q 371.16108 87.752102 371.16108 84.558758 
L 371.16108 49.591642 
Q 371.16108 46.398298 368.03628 46.398298 
L 273.27672 46.398298 
Q 270.15192 46.398298 270.15192 49.591642 
L 270.15192 84.558758 
Q 270.15192 87.752102 273.27672 87.752102 
z
" clip-path="url(#p94193f3b37)" style="fill: #ecf7f2; stroke: #4daf8b; stroke-linejoin: miter"/>
   </g>
   <g id="patch_13">
    <path d="M 277.57332 102.920486 
L 303.19668 102.920486 
Q 304.75908 102.920486 304.75908 101.323814 
L 304.75908 91.90345 
Q 304.75908 90.306778 303.19668 90.306778 
L 277.57332 90.306778 
Q 276.01092 90.306778 276.01092 91.90345 
L 276.01092 101.323814 
Q 276.01092 102.920486 277.57332 102.920486 
z
" clip-path="url(#p94193f3b37)" style="fill: #ffffff; stroke: #9ad4c0; stroke-linejoin: miter"/>
   </g>
   <g id="patch_14">
    <path d="M 307.64952 102.920486 
L 333.27288 102.920486 
Q 334.83528 102.920486 334.83528 101.323814 
L 334.83528 91.90345 
Q 334.83528 90.306778 333.27288 90.306778 
L 307.64952 90.306778 
Q 306.08712 90.306778 306.08712 91.90345 
L 306.08712 101.323814 
Q 306.08712 102.920486 307.64952 102.920486 
z
" clip-path="url(#p94193f3b37)" style="fill: #ffffff; stroke: #9ad4c0; stroke-linejoin: miter"/>
   </g>
   <g id="patch_15">
    <path d="M 337.72572 102.920486 
L 363.34908 102.920486 
Q 364.91148 102.920486 364.91148 101.323814 
L 364.91148 91.90345 
Q 364.91148 90.306778 363.34908 90.306778 
L 337.72572 90.306778 
Q 336.16332 90.306778 336.16332 91.90345 
L 336.16332 101.323814 
Q 336.16332 102.920486 337.72572 102.920486 
z
" clip-path="url(#p94193f3b37)" style="fill: #ffffff; stroke: #9ad4c0; stroke-linejoin: miter"/>
   </g>
   <g id="patch_16">
    <path d="M 277.57332 119.685542 
L 303.19668 119.685542 
Q 304.75908 119.685542 304.75908 118.08887 
L 304.75908 108.668506 
Q 304.75908 107.071834 303.19668 107.071834 
L 277.57332 107.071834 
Q 276.01092 107.071834 276.01092 108.668506 
L 276.01092 118.08887 
Q 276.01092 119.685542 277.57332 119.685542 
z
" clip-path="url(#p94193f3b37)" style="fill: #ffffff; stroke: #9ad4c0; stroke-linejoin: miter"/>
   </g>
   <g id="patch_17">
    <path d="M 307.64952 119.685542 
L 333.27288 119.685542 
Q 334.83528 119.685542 334.83528 118.08887 
L 334.83528 108.668506 
Q 334.83528 107.071834 333.27288 107.071834 
L 307.64952 107.071834 
Q 306.08712 107.071834 306.08712 108.668506 
L 306.08712 118.08887 
Q 306.08712 119.685542 307.64952 119.685542 
z
" clip-path="url(#p94193f3b37)" style="fill: #ffffff; stroke: #9ad4c0; stroke-linejoin: miter"/>
   </g>
   <g id="patch_18">
    <path d="M 251.372919 77.0544 
Q 260.112744 77.0544 267.510929 77.0544 
" clip-path="url(#p94193f3b37)" style="fill: none; stroke: #4daf8b; stroke-width: 1.2; stroke-linecap: round"/>
    <path d="M 263.510929 75.0544 
L 267.510929 77.0544 
L 263.510929 79.0544 
z
" clip-path="url(#p94193f3b37)" style="fill: #4daf8b; stroke: #4daf8b; stroke-width: 1.2; stroke-linecap: round"/>
   </g>
   <g id="patch_19">
    <path d="M 290.85372 179.560742 
L 358.27128 179.560742 
Q 361.39608 179.560742 361.39608 176.367398 
L 361.39608 151.379482 
Q 361.39608 148.186138 358.27128 148.186138 
L 290.85372 148.186138 
Q 287.72892 148.186138 287.72892 151.379482 
L 287.72892 176.367398 
Q 287.72892 179.560742 290.85372 179.560742 
z
" clip-path="url(#p94193f3b37)" style="fill: #f4f1fb; stroke: #8e7cc3; stroke-linejoin: miter"/>
   </g>
   <g id="patch_20">
    <path d="M 319.68 120.966047 
Q 319.68 133.93437 319.68 145.561052 
" clip-path="url(#p94193f3b37)" style="fill: none; stroke: #8e7cc3; stroke-width: 1.2; stroke-linecap: round"/>
    <path d="M 321.68 141.561052 
L 319.68 145.561052 
L 317.68 141.561052 
z
" clip-path="url(#p94193f3b37)" style="fill: #8e7cc3; stroke: #8e7cc3; stroke-width: 1.2; stroke-linecap: round"/>
   </g>
   <g id="text_1">
    <text style="font: 700 10px 'Arial', 'Helvetica', 'DejaVu Sans', sans-serif; text-anchor: start" x="15.012" y="21.17088" transform="rotate(-0 15.012 21.17088)">A</text>
   </g>
   <g id="text_2">
    <text style="fill: #263238; font: 700 9px 'Arial', 'Helvetica', 'DejaVu Sans', sans-serif; text-anchor: start" x="28.683" y="21.17088" transform="rotate(-0 28.683 21.17088)">Encrypted MQTT monitoring constraint</text>
   </g>
   <g id="text_3">
    <text style="fill: #263238; font: 5.8px 'Arial', 'Helvetica', 'DejaVu Sans', sans-serif" transform="translate(41.093906 63.910625)">IoT</text>
    <text style="fill: #263238; font: 5.8px 'Arial', 'Helvetica', 'DejaVu Sans', sans-serif" transform="translate(38.513813 70.045212)">client</text>
   </g>
   <g id="text_4">
    <text style="fill: #263238; font: 5.8px 'Arial', 'Helvetica', 'DejaVu Sans', sans-serif" transform="translate(66.482906 45.948065)">IoT</text>
    <text style="fill: #263238; font: 5.8px 'Arial', 'Helvetica', 'DejaVu Sans', sans-serif" transform="translate(63.902812 52.082652)">client</text>
   </g>
   <g id="text_5">
    <text style="fill: #263238; font: 5.8px 'Arial', 'Helvetica', 'DejaVu Sans', sans-serif" transform="translate(62.576906 81.873185)">IoT</text>
    <text style="fill: #263238; font: 5.8px 'Arial', 'Helvetica', 'DejaVu Sans', sans-serif" transform="translate(59.996812 88.007772)">client</text>
   </g>
   <g id="text_6">
    <text style="fill: #263238; font: 5.8px 'Arial', 'Helvetica', 'DejaVu Sans', sans-serif" transform="translate(37.187906 99.835745)">IoT</text>
    <text style="fill: #263238; font: 5.8px 'Arial', 'Helvetica', 'DejaVu Sans', sans-serif" transform="translate(34.607812 105.970332)">client</text>
   </g>
   <g id="text_7">
    <text style="fill: #607d8b; font: 7px 'Arial', 'Helvetica', 'DejaVu Sans', sans-serif" transform="translate(25.515391 129.965029)">MQTT clients</text>
    <text style="fill: #607d8b; font: 7px 'Arial', 'Helvetica', 'DejaVu Sans', sans-serif" transform="translate(11.054375 137.471216)">(resource-constrained)</text>
   </g>
   <g id="text_8">
    <text style="fill: #4c78a8; font: 700 7.5px 'Arial', 'Helvetica', 'DejaVu Sans', sans-serif; text-anchor: middle" x="136.098" y="43.12512" transform="rotate(-0 136.098 43.12512)">TLS / encrypted channel</text>
   </g>
   <g id="text_9">
    <text style="fill: #d65f5f; font: 6.5px 'Arial', 'Helvetica', 'DejaVu Sans', sans-serif" transform="translate(97.258977 110.419227)">Payload, topic, credentials,</text>
    <text style="fill: #d65f5f; font: 6.5px 'Arial', 'Helvetica', 'DejaVu Sans', sans-serif" transform="translate(103.038391 117.370368)">client identifiers hidden</text>
   </g>
   <g id="text_10">
    <text style="fill: #263238; font: 8px 'Arial', 'Helvetica', 'DejaVu Sans', sans-serif" transform="translate(213.630125 75.889695)">MQTT</text>
    <text style="fill: #263238; font: 8px 'Arial', 'Helvetica', 'DejaVu Sans', sans-serif" transform="translate(213.622625 84.351195)">broker</text>
   </g>
   <g id="text_11">
    <text style="fill: #263238; font: 7.3px 'Arial', 'Helvetica', 'DejaVu Sans', sans-serif; text-anchor: middle" x="320.6565" y="68.966356" transform="rotate(-0 320.6565 68.966356)">Observable encrypted-flow metadata</text>
   </g>
   <g id="text_12">
    <text style="fill: #263238; font: 5.6px 'Arial', 'Helvetica', 'DejaVu Sans', sans-serif; text-anchor: middle" x="290.385" y="98.061319" transform="rotate(-0 290.385 98.061319)">duration</text>
   </g>
   <g id="text_13">
    <text style="fill: #263238; font: 5.6px 'Arial', 'Helvetica', 'DejaVu Sans', sans-serif; text-anchor: middle" x="320.4612" y="98.062632" transform="rotate(-0 320.4612 98.062632)">packet/byte stats</text>
   </g>
   <g id="text_14">
    <text style="fill: #263238; font: 5.6px 'Arial', 'Helvetica', 'DejaVu Sans', sans-serif; text-anchor: middle" x="350.5374" y="98.061319" transform="rotate(-0 350.5374 98.061319)">IAT/rates</text>
   </g>
   <g id="text_15">
    <text style="fill: #263238; font: 5.6px 'Arial', 'Helvetica', 'DejaVu Sans', sans-serif; text-anchor: middle" x="290.385" y="114.826375" transform="rotate(-0 290.385 114.826375)">burstiness</text>
   </g>
   <g id="text_16">
    <text style="fill: #263238; font: 5.6px 'Arial', 'Helvetica', 'DejaVu Sans', sans-serif; text-anchor: middle" x="320.4612" y="114.827688" transform="rotate(-0 320.4612 114.827688)">TCP flags</text>
   </g>
   <g id="text_17">
    <text style="fill: #263238; font: 7px 'Arial', 'Helvetica', 'DejaVu Sans', sans-serif" transform="translate(295.578125 161.890581)">Metadata-only IDS</text>
    <text style="fill: #263238; font: 7px 'Arial', 'Helvetica', 'DejaVu Sans', sans-serif" transform="translate(301.798828 169.478799)">benign / attack</text>
   </g>
   <g id="text_18">
    <text style="fill: #607d8b; font: 6.6px 'Arial', 'Helvetica', 'DejaVu Sans', sans-serif" transform="translate(109.435172 173.779999)">Claim boundary: detection aid, not a substitute for authentication,</text>
    <text style="fill: #607d8b; font: 6.6px 'Arial', 'Helvetica', 'DejaVu Sans', sans-serif" transform="translate(128.702016 180.83808)">access control, or cryptographic protocol hardening.</text>
   </g>
  </g>
 </g>
 <defs>
  <clipPath id="p94193f3b37">
   <rect x="7.2" y="7.2" width="390.6" height="199.584"/>
  </clipPath>
 </defs>
</svg>
